<svg width="585" height="530" viewBox="0 0 585 530" fill="none" xmlns="http://www.w3.org/2000/svg">
<g filter="url(#filter0_d_306_19023)">
<rect x="492" y="390" width="27" height="91" rx="4" fill="#31353D"/>
<rect x="493" y="391" width="25" height="89" rx="3" stroke="white" stroke-width="2"/>
</g>
<g filter="url(#filter1_d_306_19023)">
<rect x="66" y="390" width="27" height="91" rx="4" fill="#31353D"/>
<rect x="67" y="391" width="25" height="89" rx="3" stroke="white" stroke-width="2"/>
</g>
<g filter="url(#filter2_d_306_19023)">
<rect x="40" y="31" width="505" height="367" rx="4" fill="#102A46"/>
<rect x="41" y="32" width="503" height="365" rx="3" stroke="white" stroke-width="2"/>
</g>
<g filter="url(#filter3_d_306_19023)">
<rect x="40" y="31" width="505" height="117" rx="4" fill="#102A46"/>
<rect x="41" y="32" width="503" height="115" rx="3" stroke="white" stroke-width="2"/>
</g>
<path d="M132.958 181.42H124.978V190H120.418V169.06H124.978V177.4H132.958V169.06H137.518V190H132.958V181.42ZM149.146 190.36C147.766 190.36 146.506 190.13 145.366 189.67C144.226 189.21 143.256 188.53 142.456 187.63C141.656 186.71 141.036 185.58 140.596 184.24C140.156 182.88 139.936 181.31 139.936 179.53C139.936 177.75 140.156 176.19 140.596 174.85C141.036 173.49 141.656 172.36 142.456 171.46C143.256 170.54 144.226 169.85 145.366 169.39C146.506 168.93 147.766 168.7 149.146 168.7C150.526 168.7 151.786 168.93 152.926 169.39C154.066 169.85 155.036 170.54 155.836 171.46C156.636 172.36 157.256 173.49 157.696 174.85C158.136 176.19 158.356 177.75 158.356 179.53C158.356 181.31 158.136 182.88 157.696 184.24C157.256 185.58 156.636 186.71 155.836 187.63C155.036 188.53 154.066 189.21 152.926 189.67C151.786 190.13 150.526 190.36 149.146 190.36ZM149.146 186.31C150.526 186.31 151.596 185.86 152.356 184.96C153.136 184.06 153.526 182.77 153.526 181.09V177.97C153.526 176.29 153.136 175 152.356 174.1C151.596 173.2 150.526 172.75 149.146 172.75C147.766 172.75 146.686 173.2 145.906 174.1C145.146 175 144.766 176.29 144.766 177.97V181.09C144.766 182.77 145.146 184.06 145.906 184.96C146.686 185.86 147.766 186.31 149.146 186.31ZM176.441 176.26H176.351L174.821 179.32L170.741 186.73L166.751 179.35L165.161 176.05H165.071V190H160.781V169.06H165.611L170.741 178.87H170.801L175.871 169.06H180.731V190H176.441V176.26ZM183.98 190V169.06H198.23V173.11H188.54V177.4H196.85V181.42H188.54V185.95H198.23V190H183.98Z" fill="white"/>
<path d="M398.303 190L396.803 185.02H389.813L388.313 190H383.693L390.593 169.06H396.233L403.043 190H398.303ZM393.353 173.2H393.203L390.893 181.15H395.693L393.353 173.2ZM407.039 190L402.299 169.06H406.799L408.779 179.11L409.889 184.93H409.979L411.299 179.11L413.609 169.06H418.589L420.929 179.11L422.219 184.93H422.309L423.419 179.11L425.429 169.06H429.749L424.889 190H419.699L417.059 178.66L416.039 174.07H415.949L414.899 178.66L412.259 190H407.039ZM443.588 190L442.088 185.02H435.098L433.598 190H428.978L435.878 169.06H441.518L448.328 190H443.588ZM438.638 173.2H438.488L436.178 181.15H440.978L438.638 173.2ZM452.865 190V181.81L445.695 169.06H450.795L455.295 177.4H455.355L459.675 169.06H464.625L457.455 181.78V190H452.865Z" fill="white"/>
<path d="M266.463 56.11V73H261.903V56.11H256.233V52.06H272.133V56.11H266.463ZM274.325 73V69.37H277.025V55.69H274.325V52.06H284.285V55.69H281.585V69.37H284.285V73H274.325ZM303.744 59.26H303.654L302.124 62.32L298.044 69.73L294.054 62.35L292.464 59.05H292.374V73H288.084V52.06H292.914L298.044 61.87H298.104L303.174 52.06H308.034V73H303.744V59.26ZM312.664 73V52.06H326.914V56.11H317.224V60.4H325.534V64.42H317.224V68.95H326.914V73H312.664Z" fill="white"/>
<g filter="url(#filter4_d_306_19023)">
<rect x="430" y="209" width="89" height="163" rx="4" fill="#16588F"/>
<rect x="431" y="210" width="87" height="161" rx="3" stroke="white" stroke-width="2"/>
</g>
<g filter="url(#filter5_d_306_19023)">
<rect x="167" y="209" width="89" height="163" rx="4" fill="#16588F"/>
<rect x="168" y="210" width="87" height="161" rx="3" stroke="white" stroke-width="2"/>
</g>
<g filter="url(#filter6_d_306_19023)">
<rect x="329" y="209" width="89" height="163" rx="4" fill="#16588F"/>
<rect x="330" y="210" width="87" height="161" rx="3" stroke="white" stroke-width="2"/>
</g>
<g filter="url(#filter7_d_306_19023)">
<rect x="66" y="209" width="89" height="163" rx="4" fill="#16588F"/>
<rect x="67" y="210" width="87" height="161" rx="3" stroke="white" stroke-width="2"/>
</g>
<path d="M212.72 328V314.6H182.02V301.8L209.22 258.2H227.02V303H235.82V314.6H227.02V328H212.72ZM194.02 303H212.72V273.7H211.72L194.02 303Z" fill="white"/>
<path d="M373.02 329.2C363.886 329.2 357.12 326.033 352.72 319.7C348.32 313.367 346.12 304.5 346.12 293.1C346.12 281.7 348.32 272.833 352.72 266.5C357.12 260.167 363.886 257 373.02 257C382.153 257 388.92 260.167 393.32 266.5C397.72 272.833 399.92 281.7 399.92 293.1C399.92 304.5 397.72 313.367 393.32 319.7C388.92 326.033 382.153 329.2 373.02 329.2ZM373.02 316.5C377.02 316.5 379.786 315.033 381.32 312.1C382.853 309.167 383.62 305.033 383.62 299.7V286.5C383.62 281.167 382.853 277.033 381.32 274.1C379.786 271.167 377.02 269.7 373.02 269.7C369.02 269.7 366.253 271.167 364.72 274.1C363.186 277.033 362.42 281.167 362.42 286.5V299.7C362.42 305.033 363.186 309.167 364.72 312.1C366.253 315.033 369.02 316.5 373.02 316.5Z" fill="white"/>
<path d="M476.72 328V314.6H446.02V301.8L473.22 258.2H491.02V303H499.82V314.6H491.02V328H476.72ZM458.02 303H476.72V273.7H475.72L458.02 303Z" fill="white"/>
<path d="M277.634 304.7V290.3H307.334V304.7H277.634Z" fill="white"/>
<g filter="url(#filter8_d_306_19023)">
<rect x="329.227" y="89" width="23.7726" height="43.5386" rx="1.06843" fill="#31353D"/>
<rect x="329.494" y="89.2671" width="23.2384" height="43.0044" rx="0.801324" stroke="white" stroke-width="0.534216"/>
</g>
<g filter="url(#filter9_d_306_19023)">
<rect x="258.977" y="89" width="23.7726" height="43.5386" rx="1.06843" fill="#31353D"/>
<rect x="259.244" y="89.2671" width="23.2384" height="43.0044" rx="0.801324" stroke="white" stroke-width="0.534216"/>
</g>
<g filter="url(#filter10_d_306_19023)">
<rect x="302.25" y="89" width="23.7726" height="43.5386" rx="1.06843" fill="#31353D"/>
<rect x="302.517" y="89.2671" width="23.2384" height="43.0044" rx="0.801324" stroke="white" stroke-width="0.534216"/>
</g>
<g filter="url(#filter11_d_306_19023)">
<rect x="232" y="89" width="23.7726" height="43.5386" rx="1.06843" fill="#31353D"/>
<rect x="232.267" y="89.2671" width="23.2384" height="43.0044" rx="0.801324" stroke="white" stroke-width="0.534216"/>
</g>
<path d="M243.757 121.395C241.317 121.395 239.51 120.549 238.334 118.857C237.159 117.166 236.572 114.797 236.572 111.752C236.572 108.707 237.159 106.339 238.334 104.647C239.51 102.955 241.317 102.11 243.757 102.11C246.196 102.11 248.004 102.955 249.179 104.647C250.354 106.339 250.942 108.707 250.942 111.752C250.942 114.797 250.354 117.166 249.179 118.857C248.004 120.549 246.196 121.395 243.757 121.395ZM243.757 118.002C244.825 118.002 245.564 117.611 245.974 116.827C246.383 116.044 246.588 114.94 246.588 113.515V109.989C246.588 108.565 246.383 107.461 245.974 106.677C245.564 105.894 244.825 105.502 243.757 105.502C242.688 105.502 241.949 105.894 241.54 106.677C241.13 107.461 240.925 108.565 240.925 109.989V113.515C240.925 114.94 241.13 116.044 241.54 116.827C241.949 117.611 242.688 118.002 243.757 118.002Z" fill="white"/>
<path d="M270.737 121.395C268.298 121.395 266.49 120.549 265.315 118.857C264.14 117.166 263.552 114.797 263.552 111.752C263.552 108.707 264.14 106.339 265.315 104.647C266.49 102.955 268.298 102.11 270.737 102.11C273.177 102.11 274.984 102.955 276.16 104.647C277.335 106.339 277.922 108.707 277.922 111.752C277.922 114.797 277.335 117.166 276.16 118.857C274.984 120.549 273.177 121.395 270.737 121.395ZM270.737 118.002C271.806 118.002 272.545 117.611 272.954 116.827C273.364 116.044 273.569 114.94 273.569 113.515V109.989C273.569 108.565 273.364 107.461 272.954 106.677C272.545 105.894 271.806 105.502 270.737 105.502C269.669 105.502 268.93 105.894 268.52 106.677C268.111 107.461 267.906 108.565 267.906 109.989V113.515C267.906 114.94 268.111 116.044 268.52 116.827C268.93 117.611 269.669 118.002 270.737 118.002Z" fill="white"/>
<path d="M314.276 121.395C311.837 121.395 310.029 120.549 308.854 118.857C307.679 117.166 307.091 114.797 307.091 111.752C307.091 108.707 307.679 106.339 308.854 104.647C310.029 102.955 311.837 102.11 314.276 102.11C316.716 102.11 318.523 102.955 319.699 104.647C320.874 106.339 321.461 108.707 321.461 111.752C321.461 114.797 320.874 117.166 319.699 118.857C318.523 120.549 316.716 121.395 314.276 121.395ZM314.276 118.002C315.345 118.002 316.084 117.611 316.493 116.827C316.903 116.044 317.108 114.94 317.108 113.515V109.989C317.108 108.565 316.903 107.461 316.493 106.677C316.084 105.894 315.345 105.502 314.276 105.502C313.208 105.502 312.469 105.894 312.059 106.677C311.65 107.461 311.445 108.565 311.445 109.989V113.515C311.445 114.94 311.65 116.044 312.059 116.827C312.469 117.611 313.208 118.002 314.276 118.002Z" fill="white"/>
<path d="M341.018 121.395C338.579 121.395 336.771 120.549 335.596 118.857C334.421 117.166 333.833 114.797 333.833 111.752C333.833 108.707 334.421 106.339 335.596 104.647C336.771 102.955 338.579 102.11 341.018 102.11C343.458 102.11 345.265 102.955 346.441 104.647C347.616 106.339 348.204 108.707 348.204 111.752C348.204 114.797 347.616 117.166 346.441 118.857C345.265 120.549 343.458 121.395 341.018 121.395ZM341.018 118.002C342.087 118.002 342.826 117.611 343.235 116.827C343.645 116.044 343.85 114.94 343.85 113.515V109.989C343.85 108.565 343.645 107.461 343.235 106.677C342.826 105.894 342.087 105.502 341.018 105.502C339.95 105.502 339.211 105.894 338.801 106.677C338.392 107.461 338.187 108.565 338.187 109.989V113.515C338.187 114.94 338.392 116.044 338.801 116.827C339.211 117.611 339.95 118.002 341.018 118.002Z" fill="white"/>
<path d="M288.528 114.851V111.004H296.461V114.851H288.528Z" fill="white"/>
<defs>
<filter id="filter0_d_306_19023" x="452" y="359" width="107" height="171" filterUnits="userSpaceOnUse" color-interpolation-filters="sRGB">
<feFlood flood-opacity="0" result="BackgroundImageFix"/>
<feColorMatrix in="SourceAlpha" type="matrix" values="0 0 0 0 0 0 0 0 0 0 0 0 0 0 0 0 0 0 127 0" result="hardAlpha"/>
<feOffset dy="9"/>
<feGaussianBlur stdDeviation="20"/>
<feComposite in2="hardAlpha" operator="out"/>
<feColorMatrix type="matrix" values="0 0 0 0 0.192157 0 0 0 0 0.207843 0 0 0 0 0.239216 0 0 0 0.2 0"/>
<feBlend mode="normal" in2="BackgroundImageFix" result="effect1_dropShadow_306_19023"/>
<feBlend mode="normal" in="SourceGraphic" in2="effect1_dropShadow_306_19023" result="shape"/>
</filter>
<filter id="filter1_d_306_19023" x="26" y="359" width="107" height="171" filterUnits="userSpaceOnUse" color-interpolation-filters="sRGB">
<feFlood flood-opacity="0" result="BackgroundImageFix"/>
<feColorMatrix in="SourceAlpha" type="matrix" values="0 0 0 0 0 0 0 0 0 0 0 0 0 0 0 0 0 0 127 0" result="hardAlpha"/>
<feOffset dy="9"/>
<feGaussianBlur stdDeviation="20"/>
<feComposite in2="hardAlpha" operator="out"/>
<feColorMatrix type="matrix" values="0 0 0 0 0.192157 0 0 0 0 0.207843 0 0 0 0 0.239216 0 0 0 0.2 0"/>
<feBlend mode="normal" in2="BackgroundImageFix" result="effect1_dropShadow_306_19023"/>
<feBlend mode="normal" in="SourceGraphic" in2="effect1_dropShadow_306_19023" result="shape"/>
</filter>
<filter id="filter2_d_306_19023" x="0" y="0" width="585" height="447" filterUnits="userSpaceOnUse" color-interpolation-filters="sRGB">
<feFlood flood-opacity="0" result="BackgroundImageFix"/>
<feColorMatrix in="SourceAlpha" type="matrix" values="0 0 0 0 0 0 0 0 0 0 0 0 0 0 0 0 0 0 127 0" result="hardAlpha"/>
<feOffset dy="9"/>
<feGaussianBlur stdDeviation="20"/>
<feComposite in2="hardAlpha" operator="out"/>
<feColorMatrix type="matrix" values="0 0 0 0 0.192157 0 0 0 0 0.207843 0 0 0 0 0.239216 0 0 0 0.2 0"/>
<feBlend mode="normal" in2="BackgroundImageFix" result="effect1_dropShadow_306_19023"/>
<feBlend mode="normal" in="SourceGraphic" in2="effect1_dropShadow_306_19023" result="shape"/>
</filter>
<filter id="filter3_d_306_19023" x="0" y="0" width="585" height="197" filterUnits="userSpaceOnUse" color-interpolation-filters="sRGB">
<feFlood flood-opacity="0" result="BackgroundImageFix"/>
<feColorMatrix in="SourceAlpha" type="matrix" values="0 0 0 0 0 0 0 0 0 0 0 0 0 0 0 0 0 0 127 0" result="hardAlpha"/>
<feOffset dy="9"/>
<feGaussianBlur stdDeviation="20"/>
<feComposite in2="hardAlpha" operator="out"/>
<feColorMatrix type="matrix" values="0 0 0 0 0.192157 0 0 0 0 0.207843 0 0 0 0 0.239216 0 0 0 0.2 0"/>
<feBlend mode="normal" in2="BackgroundImageFix" result="effect1_dropShadow_306_19023"/>
<feBlend mode="normal" in="SourceGraphic" in2="effect1_dropShadow_306_19023" result="shape"/>
</filter>
<filter id="filter4_d_306_19023" x="390" y="178" width="169" height="243" filterUnits="userSpaceOnUse" color-interpolation-filters="sRGB">
<feFlood flood-opacity="0" result="BackgroundImageFix"/>
<feColorMatrix in="SourceAlpha" type="matrix" values="0 0 0 0 0 0 0 0 0 0 0 0 0 0 0 0 0 0 127 0" result="hardAlpha"/>
<feOffset dy="9"/>
<feGaussianBlur stdDeviation="20"/>
<feComposite in2="hardAlpha" operator="out"/>
<feColorMatrix type="matrix" values="0 0 0 0 0.192157 0 0 0 0 0.207843 0 0 0 0 0.239216 0 0 0 0.2 0"/>
<feBlend mode="normal" in2="BackgroundImageFix" result="effect1_dropShadow_306_19023"/>
<feBlend mode="normal" in="SourceGraphic" in2="effect1_dropShadow_306_19023" result="shape"/>
</filter>
<filter id="filter5_d_306_19023" x="127" y="178" width="169" height="243" filterUnits="userSpaceOnUse" color-interpolation-filters="sRGB">
<feFlood flood-opacity="0" result="BackgroundImageFix"/>
<feColorMatrix in="SourceAlpha" type="matrix" values="0 0 0 0 0 0 0 0 0 0 0 0 0 0 0 0 0 0 127 0" result="hardAlpha"/>
<feOffset dy="9"/>
<feGaussianBlur stdDeviation="20"/>
<feComposite in2="hardAlpha" operator="out"/>
<feColorMatrix type="matrix" values="0 0 0 0 0.192157 0 0 0 0 0.207843 0 0 0 0 0.239216 0 0 0 0.2 0"/>
<feBlend mode="normal" in2="BackgroundImageFix" result="effect1_dropShadow_306_19023"/>
<feBlend mode="normal" in="SourceGraphic" in2="effect1_dropShadow_306_19023" result="shape"/>
</filter>
<filter id="filter6_d_306_19023" x="289" y="178" width="169" height="243" filterUnits="userSpaceOnUse" color-interpolation-filters="sRGB">
<feFlood flood-opacity="0" result="BackgroundImageFix"/>
<feColorMatrix in="SourceAlpha" type="matrix" values="0 0 0 0 0 0 0 0 0 0 0 0 0 0 0 0 0 0 127 0" result="hardAlpha"/>
<feOffset dy="9"/>
<feGaussianBlur stdDeviation="20"/>
<feComposite in2="hardAlpha" operator="out"/>
<feColorMatrix type="matrix" values="0 0 0 0 0.192157 0 0 0 0 0.207843 0 0 0 0 0.239216 0 0 0 0.2 0"/>
<feBlend mode="normal" in2="BackgroundImageFix" result="effect1_dropShadow_306_19023"/>
<feBlend mode="normal" in="SourceGraphic" in2="effect1_dropShadow_306_19023" result="shape"/>
</filter>
<filter id="filter7_d_306_19023" x="26" y="178" width="169" height="243" filterUnits="userSpaceOnUse" color-interpolation-filters="sRGB">
<feFlood flood-opacity="0" result="BackgroundImageFix"/>
<feColorMatrix in="SourceAlpha" type="matrix" values="0 0 0 0 0 0 0 0 0 0 0 0 0 0 0 0 0 0 127 0" result="hardAlpha"/>
<feOffset dy="9"/>
<feGaussianBlur stdDeviation="20"/>
<feComposite in2="hardAlpha" operator="out"/>
<feColorMatrix type="matrix" values="0 0 0 0 0.192157 0 0 0 0 0.207843 0 0 0 0 0.239216 0 0 0 0.2 0"/>
<feBlend mode="normal" in2="BackgroundImageFix" result="effect1_dropShadow_306_19023"/>
<feBlend mode="normal" in="SourceGraphic" in2="effect1_dropShadow_306_19023" result="shape"/>
</filter>
<filter id="filter8_d_306_19023" x="318.542" y="80.7196" width="45.1421" height="64.9077" filterUnits="userSpaceOnUse" color-interpolation-filters="sRGB">
<feFlood flood-opacity="0" result="BackgroundImageFix"/>
<feColorMatrix in="SourceAlpha" type="matrix" values="0 0 0 0 0 0 0 0 0 0 0 0 0 0 0 0 0 0 127 0" result="hardAlpha"/>
<feOffset dy="2.40397"/>
<feGaussianBlur stdDeviation="5.34216"/>
<feComposite in2="hardAlpha" operator="out"/>
<feColorMatrix type="matrix" values="0 0 0 0 0.192157 0 0 0 0 0.207843 0 0 0 0 0.239216 0 0 0 0.2 0"/>
<feBlend mode="normal" in2="BackgroundImageFix" result="effect1_dropShadow_306_19023"/>
<feBlend mode="normal" in="SourceGraphic" in2="effect1_dropShadow_306_19023" result="shape"/>
</filter>
<filter id="filter9_d_306_19023" x="248.292" y="80.7196" width="45.1421" height="64.9077" filterUnits="userSpaceOnUse" color-interpolation-filters="sRGB">
<feFlood flood-opacity="0" result="BackgroundImageFix"/>
<feColorMatrix in="SourceAlpha" type="matrix" values="0 0 0 0 0 0 0 0 0 0 0 0 0 0 0 0 0 0 127 0" result="hardAlpha"/>
<feOffset dy="2.40397"/>
<feGaussianBlur stdDeviation="5.34216"/>
<feComposite in2="hardAlpha" operator="out"/>
<feColorMatrix type="matrix" values="0 0 0 0 0.192157 0 0 0 0 0.207843 0 0 0 0 0.239216 0 0 0 0.2 0"/>
<feBlend mode="normal" in2="BackgroundImageFix" result="effect1_dropShadow_306_19023"/>
<feBlend mode="normal" in="SourceGraphic" in2="effect1_dropShadow_306_19023" result="shape"/>
</filter>
<filter id="filter10_d_306_19023" x="291.566" y="80.7196" width="45.1421" height="64.9077" filterUnits="userSpaceOnUse" color-interpolation-filters="sRGB">
<feFlood flood-opacity="0" result="BackgroundImageFix"/>
<feColorMatrix in="SourceAlpha" type="matrix" values="0 0 0 0 0 0 0 0 0 0 0 0 0 0 0 0 0 0 127 0" result="hardAlpha"/>
<feOffset dy="2.40397"/>
<feGaussianBlur stdDeviation="5.34216"/>
<feComposite in2="hardAlpha" operator="out"/>
<feColorMatrix type="matrix" values="0 0 0 0 0.192157 0 0 0 0 0.207843 0 0 0 0 0.239216 0 0 0 0.2 0"/>
<feBlend mode="normal" in2="BackgroundImageFix" result="effect1_dropShadow_306_19023"/>
<feBlend mode="normal" in="SourceGraphic" in2="effect1_dropShadow_306_19023" result="shape"/>
</filter>
<filter id="filter11_d_306_19023" x="221.316" y="80.7196" width="45.1421" height="64.9077" filterUnits="userSpaceOnUse" color-interpolation-filters="sRGB">
<feFlood flood-opacity="0" result="BackgroundImageFix"/>
<feColorMatrix in="SourceAlpha" type="matrix" values="0 0 0 0 0 0 0 0 0 0 0 0 0 0 0 0 0 0 127 0" result="hardAlpha"/>
<feOffset dy="2.40397"/>
<feGaussianBlur stdDeviation="5.34216"/>
<feComposite in2="hardAlpha" operator="out"/>
<feColorMatrix type="matrix" values="0 0 0 0 0.192157 0 0 0 0 0.207843 0 0 0 0 0.239216 0 0 0 0.2 0"/>
<feBlend mode="normal" in2="BackgroundImageFix" result="effect1_dropShadow_306_19023"/>
<feBlend mode="normal" in="SourceGraphic" in2="effect1_dropShadow_306_19023" result="shape"/>
</filter>
</defs>
</svg>
