  <svg
    width="1148"
    height="961"
    viewBox="0 0 1148 961"
    fill="none"
    xmlns="http://www.w3.org/2000/svg"
    id="g-star"
  >
    <g opacity="0.2">
      <path
        d="M662.111 -8L507 823.836L1148 300.434L783.583 345.297L662.111 -8Z"
        fill="#E6B260"
      />
      <path
        d="M884.499 586.436L751.813 698.593L1026.53 893L884.499 586.436Z"
        fill="#E6B260"
      />
      <path
        d="M568.862 310.923L548.236 330.451H110.766C19.5814 330.451 -130.222 461.723 -115.025 602.759C-102.867 715.588 -8.64252 756.09 36.9499 762.238H286.623L307.248 642.9H86.8845L71.687 624.457L103.168 467.147L123.793 448.704L523.269 443.28L539.552 467.147L453.795 942.331L434.256 958.604C342.347 960.412 128.569 962.943 8.72601 958.604C-111.117 954.264 -200.42 887.363 -230.092 854.454C-387.495 678.701 -323.712 396.629 -209.057 294.649C-61.4236 163.338 25.4193 133.001 158.529 133H582.974L596 151.443L568.862 310.923Z"
        fill="#E6B260"
      />
    </g>
  </svg>