<svg
      id="svg"
      width="120"
      height="43"
      viewBox="0 0 120 43"
      fill="none"
      xmlns="http://www.w3.org/2000/svg"
    >
      <path
        d="M13.2045 42.6452C9.63772 42.5035 6.71959 41.5275 4.43785 39.7149C4.00239 39.3686 2.96473 38.3303 2.61661 37.8924C1.69133 36.7289 1.06227 35.5966 0.642686 34.3403C-0.648427 30.4731 0.0160622 25.3984 2.54332 19.829C4.70719 15.061 8.04613 10.332 13.8714 3.78235C14.7295 2.8186 17.2848 0 17.3013 0C17.3074 0 17.1682 0.241248 16.9929 0.535016C15.4783 3.07205 14.1823 6.06041 13.4762 8.64752C12.3421 12.7987 12.4789 16.3612 13.8769 19.1236C14.8413 21.0267 16.4945 22.6751 18.3536 23.5863C21.6083 25.181 26.3733 25.3129 32.1925 23.9723C32.5931 23.8795 52.446 18.6094 76.3102 12.2607C100.174 5.9114 119.703 0.720685 119.706 0.72496C119.713 0.730457 64.2627 24.4579 35.4777 36.7674C30.9191 38.7163 29.7 39.2086 27.5569 39.961C22.0786 41.8848 17.1712 42.8028 13.2045 42.6452Z"
        fill="#555E6F"
      />
    </svg>