<svg width="240" height="125" viewBox="0 0 240 125" fill="none" xmlns="http://www.w3.org/2000/svg">
<g filter="url(#filter0_d_306_10046)">
<rect x="40" y="31" width="160" height="45" rx="22.5" fill="#16588F"/>
<rect x="41" y="32" width="158" height="43" rx="21.5" stroke="white" stroke-width="2"/>
</g>
<path d="M80.5128 49L75 54L80.5128 59L81.6667 57.9302L78.1538 54.7442H89V53.2558H78.1538L81.6667 50.0698L80.5128 49Z" fill="white"/>
<path d="M107.736 58H105.759V50.6831H100.837V48.9106H108.864V50.6831H107.736V58ZM110.542 48.9106H112.519V58H110.542V48.9106ZM114.094 56.396C115.354 56.3765 116.333 56.252 117.031 56.0225L114.438 48.9106H116.584L118.745 55.1362C119.296 54.6919 119.689 53.9888 119.924 53.0269C120.158 52.0649 120.275 50.6929 120.275 48.9106H122.312C122.312 51.2397 122.05 53.0635 121.528 54.3818C121.01 55.6953 120.17 56.6621 119.008 57.2822C117.846 57.8975 116.208 58.2515 114.094 58.3442V56.396ZM128.515 48.9106H130.493V58H128.515V48.9106ZM132.683 48.9106H135.085L138.051 53.0195C138.359 52.7412 138.593 52.4141 138.754 52.0381C138.916 51.6621 139.03 51.1543 139.099 50.5146L139.252 48.9106H141.274L141.098 50.6465C141.049 51.1348 140.949 51.5742 140.798 51.9648C140.651 52.3506 140.451 52.7095 140.197 53.0415C139.948 53.3735 139.548 53.7861 138.996 54.2793L141.728 58H139.34L135.686 52.9316C135.422 53.083 135.236 53.3052 135.129 53.5981C135.021 53.8862 134.897 54.4697 134.755 55.3486L134.301 58H132.25L132.866 54.9678C133.042 54.1328 133.203 53.5347 133.349 53.1733C133.496 52.812 133.676 52.5264 133.891 52.3164C134.111 52.1016 134.414 51.9111 134.799 51.7451L132.683 48.9106ZM149.448 58H147.463V52.7192C147.463 51.9624 147.299 51.4351 146.972 51.1372C146.65 50.8345 146.105 50.6831 145.339 50.6831H142.292V48.9106H145.456C146.896 48.9106 147.922 49.2061 148.532 49.7969C149.143 50.3828 149.448 51.3618 149.448 52.7339V58ZM153.901 52.4189V60.8198H151.923V52.4189H153.901ZM151.55 48.9106H156.076C157.316 48.9106 158.22 49.1475 158.786 49.6211C159.353 50.0898 159.636 50.8589 159.636 51.9282C159.636 53.3198 159.216 54.5698 158.376 55.6782C157.536 56.7817 156.33 57.6558 154.758 58.3003V56.1982C155.676 55.7686 156.384 55.1973 156.882 54.4844C157.385 53.7666 157.636 52.9927 157.636 52.1626C157.636 51.6157 157.5 51.2324 157.226 51.0127C156.953 50.793 156.474 50.6831 155.791 50.6831H151.55V48.9106Z" fill="white"/>
<defs>
<filter id="filter0_d_306_10046" x="0" y="0" width="240" height="125" filterUnits="userSpaceOnUse" color-interpolation-filters="sRGB">
<feFlood flood-opacity="0" result="BackgroundImageFix"/>
<feColorMatrix in="SourceAlpha" type="matrix" values="0 0 0 0 0 0 0 0 0 0 0 0 0 0 0 0 0 0 127 0" result="hardAlpha"/>
<feOffset dy="9"/>
<feGaussianBlur stdDeviation="20"/>
<feComposite in2="hardAlpha" operator="out"/>
<feColorMatrix type="matrix" values="0 0 0 0 0.192157 0 0 0 0 0.207843 0 0 0 0 0.239216 0 0 0 0.2 0"/>
<feBlend mode="normal" in2="BackgroundImageFix" result="effect1_dropShadow_306_10046"/>
<feBlend mode="normal" in="SourceGraphic" in2="effect1_dropShadow_306_10046" result="shape"/>
</filter>
</defs>
</svg>
