<svg width="26" height="26" viewBox="0 0 26 26" fill="none" xmlns="http://www.w3.org/2000/svg">
<path d="M13 0C5.83109 0 0 5.83109 0 13C0 20.1689 5.83109 26 13 26C20.1689 26 26 20.1689 26 13C26 5.83109 20.1689 0 13 0ZM13 0.896552C19.6734 0.896552 25.1034 6.32664 25.1034 13C25.1034 19.6734 19.6734 25.1034 13 25.1034C6.32664 25.1034 0.896552 19.6734 0.896552 13C0.896552 6.32664 6.32664 0.896552 13 0.896552ZM13 2.68966C7.31425 2.68966 2.68966 7.31425 2.68966 13C2.68966 18.6857 7.31425 23.3103 13 23.3103C18.6857 23.3103 23.3103 18.6857 23.3103 13C23.3103 9.81479 21.8727 6.85897 19.3652 4.88901C19.1708 4.73666 18.8889 4.76818 18.7365 4.9643C18.5842 5.15867 18.6175 5.4406 18.8118 5.59469C21.1005 7.39305 22.4138 10.0932 22.4138 13C22.4138 18.1902 18.1902 22.4138 13 22.4138C7.80981 22.4138 3.58621 18.1902 3.58621 13C3.58621 7.80981 7.80981 3.58621 13 3.58621C13.4605 3.58621 13.9228 3.61948 14.3728 3.68602C14.6197 3.72279 14.8474 3.55294 14.8824 3.30779C14.9174 3.06263 14.7493 2.835 14.5042 2.79822C14.0104 2.72643 13.5043 2.68966 13 2.68966ZM16.3761 3.29203C16.2027 3.30078 16.0416 3.4111 15.9768 3.58621C15.8928 3.81735 16.0119 4.07476 16.2447 4.16056C16.595 4.28839 16.9434 4.44248 17.2796 4.61409C17.3462 4.64736 17.4162 4.66312 17.4845 4.66312C17.6474 4.66312 17.805 4.57381 17.8838 4.41797C17.9958 4.19733 17.9083 3.92767 17.6876 3.8156C17.3199 3.62648 16.9382 3.46013 16.5529 3.31829C16.4952 3.29728 16.4356 3.28852 16.3761 3.29203ZM13 7.17241C12.5044 7.17241 12.1034 7.57341 12.1034 8.06897C12.1034 8.56452 12.5044 8.96552 13 8.96552C13.4956 8.96552 13.8966 8.56452 13.8966 8.06897C13.8966 7.57341 13.4956 7.17241 13 7.17241ZM12.121 9.86207C11.9056 9.86207 11.6902 10.0407 11.6902 10.3103C11.6902 10.58 11.8513 10.7586 12.121 10.7586H12.5517V17.0345H11.6727C11.4573 17.0345 11.2419 17.2131 11.2419 17.4828C11.2419 17.7524 11.403 17.931 11.6727 17.931H14.3448C14.6145 17.931 14.7756 17.7524 14.7756 17.4828C14.7756 17.2131 14.6145 17.0345 14.3448 17.0345H13.4483V10.7586H13.8966C14.1662 10.7586 14.3273 10.58 14.3273 10.3103C14.3273 10.0407 14.1662 9.86207 13.8966 9.86207H12.121ZM4.93103 12.5517C4.68413 12.5517 4.48276 12.7531 4.48276 13V13.8966C4.48276 14.1435 4.68413 14.3448 4.93103 14.3448C5.17794 14.3448 5.37931 14.1435 5.37931 13.8966V13C5.37931 12.7531 5.17794 12.5517 4.93103 12.5517ZM7.17241 12.5517C6.92551 12.5517 6.72414 12.7531 6.72414 13V13.8966C6.72414 14.1435 6.92551 14.3448 7.17241 14.3448C7.41932 14.3448 7.62069 14.1435 7.62069 13.8966V13C7.62069 12.7531 7.41932 12.5517 7.17241 12.5517ZM9.41379 12.5517C9.16689 12.5517 8.96552 12.7531 8.96552 13V13.8966C8.96552 14.1435 9.16689 14.3448 9.41379 14.3448C9.6607 14.3448 9.86207 14.1435 9.86207 13.8966V13C9.86207 12.7531 9.6607 12.5517 9.41379 12.5517ZM16.5862 12.5517C16.3393 12.5517 16.1379 12.7531 16.1379 13V13.8966C16.1379 14.1435 16.3393 14.3448 16.5862 14.3448C16.8331 14.3448 17.0345 14.1435 17.0345 13.8966V13C17.0345 12.7531 16.8331 12.5517 16.5862 12.5517ZM18.8276 12.5517C18.5807 12.5517 18.3793 12.7531 18.3793 13V13.8966C18.3793 14.1435 18.5807 14.3448 18.8276 14.3448C19.0745 14.3448 19.2759 14.1435 19.2759 13.8966V13C19.2759 12.7531 19.0745 12.5517 18.8276 12.5517ZM21.069 12.5517C20.8221 12.5517 20.6207 12.7531 20.6207 13V13.8966C20.6207 14.1435 20.8221 14.3448 21.069 14.3448C21.3159 14.3448 21.5172 14.1435 21.5172 13.8966V13C21.5172 12.7531 21.3159 12.5517 21.069 12.5517Z" fill="white"/>
</svg>
