<svg width="56" height="69" viewBox="0 0 56 69" fill="none" xmlns="http://www.w3.org/2000/svg">
<path d="M49 2V1H48H8H7V2V66.6525V67.6525H8H48H49V66.6525V2Z" fill="#31353D" stroke="white" stroke-width="2"/>
<path d="M18.29 23.5133L12.2902 29.5742L13.7044 31.0028L19.7042 24.9419L18.29 23.5133Z" fill="white"/>
<path d="M13.7044 23.5089L12.2902 24.9375L18.29 30.9985L19.7042 29.5699L13.7044 23.5089Z" fill="white"/>
<path d="M30.2904 23.5132L24.2905 29.5742L25.7048 31.0029L31.7046 24.9419L30.2904 23.5132Z" fill="#E6B260"/>
<path d="M25.7047 23.5088L24.2905 24.9375L30.2904 30.9986L31.7046 29.5699L25.7047 23.5088Z" fill="#E6B260"/>
<path d="M42.2906 23.5133L36.2908 29.5742L37.705 31.0028L43.7048 24.9419L42.2906 23.5133Z" fill="white"/>
<path d="M37.705 23.5088L36.2908 24.9375L42.2906 30.9986L43.7048 29.5699L37.705 23.5088Z" fill="white"/>
<path d="M20 42.4075H0V12.1016H18V14.122H2V40.3871H20V42.4075Z" fill="white"/>
<path d="M15.295 17.8652L13.88 16.4409L17.17 13.1123L13.88 9.78374L15.295 8.35938L20 13.1123L15.295 17.8652Z" fill="white"/>
<path d="M40.705 17.8652L36 13.1123L40.705 8.35938L42.12 9.78374L38.83 13.1123L42.12 16.4409L40.705 17.8652Z" fill="#E6B260"/>
<path d="M56 56.55H36V54.5297H54V14.1219H38V12.1016H56V56.55Z" fill="#E6B260"/>
<path d="M40 45.4369C39.2089 45.4369 38.4355 45.1999 37.7777 44.7559C37.1199 44.3119 36.6072 43.6808 36.3045 42.9425C36.0017 42.2041 35.9225 41.3917 36.0769 40.6079C36.2312 39.8241 36.6122 39.1041 37.1716 38.539C37.731 37.9739 38.4437 37.589 39.2196 37.4331C39.9956 37.2772 40.7998 37.3572 41.5307 37.6631C42.2616 37.9689 42.8863 38.4868 43.3259 39.1513C43.7654 39.8158 44 40.597 44 41.3962C44 42.4678 43.5786 43.4956 42.8284 44.2534C42.0783 45.0112 41.0609 45.4369 40 45.4369ZM40 39.3758C39.6044 39.3758 39.2177 39.4943 38.8889 39.7163C38.56 39.9383 38.3036 40.2539 38.1522 40.623C38.0009 40.9922 37.9612 41.3984 38.0384 41.7903C38.1156 42.1822 38.3061 42.5422 38.5858 42.8248C38.8655 43.1073 39.2219 43.2998 39.6098 43.3777C39.9978 43.4557 40.3999 43.4157 40.7654 43.2627C41.1308 43.1098 41.4432 42.8509 41.6629 42.5186C41.8827 42.1864 42 41.7958 42 41.3962C42 40.8603 41.7893 40.3465 41.4142 39.9676C41.0391 39.5887 40.5304 39.3758 40 39.3758Z" fill="white"/>
<path d="M28 45.4369C27.2089 45.4369 26.4355 45.1999 25.7777 44.7559C25.1199 44.3119 24.6072 43.6808 24.3045 42.9425C24.0017 42.2041 23.9225 41.3917 24.0769 40.6079C24.2312 39.8241 24.6122 39.1041 25.1716 38.539C25.731 37.9739 26.4437 37.589 27.2196 37.4331C27.9956 37.2772 28.7998 37.3572 29.5307 37.6631C30.2616 37.9689 30.8863 38.4868 31.3259 39.1513C31.7654 39.8158 32 40.597 32 41.3962C32 42.4678 31.5786 43.4956 30.8284 44.2534C30.0783 45.0112 29.0609 45.4369 28 45.4369ZM28 39.3758C27.6044 39.3758 27.2177 39.4943 26.8889 39.7163C26.56 39.9383 26.3036 40.2539 26.1522 40.623C26.0009 40.9922 25.9612 41.3984 26.0384 41.7903C26.1156 42.1822 26.3061 42.5422 26.5858 42.8248C26.8655 43.1073 27.2219 43.2998 27.6098 43.3777C27.9978 43.4557 28.3999 43.4157 28.7654 43.2627C29.1308 43.1098 29.4432 42.8509 29.6629 42.5186C29.8827 42.1864 30 41.7958 30 41.3962C30 40.8603 29.7893 40.3465 29.4142 39.9676C29.0391 39.5887 28.5304 39.3758 28 39.3758Z" fill="#E6B260"/>
<path d="M28 17.152C27.2089 17.152 26.4355 16.915 25.7777 16.471C25.1199 16.027 24.6072 15.3959 24.3045 14.6575C24.0017 13.9191 23.9225 13.1067 24.0769 12.3228C24.2312 11.539 24.6122 10.819 25.1716 10.2538C25.731 9.68873 26.4437 9.30387 27.2196 9.14796C27.9956 8.99204 28.7998 9.07206 29.5307 9.3779C30.2616 9.68375 30.8863 10.2017 31.3259 10.8662C31.7654 11.5307 32 12.3119 32 13.1111C32 14.1828 31.5786 15.2106 30.8284 15.9684C30.0783 16.7262 29.0609 17.152 28 17.152ZM28 11.0907C27.6044 11.0907 27.2177 11.2092 26.8889 11.4312C26.56 11.6532 26.3036 11.9688 26.1522 12.338C26.0009 12.7072 25.9612 13.1134 26.0384 13.5053C26.1156 13.8972 26.3061 14.2572 26.5858 14.5398C26.8655 14.8224 27.2219 15.0148 27.6098 15.0927C27.9978 15.1707 28.3999 15.1307 28.7654 14.9778C29.1308 14.8248 29.4432 14.5659 29.6629 14.2336C29.8827 13.9014 30 13.5107 30 13.1111C30 12.5753 29.7893 12.0614 29.4142 11.6825C29.0391 11.3036 28.5304 11.0907 28 11.0907Z" fill="white"/>
<path d="M28 59.5817C27.2089 59.5817 26.4355 59.3447 25.7777 58.9007C25.1199 58.4567 24.6072 57.8256 24.3045 57.0872C24.0017 56.3488 23.9225 55.5363 24.0769 54.7525C24.2312 53.9687 24.6122 53.2487 25.1716 52.6835C25.731 52.1184 26.4437 51.7336 27.2196 51.5776C27.9956 51.4217 28.7998 51.5018 29.5307 51.8076C30.2616 52.1134 30.8863 52.6314 31.3259 53.2959C31.7654 53.9604 32 54.7416 32 55.5408C32 56.6125 31.5786 57.6403 30.8284 58.3981C30.0783 59.1559 29.0609 59.5817 28 59.5817ZM28 53.5204C27.6044 53.5204 27.2177 53.6389 26.8889 53.8609C26.56 54.0829 26.3036 54.3985 26.1522 54.7677C26.0009 55.1368 25.9612 55.5431 26.0384 55.935C26.1156 56.3269 26.3061 56.6869 26.5858 56.9695C26.8655 57.252 27.2219 57.4445 27.6098 57.5224C27.9978 57.6004 28.3999 57.5604 28.7654 57.4075C29.1308 57.2545 29.4432 56.9956 29.6629 56.6633C29.8827 56.3311 30 55.9404 30 55.5408C30 55.005 29.7893 54.4911 29.4142 54.1122C29.0391 53.7333 28.5304 53.5204 28 53.5204Z" fill="white"/>
<path d="M18 60.5898H16V62.6104H18V60.5898Z" fill="white"/>
<path d="M14 60.5898H12V62.6104H14V60.5898Z" fill="white"/>
</svg>
