<svg width="1477" height="1575" viewBox="0 0 1477 1575" fill="none" xmlns="http://www.w3.org/2000/svg">
<path d="M1200.04 523.891C1242.85 685.043 1220.85 856.554 1138.74 1001.68L836.624 962.236C901.834 902.816 943.79 822.143 954.994 734.635C966.198 647.128 945.92 558.487 897.785 484.554L1200.04 523.891Z" fill="#E6B260"/>
<path d="M197.449 183.112C270.479 127.187 354.753 87.7401 444.479 67.4833C534.204 47.2266 627.252 46.6405 717.225 65.7654C807.199 84.8904 891.963 123.273 965.692 178.274C1039.42 233.275 1100.36 303.589 1144.33 384.384L634.046 318.389C561.135 308.891 487.045 321.266 421.179 353.944C355.312 386.621 300.636 438.128 264.09 501.929C227.543 565.731 210.773 638.95 215.906 712.298C221.04 785.646 247.846 855.816 292.923 913.904C322.617 952.709 359.682 985.268 401.992 1009.71C444.301 1034.16 491.021 1050.01 539.47 1056.35L1049.76 1122.34C989.414 1185.47 916.719 1235.49 836.201 1269.29C755.683 1303.09 669.066 1319.95 581.748 1318.82C494.43 1317.68 408.28 1298.58 328.668 1262.7C249.055 1226.81 177.685 1174.92 119.003 1110.25C60.3215 1045.58 15.5863 969.516 -12.4155 886.801C-40.4174 804.087 -51.0858 716.492 -43.7562 629.475C-36.4267 542.457 -11.2559 457.881 30.1874 381.016C71.6308 304.151 128.459 236.644 197.131 182.701" fill="#E6B260"/>
<path d="M210.867 522.577L848.144 605.738L858.138 528.466L220.723 445.411L210.867 522.577Z" fill="#E6B260"/>
<path d="M206.813 752.559L196.957 829.725L803.618 908.926L813.474 831.76" fill="#E6B260"/>
</svg>
