<svg width="20" height="18" viewBox="0 0 20 18" fill="none" xmlns="http://www.w3.org/2000/svg">
<path d="M2.16933 0.128906C1.05245 0.128906 0.136719 1.04464 0.136719 2.16151V11.647C0.136719 12.7639 1.05245 13.6796 2.16933 13.6796H6.60507C6.64742 13.7379 6.68447 13.8067 6.73211 13.8543L4.20194 16.3898H5.55701V17.7448L8.55299 14.6218L8.74884 14.77L8.7753 14.7859C9.29404 15.1088 9.96099 15.13 10.4691 14.7647L10.6544 14.6324L13.6874 17.7448V16.3898H15.0425L12.507 13.8543C12.5653 13.8067 12.6023 13.7379 12.65 13.6796H17.0751C18.192 13.6796 19.1077 12.7639 19.1077 11.647V2.16151C19.1077 1.04464 18.192 0.128906 17.0751 0.128906H2.16933ZM2.16933 1.48398H17.0751C17.4562 1.48398 17.7527 1.7804 17.7527 2.16151V11.647C17.7527 12.0281 17.4562 12.3246 17.0751 12.3246H13.0523L13.4281 11.7952L13.4387 11.7794C13.7615 11.2606 13.7827 10.599 13.4175 10.0855V10.0802L13.0152 9.52972L12.8987 8.89453C12.8246 8.24346 12.3059 7.72472 11.6601 7.65591L11.0091 7.56592L10.4691 7.17423C9.9557 6.80899 9.28346 6.8037 8.7753 7.17423V7.17952L8.2301 7.57122L7.53668 7.6612L7.51022 7.6665C6.91737 7.79883 6.45157 8.26993 6.31924 8.86277L6.30865 8.88924L6.22396 9.57207L5.82167 10.0908L5.8005 10.1226C5.4829 10.6413 5.46173 11.303 5.82696 11.8164L6.1922 12.3246H2.16933C1.78821 12.3246 1.49179 12.0281 1.49179 11.647V2.16151C1.49179 1.7804 1.78821 1.48398 2.16933 1.48398ZM4.20194 4.19412V5.5492H15.0425V4.19412H4.20194ZM9.564 8.27522C9.58517 8.25934 9.66457 8.26463 9.68045 8.27522L10.4956 8.86277L11.5013 9.0004H11.5066C11.5384 9.00569 11.549 9.01098 11.549 9.04274L11.5543 9.06392L11.7395 10.0696L12.3112 10.8742C12.3271 10.8901 12.343 10.9748 12.29 11.0595L11.7289 11.8376L11.5913 12.8486V12.8539C11.586 12.8856 11.5807 12.8962 11.549 12.8962L11.5278 12.9015L10.4903 13.0815L9.68574 13.6585C9.66457 13.6743 9.58517 13.6849 9.49519 13.6373L8.76472 13.0762L7.74312 12.9386H7.73783C7.70607 12.9333 7.69548 12.928 7.69548 12.8962L7.69019 12.8751L7.51022 11.8323L6.93325 11.033C6.91737 11.0118 6.90679 10.9324 6.95443 10.8424L7.51551 10.1067L7.64255 9.1539C7.66372 9.0745 7.72195 9.01098 7.80135 8.98981L8.74884 8.86277L9.564 8.27522Z" fill="#31353D"/>
</svg>
