<svg width="26" height="26" viewBox="0 0 26 26" fill="none" xmlns="http://www.w3.org/2000/svg">
<path d="M12.8897 0.000454636C11.6202 0.0109621 10.3506 0.205355 9.14238 0.581881C6.35116 1.44526 3.9049 3.25784 2.25189 5.68512C0.8125 7.79717 0.0367725 10.2665 0.00700431 12.7936C0 12.8636 0 12.9284 0 12.9985C0 15.9091 0.94208 18.6604 2.72468 20.9563C4.2989 22.9913 6.40719 24.4956 8.82018 25.3065C8.82193 25.3082 8.82368 25.3082 8.82543 25.31L8.82893 25.3117C10.1615 25.7671 11.5659 26 13 26C14.4989 26 15.9733 25.7443 17.3812 25.2417C17.3829 25.2417 17.3847 25.2417 17.3847 25.2417C17.3882 25.2399 17.39 25.2399 17.3917 25.2382C19.7959 24.3783 21.8797 22.8354 23.4172 20.7759C25.107 18.5168 26 15.8268 26 12.9985C26 12.8584 26 12.7183 25.9912 12.5939C25.9142 10.0371 25.0912 7.58351 23.6133 5.49948C21.9182 3.09672 19.4387 1.32793 16.6352 0.517083C15.427 0.161573 14.1592 -0.0100533 12.8897 0.000454636ZM13 0.893609C13.8423 0.893609 14.674 0.981173 15.4865 1.1528L13.2434 2.83753C13.0893 2.95312 12.8774 2.95662 12.7198 2.84804L10.3261 1.19308C11.1999 0.995183 12.0964 0.893609 13 0.893609ZM16.5915 1.44701C19.0482 2.20707 21.2213 3.75871 22.7518 5.84974L21.7081 9.33654C21.6696 9.46439 21.6538 9.59573 21.6538 9.72533L18.4336 11.1369L13.443 7.39437V3.73594C13.5621 3.69216 13.6759 3.63262 13.781 3.55556L16.5915 1.44701ZM9.20892 1.51006L12.2085 3.58533C12.3153 3.65888 12.4291 3.71317 12.5517 3.7517V7.38386L7.13039 11.1351L4.32866 9.73408C4.32516 9.60099 4.3024 9.46789 4.25862 9.33654L3.12392 6.01436C4.61759 3.90231 6.76266 2.3139 9.20892 1.51006ZM15.9068 5.46796C15.793 5.48372 15.6844 5.54326 15.6109 5.64309L15.0698 6.35761C14.9209 6.55551 14.9612 6.83746 15.1573 6.98632C15.2396 7.04762 15.3342 7.07564 15.4287 7.07564C15.5636 7.07564 15.6984 7.01434 15.7877 6.89701L16.327 6.18248C16.4741 5.98459 16.4356 5.70263 16.2377 5.55377C16.1379 5.47847 16.0189 5.45045 15.9068 5.46796ZM10.1685 5.51524C10.0547 5.49598 9.93561 5.5205 9.83405 5.5923C9.63268 5.73415 9.58365 6.01436 9.72724 6.21576L10.2456 6.94779C10.3314 7.07213 10.4714 7.13693 10.6115 7.13693C10.7008 7.13693 10.7901 7.11066 10.8707 7.05462C11.0721 6.91102 11.1193 6.63256 10.9758 6.42941L10.4592 5.69913C10.3874 5.59755 10.2823 5.53451 10.1685 5.51524ZM8.34038 6.81119C8.22656 6.79018 8.10574 6.8147 8.00593 6.88475C7.8028 7.02835 7.75377 7.30856 7.89736 7.51171L8.41568 8.24374C8.50323 8.36633 8.64157 8.43288 8.78165 8.43288C8.87096 8.43288 8.96202 8.40661 9.04081 8.35057C9.24219 8.20697 9.29122 7.92676 9.14763 7.72536L8.62931 6.99333C8.55927 6.89175 8.45245 6.83046 8.34038 6.81119ZM23.3997 6.81294C24.2892 8.30329 24.8443 9.9635 25.0299 11.7008L22.7377 10.0896C22.5801 9.97926 22.5119 9.77962 22.5679 9.59398L23.3997 6.81294ZM17.6946 6.8147C17.5826 6.83221 17.474 6.89175 17.3987 6.98982L16.8594 7.70785C16.7123 7.90399 16.7508 8.18595 16.9487 8.33481C17.0292 8.3961 17.1238 8.42412 17.2166 8.42412C17.3532 8.42412 17.488 8.36283 17.5756 8.24724L18.1149 7.52922C18.2637 7.33308 18.2252 7.05112 18.0291 6.90226C17.9293 6.82695 17.8085 6.79893 17.6946 6.8147ZM2.50404 6.97406L3.4111 9.62726C3.47239 9.80939 3.4111 10.0108 3.257 10.1281L0.952586 11.8847C1.10843 10.1526 1.63551 8.48192 2.50404 6.97406ZM6.50876 8.10539C6.39669 8.08613 6.27586 8.11065 6.17605 8.1807C5.97293 8.3243 5.9239 8.60451 6.06748 8.8059L6.5858 9.53794C6.67336 9.66053 6.81169 9.72708 6.95178 9.72708C7.04108 9.72708 7.13214 9.70081 7.21094 9.64477C7.41231 9.50116 7.46134 9.22271 7.31775 9.01956L6.80119 8.28928C6.72939 8.1877 6.62258 8.12465 6.50876 8.10539ZM19.486 8.16494C19.3722 8.18245 19.2654 8.24024 19.1901 8.34006L18.6507 9.05459C18.5019 9.25248 18.5404 9.53444 18.7383 9.68505C18.8188 9.74459 18.9134 9.77436 19.0079 9.77436C19.1445 9.77436 19.2776 9.71307 19.3669 9.59573L19.9062 8.87946C20.0551 8.68156 20.0148 8.40136 19.8169 8.25075C19.7189 8.17719 19.5981 8.14917 19.486 8.16494ZM12.9842 8.17194L17.8627 11.8304L16.2412 17.9301H9.73599L7.69949 11.8304L12.9842 8.17194ZM21.9585 10.5712C22.0338 10.664 22.1214 10.7516 22.2247 10.8216L25.1017 12.8444C25.1017 12.8951 25.1034 12.9477 25.1034 12.9985C25.1034 15.6044 24.2874 18.0825 22.7465 20.1717H19.0657C18.9204 20.1717 18.7803 20.1962 18.649 20.24L17.0783 18.2751L18.7523 11.9775L21.9585 10.5712ZM4.04499 10.5957L6.80119 11.9722L8.90948 18.2856L7.35628 20.233C7.23195 20.1945 7.09887 20.1717 6.96228 20.1717H3.26401C1.73006 18.0947 0.91056 15.6429 0.900054 13.0528L3.80159 10.8409C3.8944 10.7708 3.97495 10.685 4.04499 10.5957ZM20.2862 12.9634C20.1146 12.9862 19.964 13.1123 19.9168 13.2909C19.852 13.5291 19.9938 13.776 20.2337 13.8391L21.0987 14.072C21.139 14.0825 21.1775 14.0878 21.2161 14.0878C21.4122 14.0878 21.596 13.9547 21.6486 13.755C21.7134 13.5169 21.5715 13.2699 21.3316 13.2069L20.4666 12.974C20.4053 12.9582 20.344 12.9547 20.2862 12.9634ZM5.23047 12.9687C5.17093 12.9617 5.1114 12.967 5.05186 12.9845L4.19558 13.2472C3.95744 13.319 3.82435 13.5694 3.89615 13.8058C3.95568 14.0002 4.13254 14.1245 4.32516 14.1245C4.36894 14.1245 4.41272 14.1175 4.45649 14.1053L5.31452 13.8426C5.55092 13.7708 5.684 13.5204 5.6122 13.2839C5.55792 13.1053 5.40383 12.9862 5.23047 12.9687ZM5.88362 15.1123C5.82584 15.1053 5.7663 15.1105 5.70676 15.128L4.84873 15.3907C4.61234 15.4625 4.47926 15.7147 4.55105 15.9511C4.61059 16.1438 4.78745 16.2681 4.98006 16.2681C5.02384 16.2681 5.06762 16.2611 5.1114 16.2489L5.96767 15.9862C6.20582 15.9144 6.3389 15.6622 6.26711 15.4258C6.21282 15.2489 6.05698 15.1298 5.88362 15.1123ZM19.7084 15.128C19.535 15.1526 19.3844 15.2769 19.3372 15.4573C19.2724 15.6955 19.4142 15.9406 19.6541 16.0054L20.5191 16.2366C20.5577 16.2471 20.5979 16.2541 20.6347 16.2541C20.8326 16.2541 21.0147 16.121 21.069 15.9196C21.132 15.6814 20.9919 15.4363 20.752 15.3715L19.8852 15.1403C19.8257 15.1228 19.7644 15.1193 19.7084 15.128ZM6.54027 17.2558C6.48249 17.2488 6.4212 17.2541 6.36166 17.2716L5.50539 17.5343C5.26724 17.6061 5.13416 17.8565 5.20595 18.093C5.26549 18.2873 5.4441 18.4117 5.63672 18.4117C5.67874 18.4117 5.72252 18.4047 5.7663 18.3924L6.62433 18.1297C6.86072 18.0579 6.9938 17.8075 6.92201 17.5711C6.86773 17.3924 6.71363 17.2734 6.54027 17.2558ZM19.127 17.2926C18.9537 17.3171 18.8048 17.4432 18.7575 17.6219C18.6928 17.8618 18.8346 18.107 19.0727 18.17L19.9395 18.4029C19.978 18.4134 20.0166 18.4187 20.0551 18.4187C20.253 18.4187 20.4351 18.2856 20.4876 18.086C20.5524 17.846 20.4106 17.6008 20.1724 17.5378L19.3056 17.3049C19.2461 17.2891 19.1848 17.2856 19.127 17.2926ZM9.62392 18.8267H16.3708L17.938 20.7864C17.8645 20.902 17.805 21.0281 17.7682 21.1647L16.8734 24.4606C14.4306 25.2837 11.7427 25.303 9.32274 24.5219L8.24582 21.1122C8.20555 20.9861 8.14776 20.8722 8.07772 20.7672L9.62392 18.8267ZM10.7639 20.1717C10.517 20.1717 10.3156 20.3731 10.3156 20.6201V21.5167C10.3156 21.7636 10.517 21.965 10.7639 21.965C11.0108 21.965 11.2121 21.7636 11.2121 21.5167V20.6201C11.2121 20.3731 11.0108 20.1717 10.7639 20.1717ZM13.0053 20.1717C12.7584 20.1717 12.557 20.3731 12.557 20.6201V21.5167C12.557 21.7636 12.7584 21.965 13.0053 21.965C13.2522 21.965 13.4535 21.7636 13.4535 21.5167V20.6201C13.4535 20.3731 13.2522 20.1717 13.0053 20.1717ZM15.2466 20.1717C14.9997 20.1717 14.7984 20.3731 14.7984 20.6201V21.5167C14.7984 21.7636 14.9997 21.965 15.2466 21.965C15.4935 21.965 15.6949 21.7636 15.6949 21.5167V20.6201C15.6949 20.3731 15.4935 20.1717 15.2466 20.1717ZM3.98545 21.0684H6.96228C7.16016 21.0684 7.33176 21.1945 7.3913 21.3819L8.25983 24.1366C6.62783 23.4449 5.17268 22.4011 3.98545 21.0684ZM19.0657 21.0684H22.0145C20.8693 22.3503 19.4755 23.3731 17.9083 24.0666L18.6315 21.3994C18.6857 21.205 18.8626 21.0684 19.0657 21.0684Z" fill="white"/>
</svg>
