<svg width="31" height="31" viewBox="0 0 31 31" fill="none" xmlns="http://www.w3.org/2000/svg">
<path d="M15.5 0C6.93972 0 0 6.93972 0 15.5C0 24.0603 6.93972 31 15.5 31C24.0603 31 31 24.0603 31 15.5C31 6.93972 24.0603 0 15.5 0ZM15.5 1.06897C23.4702 1.06897 29.931 7.52979 29.931 15.5C29.931 23.4702 23.4702 29.931 15.5 29.931C7.52979 29.931 1.06897 23.4702 1.06897 15.5C1.06897 7.52979 7.52979 1.06897 15.5 1.06897ZM15.5856 3.19019C9.61655 3.13302 4.33707 7.4393 3.34991 13.5124C2.71388 17.4232 4.0018 21.4004 6.80944 24.1958C7.03338 24.3877 7.37126 24.3613 7.56314 24.1373C7.73471 23.9374 7.73471 23.642 7.56314 23.4421C3.17824 19.0604 3.17572 11.9543 7.55688 7.5694L7.56314 7.56314C10.1148 5.02114 13.7281 3.8523 17.2851 4.41992C17.5801 4.46696 17.8581 4.26607 17.9052 3.97104C17.9522 3.67601 17.7513 3.39799 17.4563 3.35096C16.828 3.24879 16.2031 3.19611 15.5856 3.19019ZM19.5911 3.96582C19.3838 3.98641 19.1992 4.12789 19.1339 4.33954C19.0532 4.59876 19.1802 4.8772 19.4282 4.98677V4.98155C19.8109 5.12479 20.1854 5.28937 20.5504 5.47323C20.6247 5.51118 20.7077 5.53115 20.7916 5.53169C21.0866 5.53008 21.3245 5.28911 21.3229 4.99407C21.3219 4.79471 21.2091 4.61309 21.0317 4.52223C20.6319 4.32179 20.2226 4.14328 19.803 3.98774C19.7326 3.96583 19.6602 3.95896 19.5911 3.96582ZM22.6884 5.67575C22.5517 5.68203 22.4182 5.74105 22.3188 5.85008C22.12 6.06815 22.1352 6.406 22.3533 6.60483C22.3731 6.623 22.394 6.63893 22.4159 6.65389C22.774 6.9361 23.1151 7.24031 23.4369 7.56314C27.8202 11.9464 27.8207 19.0525 23.4379 23.4358L23.4369 23.4369C23.2129 23.6287 23.1865 23.9666 23.3784 24.1906C23.5703 24.4145 23.9082 24.4409 24.1321 24.249C24.153 24.2309 24.1729 24.2114 24.1906 24.1906C28.9892 19.3904 28.9886 11.6096 24.1906 6.80944C23.8383 6.45561 23.4659 6.12403 23.0736 5.81563C22.9645 5.71622 22.8251 5.66947 22.6884 5.67575ZM14.6993 8.28344C14.4043 8.28344 14.1648 8.52289 14.1648 8.81792V17.092L9.70629 13.2274C9.48448 13.0323 9.14714 13.0547 8.95259 13.2765C8.86707 13.3737 8.82054 13.4984 8.82001 13.6283V16.8352C8.82001 16.9939 8.88969 17.146 9.01209 17.2475L15.4259 22.5923C15.6242 22.7575 15.9114 22.7575 16.1096 22.5923L22.5234 17.2475C22.6458 17.146 22.7166 16.9939 22.7166 16.8352V13.6283C22.7192 13.3332 22.4813 13.0923 22.1863 13.0896C22.0548 13.0885 21.9281 13.1351 21.8292 13.2222L17.3717 17.092V8.81792C17.3717 8.52289 17.1323 8.28344 16.8373 8.28344H14.6993ZM15.2338 9.3524H16.3028V18.2632C16.3001 18.5583 16.537 18.7992 16.832 18.8019C16.9635 18.803 17.0902 18.7564 17.189 18.6693L21.6476 14.7995V16.5846L15.7683 21.4858L9.88898 16.5846V14.7995L14.3465 18.6641C14.5683 18.8592 14.9056 18.8368 15.1002 18.615C15.1857 18.5178 15.2333 18.3931 15.2338 18.2632V9.3524ZM10.3546 24.2616C10.1478 24.2356 9.93634 24.333 9.8253 24.5246L9.82425 24.5277L9.28977 25.4516C9.15294 25.713 9.25336 26.0372 9.51525 26.174C9.76112 26.3028 10.065 26.2207 10.2136 25.9861L10.7481 25.0622C10.8972 24.8078 10.8125 24.4796 10.5581 24.3305C10.5576 24.3299 10.5566 24.3299 10.556 24.3294C10.4922 24.2924 10.4235 24.2702 10.3546 24.2616ZM20.6371 24.2866C20.5686 24.2981 20.501 24.3231 20.4387 24.3628C20.2041 24.5119 20.1236 24.8164 20.2519 25.0622L20.7864 25.9861C20.9232 26.2475 21.2458 26.3494 21.5077 26.2126C21.7696 26.0758 21.87 25.7532 21.7332 25.4913C21.7262 25.4779 21.7193 25.4644 21.7113 25.4516L21.1757 24.5277C21.0571 24.3409 20.8425 24.2521 20.6371 24.2866ZM12.7284 25.3065C12.5227 25.3361 12.3448 25.4847 12.2879 25.698L12.0102 26.7241C11.9236 27.0063 12.0819 27.3046 12.3641 27.3912C12.6463 27.4778 12.9456 27.3195 13.0322 27.0373C13.0359 27.0256 13.0389 27.0136 13.0416 27.0018L13.3193 25.9704C13.3941 25.6856 13.2247 25.3939 12.9403 25.318C12.8691 25.2993 12.797 25.2967 12.7284 25.3065ZM18.2507 25.3232C18.1817 25.3161 18.1104 25.3224 18.0398 25.3441C17.771 25.4264 17.6119 25.702 17.6755 25.9757L17.9532 27.007C18.0312 27.2935 18.3265 27.4619 18.6129 27.3839C18.8994 27.3059 19.0678 27.0106 18.9898 26.7241L18.7069 25.698C18.642 25.4863 18.4579 25.3446 18.2507 25.3232ZM15.5 25.6552C15.205 25.6552 14.9655 25.8946 14.9655 26.1897V27.2586C14.9655 27.5537 15.205 27.7931 15.5 27.7931C15.795 27.7931 16.0345 27.5537 16.0345 27.2586V26.1897C16.0345 25.8946 15.795 25.6552 15.5 25.6552Z" fill="white"/>
</svg>
