<svg width="132" height="146" viewBox="0 0 132 146" fill="none" xmlns="http://www.w3.org/2000/svg">
<g filter="url(#filter0_d_306_18429)">
<path d="M92 45.9259C92 57.745 74.2847 78.0383 68.1001 84.7628C66.9557 86.007 65.0443 86.007 63.8999 84.7628C57.7153 78.0383 40 57.745 40 45.9259C40 31.6074 51.6406 20 66 20C80.3594 20 92 31.6074 92 45.9259Z" fill="#0e3556"/>
<path d="M91 45.9259C91 48.6591 89.9671 51.9828 88.2334 55.6028C86.5087 59.2041 84.1346 63.009 81.5515 66.6793C76.3859 74.0189 70.4442 80.7368 67.364 84.0858C66.6158 84.8993 65.3842 84.8993 64.636 84.0858C61.5558 80.7368 55.6141 74.0189 50.4485 66.6793C47.8654 63.009 45.4913 59.2041 43.7666 55.6028C42.0329 51.9828 41 48.6591 41 45.9259C41 32.1624 52.1902 21 66 21C79.8098 21 91 32.1624 91 45.9259Z" stroke="white" stroke-width="2"/>
</g>
<ellipse cx="66" cy="45.5" rx="14" ry="14.5" fill="white"/>
<path d="M63.3878 34L60 52.4647L74 40.8465L66.0408 41.8423L63.3878 34Z" fill="#E7B75F"/>
<path d="M68.2449 47.195L65.3469 49.6846L71.3469 54L68.2449 47.195Z" fill="#E7B75F"/>
<defs>
<filter id="filter0_d_306_18429" x="0" y="0" width="132" height="145.695" filterUnits="userSpaceOnUse" color-interpolation-filters="sRGB">
<feFlood flood-opacity="0" result="BackgroundImageFix"/>
<feColorMatrix in="SourceAlpha" type="matrix" values="0 0 0 0 0 0 0 0 0 0 0 0 0 0 0 0 0 0 127 0" result="hardAlpha"/>
<feOffset dy="20"/>
<feGaussianBlur stdDeviation="20"/>
<feComposite in2="hardAlpha" operator="out"/>
<feColorMatrix type="matrix" values="0 0 0 0 0.0583333 0 0 0 0 0.0583333 0 0 0 0 0.0583333 0 0 0 0.23 0"/>
<feBlend mode="normal" in2="BackgroundImageFix" result="effect1_dropShadow_306_18429"/>
<feBlend mode="normal" in="SourceGraphic" in2="effect1_dropShadow_306_18429" result="shape"/>
</filter>
</defs>
</svg>
