<svg width="980" height="800" viewBox="0 0 980 800" fill="none" xmlns="http://www.w3.org/2000/svg">
<path d="M814.127 0L686.068 686.758L1215.27 254.641L914.414 291.679L814.127 0Z" fill="#d5b26e"/>
<path d="M997.729 490.762L888.185 583.359L1114.99 743.86L997.729 490.762Z" fill="#d5b26e"/>
<path d="M737.141 263.302L720.113 279.424H358.94C283.659 279.424 159.981 387.801 172.528 504.24C182.566 597.391 260.357 630.829 297.998 635.905H504.126L521.154 537.38H339.224L326.677 522.154L352.667 392.28L369.695 377.053L699.5 372.575L712.943 392.28L642.143 784.588L626.011 798.023C550.132 799.516 373.638 801.606 274.696 798.023C175.755 794.44 102.026 739.207 77.5298 712.038C-52.4206 566.938 0.237399 334.061 94.8966 249.867C216.781 141.457 288.478 116.411 398.373 116.41H748.791L759.546 131.637L737.141 263.302Z" fill="#0e3556"/>
</svg>
