<svg width="1472" height="969" viewBox="0 0 1472 969" fill="none" xmlns="http://www.w3.org/2000/svg">
<g opacity="0.2">
<path d="M986.111 0L831 831.836L1472 308.434L1107.58 353.297L986.111 0Z" fill="#d5b26e"/>
<path d="M1208.5 594.436L1075.81 706.593L1350.53 901L1208.5 594.436Z" fill="#d5b26e"/>
<path d="M892.862 318.923L872.236 338.451H434.766C343.581 338.451 193.778 469.723 208.975 610.759C221.133 723.588 315.357 764.09 360.95 770.238H610.623L631.248 650.9H410.885L395.687 632.457L427.168 475.147L447.793 456.704L847.269 451.28L863.552 475.147L777.795 950.331L758.256 966.604C666.347 968.412 452.569 970.943 332.726 966.604C212.883 962.264 123.58 895.363 93.908 862.454C-63.4945 686.701 0.28755 404.629 114.943 302.649C262.576 171.338 349.419 141.001 482.529 141H906.974L920 159.443L892.862 318.923Z" fill="#d5b26e"/>
</g>
</svg>
