<svg width="31" height="26" viewBox="0 0 31 26" fill="none" xmlns="http://www.w3.org/2000/svg">
<path d="M15.4986 0C15.4663 0 15.436 0.00203175 15.4037 0.00812754C15.3714 0.0162551 15.3391 0.0243826 15.3068 0.0365742C15.2766 0.050797 15.2483 0.0670521 15.218 0.0853394C15.2039 0.0954987 15.1837 0.0995623 15.1696 0.111754L8.78397 5.43326V3.66349C8.78397 3.37496 8.55389 3.14333 8.2673 3.14333C7.98072 3.14333 7.75064 3.37496 7.75064 3.66349V6.2643C7.75064 6.27243 7.75467 6.28056 7.75669 6.29072L6.71731 7.15427V1.58081C6.71731 1.29431 6.48723 1.06064 6.20065 1.06064C5.91406 1.06064 5.68398 1.29431 5.68398 1.58081V7.82479C5.68398 7.88168 5.70013 7.93654 5.71627 7.98937L0.18636 12.5957C-0.0336252 12.7785 -0.0618804 13.1057 0.117741 13.3271C0.22067 13.4511 0.370018 13.5161 0.517348 13.5161C0.634405 13.5161 0.751461 13.4775 0.848336 13.3962L2.584 11.9495V24.9597H1.03401C0.747425 24.9597 0.517348 25.1933 0.517348 25.4798C0.517348 25.7663 0.747425 26 1.03401 26H29.9672C30.2538 26 30.4838 25.7663 30.4838 25.4798C30.4838 25.1933 30.2538 24.9597 29.9672 24.9597H28.4172V11.9495L30.1528 13.3962C30.2497 13.4775 30.3668 13.5161 30.4838 13.5161C30.6312 13.5161 30.7785 13.4511 30.8814 13.3292C31.0631 13.1057 31.0328 12.7785 30.8128 12.5957L15.8296 0.111754C15.8154 0.0995623 15.7973 0.0954987 15.7811 0.0853394C15.7509 0.0650203 15.7226 0.0487652 15.6883 0.0365742C15.658 0.0243826 15.6298 0.0162551 15.5975 0.00812754C15.5652 0.00203175 15.5329 0 15.4986 0ZM15.5006 1.18662L27.3839 11.088V19.758H19.1172V15.5967C19.1172 15.0238 18.653 14.5564 18.0839 14.5564H12.9173C12.3481 14.5564 11.8839 15.0238 11.8839 15.5967V19.758H3.61733V11.088L15.5006 1.18662ZM15.5006 6.23382C14.0757 6.23382 12.9173 7.40013 12.9173 8.83464C12.9173 10.2691 14.0757 11.4354 15.5006 11.4354C16.9255 11.4354 18.0839 10.2691 18.0839 8.83464C18.0839 7.40013 16.9255 6.23382 15.5006 6.23382ZM15.5006 7.16646C16.4148 7.16646 17.1575 7.91419 17.1575 8.83464C17.1575 9.75508 16.4148 10.5028 15.5006 10.5028C14.5863 10.5028 13.8436 9.75508 13.8436 8.83464C13.8436 7.91419 14.5863 7.16646 15.5006 7.16646ZM12.9173 15.5967H18.0839V24.9333H12.9173V15.5967ZM16.5339 19.2379C16.2473 19.2379 16.0173 19.4716 16.0173 19.758V20.7984C16.0173 21.0849 16.2473 21.3185 16.5339 21.3185C16.8205 21.3185 17.0506 21.0849 17.0506 20.7984V19.758C17.0506 19.4716 16.8205 19.2379 16.5339 19.2379ZM3.61733 20.7984H11.8839V24.9597H3.61733V20.7984ZM19.1172 20.7984H27.3839V24.9597H19.1172V20.7984ZM5.16732 21.8387C4.88073 21.8387 4.65066 22.0724 4.65066 22.3589V23.3992C4.65066 23.6857 4.88073 23.9193 5.16732 23.9193C5.45391 23.9193 5.68398 23.6857 5.68398 23.3992V22.3589C5.68398 22.0724 5.45391 21.8387 5.16732 21.8387ZM7.75064 21.8387C7.46405 21.8387 7.23397 22.0724 7.23397 22.3589V23.3992C7.23397 23.6857 7.46405 23.9193 7.75064 23.9193C8.03722 23.9193 8.2673 23.6857 8.2673 23.3992V22.3589C8.2673 22.0724 8.03722 21.8387 7.75064 21.8387ZM10.334 21.8387C10.0474 21.8387 9.81729 22.0724 9.81729 22.3589V23.3992C9.81729 23.6857 10.0474 23.9193 10.334 23.9193C10.6205 23.9193 10.8506 23.6857 10.8506 23.3992V22.3589C10.8506 22.0724 10.6205 21.8387 10.334 21.8387ZM20.6672 21.8387C20.3806 21.8387 20.1506 22.0724 20.1506 22.3589V23.3992C20.1506 23.6857 20.3806 23.9193 20.6672 23.9193C20.9538 23.9193 21.1839 23.6857 21.1839 23.3992V22.3589C21.1839 22.0724 20.9538 21.8387 20.6672 21.8387ZM23.2505 21.8387C22.964 21.8387 22.7339 22.0724 22.7339 22.3589V23.3992C22.7339 23.6857 22.964 23.9193 23.2505 23.9193C23.5371 23.9193 23.7672 23.6857 23.7672 23.3992V22.3589C23.7672 22.0724 23.5371 21.8387 23.2505 21.8387ZM25.8339 21.8387C25.5473 21.8387 25.3172 22.0724 25.3172 22.3589V23.3992C25.3172 23.6857 25.5473 23.9193 25.8339 23.9193C26.1204 23.9193 26.3505 23.6857 26.3505 23.3992V22.3589C26.3505 22.0724 26.1204 21.8387 25.8339 21.8387Z" fill="white"/>
</svg>
