<svg width="19" height="19" viewBox="0 0 19 19" fill="none" xmlns="http://www.w3.org/2000/svg">
<path d="M2.5248 0.625C1.40792 0.625 0.492188 1.54073 0.492188 2.65761V16.2083C0.492188 17.3252 1.40792 18.2409 2.5248 18.2409H16.0755C17.1924 18.2409 18.1081 17.3252 18.1081 16.2083V2.65761C18.1081 1.54073 17.1924 0.625 16.0755 0.625H2.5248ZM2.5248 1.98007H16.0755C16.4566 1.98007 16.7531 2.27649 16.7531 2.65761V16.2083C16.7531 16.5894 16.4566 16.8859 16.0755 16.8859H2.5248C2.14368 16.8859 1.84726 16.5894 1.84726 16.2083V2.65761C1.84726 2.27649 2.14368 1.98007 2.5248 1.98007ZM4.5574 6.04529V7.40036H14.0429V6.04529H4.5574ZM4.5574 8.75543V10.1105H14.0429V8.75543H4.5574ZM4.5574 11.4656V12.8207H11.3328V11.4656H4.5574Z" fill="#31353D"/>
</svg>
