<svg width="26" height="26" viewBox="0 0 26 26" fill="none" xmlns="http://www.w3.org/2000/svg">
<path d="M13 0C9.6875 0 7 2.6875 7 6C7 9.3125 12.2188 17.543 12.2188 22H13.7812C13.7812 17.5586 19 9.04297 19 6C19 2.6875 16.3125 0 13 0ZM13 3C14.6562 3 16 4.34375 16 6C16 7.65625 14.6562 9 13 9C11.3438 9 10 7.65625 10 6C10 4.34375 11.3438 3 13 3ZM6.84375 17.2812C6.82422 17.2891 6.80078 17.3008 6.78125 17.3125C4.9375 17.6367 3.37109 18.082 2.1875 18.6875C1.59375 18.9922 1.08203 19.3516 0.6875 19.7812C0.292969 20.2109 0 20.7734 0 21.4062C0 22.3555 0.628906 23.0938 1.375 23.625C2.12109 24.1562 3.06641 24.5586 4.21875 24.9062C6.52344 25.5977 9.60547 26 13 26C16.3945 26 19.4766 25.5977 21.7812 24.9062C22.9336 24.5586 23.8789 24.1562 24.625 23.625C25.3711 23.0938 26 22.3555 26 21.4062C26 20.7734 25.7109 20.1836 25.3125 19.75C24.9141 19.3164 24.4062 18.9922 23.8125 18.6875C22.6211 18.082 21.043 17.6367 19.1875 17.3125C18.8281 17.2344 18.457 17.3594 18.2188 17.6367C17.9766 17.918 17.9102 18.3047 18.0391 18.6445C18.1719 18.9883 18.4805 19.2344 18.8438 19.2812C20.5664 19.582 22 20.0078 22.9062 20.4688C23.3594 20.6992 23.6797 20.9453 23.8438 21.125C24.0078 21.3047 24 21.375 24 21.4062C24 21.4531 23.9375 21.668 23.4688 22C23 22.332 22.207 22.6953 21.1875 23C19.1484 23.6094 16.2305 24 13 24C9.76953 24 6.85156 23.6094 4.8125 23C3.79297 22.6953 3 22.332 2.53125 22C2.0625 21.668 2 21.4531 2 21.4062C2 21.375 1.99219 21.3047 2.15625 21.125C2.32031 20.9453 2.64453 20.6992 3.09375 20.4688C3.99609 20.0078 5.41016 19.582 7.125 19.2812C7.67578 19.2031 8.0625 18.6914 7.98438 18.1406C7.90625 17.5898 7.39453 17.2031 6.84375 17.2812Z" fill="#E6B260"/>
</svg>
