<svg width="51" height="51" viewBox="0 0 51 51" fill="none" xmlns="http://www.w3.org/2000/svg">
<path d="M25.5008 0.300781C11.6083 0.300781 0.300781 11.6083 0.300781 25.5008C0.300781 39.3933 11.6083 50.7008 25.5008 50.7008C35.2738 50.7008 43.7546 45.1088 47.9281 36.9564C48.067 36.71 48.1547 36.4379 48.1859 36.1567C48.2171 35.8755 48.1911 35.5909 48.1095 35.32C48.028 35.049 47.8925 34.7974 47.7113 34.5801C47.5301 34.3628 47.3068 34.1844 47.0549 34.0555C46.803 33.9267 46.5277 33.8501 46.2454 33.8303C45.9632 33.8105 45.6798 33.8479 45.4124 33.9403C45.145 34.0327 44.899 34.1782 44.6892 34.3681C44.4794 34.5579 44.3102 34.7882 44.1916 35.0451C40.7127 41.8406 33.6743 46.5008 25.5008 46.5008C13.8783 46.5008 4.50078 37.1233 4.50078 25.5008C4.50078 13.8783 13.8783 4.50078 25.5008 4.50078C33.6743 4.50078 40.7127 9.16098 44.1916 15.9564C44.3102 16.2133 44.4794 16.4436 44.6892 16.6335C44.899 16.8233 45.145 16.9688 45.4124 17.0613C45.6798 17.1537 45.9632 17.1911 46.2454 17.1713C46.5277 17.1515 46.803 17.0749 47.0549 16.946C47.3068 16.8172 47.5301 16.6388 47.7113 16.4215C47.8925 16.2042 48.028 15.9525 48.1095 15.6816C48.1911 15.4107 48.2171 15.1261 48.1859 14.8448C48.1547 14.5636 48.067 14.2916 47.9281 14.0451C43.7546 5.89278 35.2738 0.300781 25.5008 0.300781ZM27.5598 14.9803C27.0142 14.9965 26.4964 15.2245 26.116 15.616L17.9006 23.8314C17.6433 24.0277 17.4349 24.2808 17.2915 24.5709C17.1482 24.861 17.0738 25.1803 17.0742 25.5038C17.0746 25.8274 17.1497 26.1466 17.2938 26.4363C17.4379 26.7261 17.6469 26.9786 17.9047 27.1742L26.116 35.3855C26.3095 35.5871 26.5413 35.748 26.7978 35.8589C27.0542 35.9697 27.3302 36.0283 27.6096 36.0311C27.889 36.034 28.1662 35.981 28.4248 35.8754C28.6835 35.7698 28.9185 35.6136 29.1161 35.4161C29.3136 35.2185 29.4698 34.9835 29.5754 34.7248C29.681 34.4662 29.734 34.189 29.7311 33.9096C29.7283 33.6302 29.6697 33.3542 29.5589 33.0978C29.448 32.8413 29.2871 32.6095 29.0855 32.416L24.2703 27.6008H48.6008C48.8791 27.6047 49.1553 27.5533 49.4136 27.4495C49.6718 27.3458 49.9068 27.1917 50.105 26.9963C50.3032 26.8009 50.4606 26.5681 50.568 26.3114C50.6754 26.0546 50.7307 25.7791 50.7307 25.5008C50.7307 25.2225 50.6754 24.947 50.568 24.6902C50.4606 24.4335 50.3032 24.2006 50.105 24.0052C49.9068 23.8099 49.6718 23.6558 49.4136 23.552C49.1553 23.4483 48.8791 23.3968 48.6008 23.4008H24.2703L29.0855 18.5855C29.389 18.2906 29.5963 17.9108 29.6802 17.496C29.7641 17.0812 29.7207 16.6508 29.5558 16.261C29.3909 15.8713 29.112 15.5405 28.7559 15.3119C28.3997 15.0834 27.9828 14.9678 27.5598 14.9803Z" fill="#16588F"/>
</svg>
