<svg width="22" height="24" viewBox="0 0 22 24" fill="none" xmlns="http://www.w3.org/2000/svg">
<path d="M19.5362 16.7046C18.1113 15.4644 16.6612 14.7108 15.2543 15.951L14.4124 16.6973C13.7971 17.2424 12.6529 19.7814 8.2307 14.6047C3.80855 9.43901 6.43881 8.63416 7.0577 8.09637L7.90327 7.34639C9.30296 6.10618 8.77403 4.54404 7.76294 2.93433L7.15485 1.96119C6.14017 0.358799 5.03193 -0.694827 3.62864 0.54172L2.86943 1.21853C2.24695 1.67583 0.512629 3.17213 0.0916431 6.01107C-0.415699 9.41706 1.18549 13.3206 4.84483 17.601C8.50057 21.885 12.0843 24.0361 15.4738 23.9995C18.2912 23.9666 19.9967 22.4301 20.5292 21.8703L21.2885 21.1935C22.6917 19.957 21.821 18.6948 20.3925 17.4546L19.5362 16.7046Z" fill="#d5b26e"/>
</svg>
