<svg width="19" height="20" viewBox="0 0 19 20" fill="none" xmlns="http://www.w3.org/2000/svg">
<path d="M10.487 0C9.95725 0 9.44921 0.210714 9.07462 0.585786C8.70004 0.960859 8.4896 1.46957 8.4896 2C8.4896 2.53043 8.70004 3.03914 9.07462 3.41421C9.44921 3.78929 9.95725 4 10.487 4C11.0167 4 11.5248 3.78929 11.8994 3.41421C12.274 3.03914 12.4844 2.53043 12.4844 2C12.4844 1.46957 12.274 0.960859 11.8994 0.585786C11.5248 0.210714 11.0167 0 10.487 0ZM7.28023 3.9375L3.72042 6.31445L2.23212 9.29297L4.01886 10.1875L5.26918 7.68555L7.08713 6.47266L6.99155 6.80078L5.55592 10.5938L4.27048 13.7188L6.11769 14.4805L7.16125 11.9414L8.0156 12.1094L5.55787 18.6484L7.42653 19.3516L10.4909 11.2031L12.1411 6.95508L17.513 10.0156L18.5 8.27734L12.8375 5.05078L7.28023 3.9375ZM2.4974 16C1.96766 16 1.45961 16.2107 1.08502 16.5858C0.71044 16.9609 0.5 17.4696 0.5 18C0.5 18.5304 0.71044 19.0391 1.08502 19.4142C1.45961 19.7893 1.96766 20 2.4974 20C3.02714 20 3.53519 19.7893 3.90977 19.4142C4.28436 19.0391 4.4948 18.5304 4.4948 18C4.4948 17.4696 4.28436 16.9609 3.90977 16.5858C3.53519 16.2107 3.02714 16 2.4974 16Z" fill="white"/>
</svg>
