<svg width="26" height="26" viewBox="0 0 26 26" fill="none" xmlns="http://www.w3.org/2000/svg">
<path d="M13 0C5.83109 0 0 5.83109 0 13C0 20.1689 5.83109 26 13 26C20.1689 26 26 20.1689 26 13C26 5.83109 20.1689 0 13 0ZM13 0.896552C19.6734 0.896552 25.1034 6.32664 25.1034 13C25.1034 19.6734 19.6734 25.1034 13 25.1034C6.32664 25.1034 0.896552 19.6734 0.896552 13C0.896552 6.32664 6.32664 0.896552 13 0.896552ZM12.8039 2.69316C10.1615 2.74569 7.60493 3.8156 5.71026 5.70851C3.76307 7.65746 2.68966 10.2456 2.68966 13C2.68966 15.7544 3.76131 18.3425 5.70851 20.2915C5.79607 20.3773 5.91164 20.4228 6.02546 20.4228C6.14103 20.4228 6.2566 20.3773 6.34415 20.2915C6.51926 20.1146 6.51926 19.8327 6.34415 19.6558C6.13753 19.451 5.94666 19.2373 5.7628 19.0167C5.76805 19.0079 5.77856 19.0009 5.78381 18.9904C6.78893 16.9224 8.56627 15.497 10.6098 15.033C11.2787 15.6984 12.1017 16.1379 13 16.1379C13.8983 16.1379 14.7231 15.6984 15.3902 15.033C17.4355 15.4953 19.2128 16.9224 20.2179 18.9904C20.2232 19.0009 20.2302 19.0097 20.2355 19.0185C20.0516 19.2373 19.8607 19.4527 19.6558 19.6558C19.4807 19.8327 19.4807 20.1146 19.6558 20.2915C19.7434 20.3773 19.859 20.4228 19.9745 20.4228C20.0884 20.4228 20.2039 20.3773 20.2915 20.2915C22.2387 18.3425 23.3103 15.7544 23.3103 13C23.3103 10.2456 22.2387 7.65746 20.2915 5.70851C19.9938 5.41258 19.6786 5.13241 19.3529 4.87675C19.1568 4.72441 18.8749 4.75943 18.7225 4.9538C18.5702 5.14817 18.6034 5.43009 18.7996 5.58244C19.0973 5.81708 19.3862 6.07274 19.6558 6.34415C21.4349 8.1215 22.4138 10.4855 22.4138 13C22.4138 14.8894 21.8605 16.693 20.8308 18.227C19.7539 16.2518 18.0238 14.8474 16.0259 14.2678C16.651 13.352 17.0345 12.2313 17.0345 11.2069V10.3103C17.0345 8.08648 15.2239 6.27586 13 6.27586C10.7761 6.27586 8.96552 8.08648 8.96552 10.3103V11.2069C8.96552 12.2313 9.34725 13.352 9.97414 14.2678C7.97616 14.8474 6.24434 16.2518 5.16918 18.227C4.13955 16.693 3.58621 14.8894 3.58621 13C3.58621 10.4855 4.56506 8.1215 6.34415 6.34415C8.47171 4.21484 11.5186 3.22899 14.4972 3.70528C14.7441 3.74556 14.9717 3.57745 15.0102 3.33405C15.0488 3.0889 14.8824 2.85776 14.639 2.81924C14.0261 2.72117 13.4133 2.67915 12.8039 2.69316ZM16.4339 3.31129C16.2588 3.31829 16.0977 3.42861 16.0329 3.60197C15.9453 3.83311 16.0626 4.09227 16.2955 4.17982C16.6142 4.2989 16.9312 4.43723 17.2359 4.58957C17.3006 4.62285 17.3707 4.6386 17.439 4.6386C17.6018 4.6386 17.7594 4.5493 17.84 4.3917C17.9503 4.17107 17.861 3.9014 17.6404 3.78933C17.3059 3.62123 16.9592 3.47064 16.609 3.3393C16.5529 3.31829 16.4916 3.30954 16.4339 3.31129ZM13 7.17241C14.7301 7.17241 16.1379 8.58028 16.1379 10.3103V11.2069C16.1379 12.986 14.66 15.2414 13 15.2414C11.34 15.2414 9.86207 12.986 9.86207 11.2069V10.3103C9.86207 8.58028 11.2699 7.17241 13 7.17241ZM8.68534 20.3493C8.51024 20.3283 8.33338 20.4088 8.24232 20.5699L7.79405 21.3474C7.66972 21.561 7.74327 21.8342 7.9569 21.9585C8.02694 21.9988 8.10399 22.0198 8.18103 22.0198C8.33513 22.0198 8.48572 21.9393 8.56802 21.7957L9.0163 21.0182C9.14062 20.8046 9.06883 20.5296 8.85345 20.4053C8.79916 20.3755 8.74313 20.3563 8.68534 20.3493ZM17.3147 20.3493C17.2569 20.3563 17.2008 20.3755 17.1466 20.4053C16.9312 20.5296 16.8594 20.8046 16.9837 21.0199L17.432 21.7957C17.5143 21.9393 17.6649 22.0198 17.819 22.0198C17.896 22.0198 17.9731 22.0005 18.0431 21.9585C18.2585 21.8359 18.3303 21.561 18.206 21.3474L17.7577 20.5717C17.6649 20.4106 17.488 20.3283 17.3147 20.3493ZM10.6746 21.2231C10.503 21.2476 10.3524 21.3719 10.3033 21.5523L10.0722 22.419C10.0074 22.6572 10.151 22.9023 10.3891 22.9671C10.4277 22.9776 10.4679 22.9829 10.5065 22.9829C10.7043 22.9829 10.8847 22.8498 10.939 22.6502L11.1701 21.7834C11.2349 21.5453 11.0931 21.2984 10.8549 21.2353C10.7936 21.2178 10.7324 21.2143 10.6746 21.2231ZM15.3254 21.2231C15.2676 21.2143 15.2064 21.2178 15.1451 21.2353C14.9069 21.2984 14.7651 21.5453 14.8281 21.7834L15.061 22.6502C15.1153 22.8498 15.2957 22.9829 15.4935 22.9829C15.5321 22.9829 15.5706 22.9776 15.6109 22.9671C15.849 22.9023 15.9908 22.6572 15.9278 22.419L15.6967 21.5523C15.6476 21.3719 15.497 21.2476 15.3254 21.2231ZM13 21.5172C12.7531 21.5172 12.5517 21.7186 12.5517 21.9655V22.8621C12.5517 23.109 12.7531 23.3103 13 23.3103C13.2469 23.3103 13.4483 23.109 13.4483 22.8621V21.9655C13.4483 21.7186 13.2469 21.5172 13 21.5172Z" fill="white"/>
</svg>
