<svg width="26" height="26" viewBox="0 0 26 26" fill="none" xmlns="http://www.w3.org/2000/svg">
<path d="M10.2615 0C4.60323 0 0 4.60352 0 10.2621C0 15.9207 4.60323 20.5242 10.2615 20.5242C12.5254 20.5242 14.6178 19.7866 16.3157 18.5407C16.3157 18.5407 17.4557 19.6567 17.5102 19.676C17.5102 19.6856 17.5086 19.6936 17.5086 19.7032C17.5086 20.2516 17.7219 20.7679 18.1099 21.1544L22.3556 25.4003C22.7564 25.8012 23.2807 26 23.8066 26C24.3325 26 24.8584 25.8012 25.2576 25.4003L25.3987 25.2576C25.7868 24.8712 26 24.3565 26 23.8081C26 23.2597 25.7868 22.7434 25.3987 22.357L21.1531 18.111C20.7458 17.7037 20.2103 17.5065 19.6764 17.5145C19.6555 17.4584 18.5396 16.3167 18.5396 16.3167C19.7854 14.6187 20.5229 12.5262 20.5229 10.2621C20.5229 4.60352 15.9197 0 10.2615 0ZM10.2615 0.820968C15.4676 0.820968 19.702 5.05569 19.702 10.2621C19.702 15.4685 15.4676 19.7032 10.2615 19.7032C5.05538 19.7032 0.820918 15.4685 0.820918 10.2621C0.820918 5.05569 5.05538 0.820968 10.2615 0.820968ZM10.2615 2.4629C8.17871 2.4629 6.21941 3.27425 4.74593 4.74622C1.70597 7.78797 1.70597 12.7362 4.74593 15.7764C6.21941 17.25 8.17871 18.0613 10.2615 18.0613C12.3442 18.0613 14.3035 17.25 15.777 15.778C18.817 12.7362 18.817 7.78797 15.777 4.74622C14.3035 3.27425 12.3442 2.4629 10.2615 2.4629ZM10.2615 3.28387C12.1246 3.28387 13.877 4.01024 15.195 5.32828C17.9159 8.04773 17.9159 12.4765 15.195 15.1959C13.877 16.514 12.1246 17.2403 10.2615 17.2403C8.39837 17.2403 6.64591 16.514 5.32795 15.1959C2.60705 12.4765 2.60705 8.04934 5.32795 5.32828C6.64591 4.01024 8.39837 3.28387 10.2615 3.28387ZM10.1829 4.51533C8.69018 4.53296 7.2664 5.12945 6.19697 6.19735C6.03663 6.3593 6.03663 6.61745 6.19697 6.7794C6.27713 6.85797 6.38296 6.89966 6.48878 6.89966C6.59299 6.89966 6.69882 6.85797 6.77898 6.7794C7.82437 5.73235 9.26899 5.21443 10.7457 5.36035C10.9718 5.37959 11.1722 5.21764 11.1946 4.99155C11.2171 4.76546 11.0519 4.56503 10.8259 4.54258C10.611 4.52174 10.3962 4.51212 10.1829 4.51533ZM13.077 5.28498C12.9198 5.26253 12.7547 5.33469 12.6665 5.4806C12.5495 5.67462 12.612 5.92636 12.8076 6.04342C13.1443 6.24866 13.4602 6.49559 13.744 6.7794C13.8241 6.85957 13.9283 6.89966 14.0342 6.89966C14.14 6.89966 14.2442 6.85957 14.326 6.7794C14.4847 6.61906 14.4847 6.3593 14.326 6.19895C13.9941 5.86864 13.6253 5.58002 13.2309 5.3411C13.1828 5.31224 13.1299 5.293 13.077 5.28498ZM4.51505 9.85162C4.28897 9.85162 4.10459 10.0344 4.10459 10.2621C4.10459 10.4898 4.28897 10.6726 4.51505 10.6726H5.33596C5.56204 10.6726 5.74642 10.4898 5.74642 10.2621C5.74642 10.0344 5.56204 9.85162 5.33596 9.85162H4.51505ZM15.187 9.85162C14.9609 9.85162 14.7765 10.0344 14.7765 10.2621C14.7765 10.4898 14.9609 10.6726 15.187 10.6726H16.0079C16.234 10.6726 16.4184 10.4898 16.4184 10.2621C16.4184 10.0344 16.234 9.85162 16.0079 9.85162H15.187ZM5.70153 11.6972C5.64862 11.6956 5.5925 11.7052 5.54119 11.7261L4.7796 12.0339C4.56956 12.1189 4.46855 12.3578 4.55353 12.5679C4.61766 12.7282 4.77158 12.826 4.93352 12.826C4.98483 12.826 5.03774 12.8164 5.08744 12.7956L5.84904 12.4877C6.05908 12.4027 6.16009 12.1638 6.07511 11.9537C6.01098 11.7966 5.86186 11.6988 5.70153 11.6972ZM14.7958 11.7758C14.6354 11.7758 14.4831 11.8704 14.4174 12.0259C14.3292 12.236 14.4254 12.4765 14.6354 12.5647L15.3906 12.8854C15.4419 12.9078 15.4964 12.9174 15.5509 12.9174C15.7113 12.9174 15.862 12.8244 15.9293 12.6673C16.0175 12.4588 15.9197 12.2183 15.7113 12.1301L14.9561 11.8094C14.9032 11.787 14.8487 11.7758 14.7958 11.7758ZM6.77898 13.3343C6.67316 13.3343 6.56894 13.3744 6.48878 13.4546L5.90836 14.035C5.74803 14.1954 5.74803 14.4551 5.90836 14.6155C5.98853 14.6957 6.09275 14.7357 6.19857 14.7357C6.30439 14.7357 6.40861 14.6957 6.48878 14.6155L7.06919 14.035C7.22953 13.8747 7.22953 13.6149 7.06919 13.4546C6.98902 13.3744 6.8832 13.3343 6.77898 13.3343ZM13.744 13.3343C13.6397 13.3343 13.5339 13.3744 13.4537 13.4546C13.2934 13.6149 13.2934 13.8747 13.4537 14.035L14.0342 14.6155C14.1143 14.6957 14.2185 14.7357 14.3244 14.7357C14.4302 14.7357 14.5344 14.6957 14.6146 14.6155C14.7749 14.4551 14.7749 14.1954 14.6146 14.035L14.0342 13.4546C13.954 13.3744 13.8482 13.3343 13.744 13.3343ZM8.33744 14.3862C8.17711 14.3862 8.02479 14.4792 7.95905 14.6363L7.63838 15.3916C7.5502 15.6 7.648 15.8421 7.85644 15.9303C7.90935 15.9528 7.96226 15.9624 8.01677 15.9624C8.17551 15.9624 8.32782 15.8678 8.39517 15.7122L8.71584 14.957C8.80402 14.7486 8.70622 14.5064 8.49778 14.4183C8.44487 14.3958 8.39036 14.3862 8.33744 14.3862ZM12.1133 14.4183C12.0604 14.4183 12.0043 14.4279 11.953 14.4487C11.7414 14.5337 11.6404 14.7726 11.7253 14.9827L12.0332 15.7443C12.0973 15.9047 12.2512 16.0009 12.4148 16.0009C12.4661 16.0009 12.5174 15.9912 12.5687 15.9704C12.7787 15.8854 12.8797 15.6465 12.7948 15.4364L12.4869 14.6748C12.4228 14.5177 12.2737 14.4215 12.1133 14.4183ZM10.2615 14.7774C10.0354 14.7774 9.85101 14.9602 9.85101 15.1879V16.0089C9.85101 16.2366 10.0354 16.4194 10.2615 16.4194C10.4875 16.4194 10.6719 16.2366 10.6719 16.0089V15.1879C10.6719 14.9602 10.4875 14.7774 10.2615 14.7774ZM18.0233 16.9629L18.7929 17.7342C18.5989 17.8304 18.4129 17.9507 18.251 18.1126L18.1099 18.2521C17.9496 18.4125 17.8293 18.5969 17.7315 18.7925L16.9619 18.0244C17.3419 17.6973 17.6962 17.343 18.0233 16.9629ZM19.702 18.3307C20.0179 18.3307 20.3337 18.4509 20.5742 18.6915L24.8199 22.9374C25.0524 23.1699 25.1791 23.4794 25.1791 23.8081C25.1791 24.1368 25.0508 24.4463 24.8183 24.6788L24.6772 24.8199C24.1962 25.2993 23.417 25.2993 22.936 24.8199L18.6903 20.5739C18.4578 20.3414 18.3296 20.0319 18.3296 19.7032C18.3296 19.3745 18.4578 19.0651 18.6903 18.8326L18.8314 18.6915C19.0719 18.4509 19.3878 18.3307 19.702 18.3307Z" fill="white"/>
</svg>
