<svg width="26" height="26" viewBox="0 0 26 26" fill="none" xmlns="http://www.w3.org/2000/svg">
<path d="M11.9438 0C11.3445 0 10.8266 0.404557 10.6827 0.985156L9.93281 3.97109C9.55195 4.10143 9.16771 4.26224 8.78854 4.45352L6.14284 2.86406C5.62995 2.55768 4.97826 2.63893 4.55508 3.06042L3.06042 4.55508C2.63724 4.97656 2.55768 5.62995 2.86406 6.14284L4.45013 8.78854C4.26393 9.16432 4.10313 9.55026 3.97448 9.93451L0.985156 10.6827C0.404557 10.8266 0 11.3462 0 11.9438V14.0563C0 14.6555 0.404557 15.1734 0.985156 15.3173L3.97109 16.0672C4.10143 16.4497 4.26393 16.8357 4.45352 17.2115L2.86406 19.8572C2.55768 20.3701 2.63724 21.0217 3.06042 21.4449L4.55508 22.9396C4.97826 23.3628 5.62995 23.4423 6.14284 23.1359L8.78854 21.5499C9.16771 21.7378 9.55365 21.8986 9.93451 22.0255L10.6827 25.0165C10.8266 25.5954 11.3462 26 11.9438 26H14.0563C14.6555 26 15.1734 25.5954 15.3173 25.0165L16.0672 22.0289C16.448 21.8986 16.8323 21.7378 17.2115 21.5465L19.8572 23.1359C20.3701 23.4423 21.0217 23.3611 21.4449 22.9396L22.9396 21.4449C23.3628 21.0234 23.4423 20.3701 23.1359 19.8572L21.5499 17.2115C21.7361 16.8357 21.8969 16.4497 22.0255 16.0655L25.0148 15.3173C25.5954 15.1734 26 14.6538 26 14.0563V11.9438C26 11.3462 25.5954 10.8266 25.0165 10.6827L22.0289 9.93281C21.8986 9.55026 21.7361 9.16432 21.5465 8.78854L23.1359 6.14284C23.4423 5.62995 23.3628 4.97826 22.9396 4.55508L21.4449 3.06042C21.0217 2.63724 20.3701 2.55768 19.8572 2.86406L17.2115 4.45013C16.8323 4.26224 16.4464 4.10143 16.0655 3.97448L15.3173 0.985156C15.1734 0.404557 14.6538 0 14.0563 0H11.9438ZM11.9438 0.866667H14.0563C14.256 0.866667 14.4286 1.00208 14.476 1.19505L15.2242 4.18437C15.2953 4.46706 15.5052 4.69557 15.7879 4.79206C16.1315 4.90885 16.4802 5.05612 16.8255 5.22708C17.093 5.36081 17.4027 5.34727 17.6566 5.19492L20.304 3.60885C20.475 3.5056 20.6917 3.53268 20.8322 3.67318L22.3268 5.16615C22.4673 5.30833 22.4944 5.52669 22.3911 5.69596L20.8051 8.34167C20.6527 8.59557 20.6409 8.90703 20.7729 9.17448C20.9439 9.51641 21.0895 9.8651 21.2079 10.2121C21.3044 10.4931 21.5329 10.7047 21.8156 10.7741L24.8033 11.5223C24.9979 11.5714 25.1333 11.744 25.1333 11.9438V14.0563C25.1333 14.256 24.9979 14.4286 24.8049 14.476L21.8156 15.2242C21.5329 15.2953 21.3044 15.5052 21.2079 15.7879C21.0911 16.1349 20.9439 16.4836 20.7729 16.8255C20.6409 17.093 20.6527 17.4027 20.8051 17.6566L22.3928 20.304C22.4944 20.4733 22.4673 20.6917 22.3285 20.8322L20.8339 22.3268C20.6917 22.4673 20.4733 22.4944 20.304 22.3911L17.6583 20.8051C17.4044 20.6527 17.093 20.6409 16.8255 20.7729C16.4819 20.9439 16.1332 21.0895 15.7879 21.2079C15.5069 21.3044 15.2953 21.5329 15.2259 21.8156L14.4777 24.8033C14.4286 24.9979 14.256 25.1333 14.0563 25.1333H11.9438C11.744 25.1333 11.5714 24.9979 11.524 24.8049L10.7758 21.8156C10.7047 21.5329 10.4948 21.3044 10.2121 21.2079C9.86849 21.0911 9.51979 20.9439 9.17448 20.7729C9.05091 20.712 8.91719 20.6815 8.78516 20.6815C8.63112 20.6815 8.47878 20.7221 8.34336 20.8051L5.69596 22.3911C5.52669 22.4944 5.30833 22.4673 5.16784 22.3268L3.67318 20.8339C3.53268 20.6917 3.5056 20.4733 3.60885 20.304L5.19492 17.6583C5.34727 17.4044 5.35911 17.093 5.22708 16.8255C5.05612 16.4836 4.91055 16.1349 4.79206 15.7879C4.69557 15.5069 4.46706 15.2953 4.18437 15.2259L1.19505 14.4777C1.00208 14.4286 0.866667 14.256 0.866667 14.0563V11.9438C0.866667 11.744 1.00208 11.5714 1.19505 11.5223L4.18437 10.7741C4.46706 10.7047 4.69557 10.4931 4.79206 10.2121C4.90885 9.8651 5.05612 9.51641 5.22708 9.17448C5.35911 8.90703 5.34727 8.59557 5.19492 8.34167L3.60716 5.69596C3.5056 5.52669 3.53268 5.30833 3.67148 5.16615L5.16615 3.67318C5.30664 3.53268 5.525 3.5056 5.69596 3.60885L8.34167 5.19492C8.59557 5.34727 8.90703 5.35911 9.17448 5.22708C9.5181 5.05612 9.8668 4.90885 10.2121 4.79206C10.4931 4.69388 10.7047 4.46706 10.7741 4.18437L11.5223 1.19505C11.5714 1.00208 11.744 0.866667 11.9438 0.866667ZM13.8125 6.9875C13.5806 6.95703 13.3589 7.12292 13.3267 7.3599C13.2945 7.59688 13.4604 7.81523 13.6974 7.8474C14.0089 7.88802 14.3169 7.95911 14.6165 8.0556C14.6605 8.06914 14.7046 8.0776 14.7486 8.0776C14.9314 8.0776 15.1023 7.95911 15.1616 7.77799C15.2361 7.54948 15.1108 7.30573 14.884 7.23125C14.5353 7.11784 14.1764 7.0349 13.8125 6.9875ZM11.7186 7.10091C11.6628 7.09245 11.6052 7.09414 11.546 7.10938C8.83086 7.7763 6.93333 10.1986 6.93333 13C6.93333 15.2513 8.16901 17.3079 10.1613 18.3625C10.2257 18.398 10.2967 18.4133 10.3645 18.4133C10.5202 18.4133 10.6691 18.3303 10.747 18.1831C10.8587 17.9715 10.7792 17.7091 10.5676 17.5974C8.86133 16.6918 7.8 14.9297 7.8 13C7.8 10.5997 9.425 8.52279 11.7542 7.95065C11.9861 7.8931 12.1283 7.65781 12.0707 7.42591C12.0284 7.25156 11.8862 7.128 11.7186 7.10091ZM16.9829 8.58372C16.8729 8.58372 16.7612 8.62604 16.6766 8.71068L16.0638 9.32344C15.8945 9.49271 15.8945 9.76693 16.0638 9.9362C16.1484 10.0208 16.2585 10.0632 16.3702 10.0632C16.4819 10.0632 16.5919 10.0208 16.6766 9.9362L17.2893 9.32344C17.4586 9.15417 17.4586 8.87995 17.2893 8.71068C17.2047 8.62604 17.093 8.58372 16.9829 8.58372ZM13 9.53333C11.0889 9.53333 9.53333 11.0889 9.53333 13C9.53333 14.9111 11.0889 16.4667 13 16.4667C14.9111 16.4667 16.4667 14.9111 16.4667 13C16.4667 11.0889 14.9111 9.53333 13 9.53333ZM18.1848 10.3661C18.1289 10.3661 18.0714 10.3763 18.0172 10.4L17.2182 10.7385C16.9982 10.8316 16.8949 11.0872 16.988 11.3073C17.0591 11.4732 17.2199 11.5714 17.3875 11.5714C17.4451 11.5714 17.5009 11.5595 17.5568 11.5375L18.3557 11.199C18.5758 11.1042 18.6773 10.8503 18.5842 10.6302C18.5148 10.4643 18.354 10.3645 18.1848 10.3661ZM13 10.4C14.4337 10.4 15.6 11.5663 15.6 13C15.6 14.4337 14.4337 15.6 13 15.6C11.5663 15.6 10.4 14.4337 10.4 13C10.4 11.5663 11.5663 10.4 13 10.4ZM13 12.1333C12.521 12.1333 12.1333 12.521 12.1333 13C12.1333 13.479 12.521 13.8667 13 13.8667C13.479 13.8667 13.8667 13.479 13.8667 13C13.8667 12.521 13.479 12.1333 13 12.1333ZM17.7667 12.5667C17.528 12.5667 17.3333 12.7596 17.3333 13C17.3333 13.2404 17.528 13.4333 17.7667 13.4333H18.6333C18.872 13.4333 19.0667 13.2404 19.0667 13C19.0667 12.7596 18.872 12.5667 18.6333 12.5667H17.7667ZM17.4129 14.3525C17.2436 14.3559 17.0845 14.4574 17.0168 14.6233C16.9288 14.8451 17.0354 15.099 17.2572 15.187L18.0612 15.512C18.1137 15.534 18.1695 15.5441 18.222 15.5441C18.3947 15.5441 18.5572 15.4409 18.6249 15.2733C18.7146 15.0499 18.6079 14.7977 18.3845 14.7079L17.5822 14.3829C17.5263 14.3609 17.4688 14.3508 17.4129 14.3525ZM16.3702 15.9368C16.2602 15.9368 16.1484 15.9792 16.0638 16.0638C15.8945 16.2331 15.8945 16.5073 16.0638 16.6766L16.6766 17.2893C16.7612 17.374 16.8712 17.4163 16.9829 17.4163C17.0947 17.4163 17.2047 17.374 17.2893 17.2893C17.4586 17.1201 17.4586 16.8458 17.2893 16.6766L16.6766 16.0638C16.5919 15.9792 16.4802 15.9368 16.3702 15.9368ZM14.862 16.9542C14.8061 16.9542 14.7486 16.966 14.6927 16.988C14.4727 17.0828 14.3694 17.3367 14.4625 17.5568L14.801 18.3557C14.8721 18.5199 15.0329 18.6198 15.2005 18.6198C15.2581 18.6198 15.3156 18.6079 15.3698 18.5859C15.5915 18.4911 15.6931 18.2372 15.6 18.0172L15.2615 17.2182C15.1921 17.0523 15.0312 16.9542 14.862 16.9542ZM13 17.3333C12.7613 17.3333 12.5667 17.5263 12.5667 17.7667V18.6333C12.5667 18.8737 12.7613 19.0667 13 19.0667C13.2387 19.0667 13.4333 18.8737 13.4333 18.6333V17.7667C13.4333 17.5263 13.2387 17.3333 13 17.3333Z" fill="white"/>
</svg>
