<svg width="25" height="22" viewBox="0 0 25 22" fill="none" xmlns="http://www.w3.org/2000/svg">
<path fill-rule="evenodd" clip-rule="evenodd" d="M1 14C0.447715 14 0 14.4477 0 15V17C0 19.7614 2.23858 22 5 22H20C22.7614 22 25 19.7614 25 17V15C25 14.4477 24.5523 14 24 14C23.4477 14 23 14.4477 23 15V17C23 18.6569 21.6569 20 20 20H5C3.34315 20 2 18.6569 2 17V15C2 14.4477 1.55228 14 1 14Z" fill="white"/>
<path d="M11 16C11 16.5523 11.4477 17 12 17C12.5523 17 13 16.5523 13 16L11 16ZM12.7071 0.292892C12.3166 -0.0976315 11.6834 -0.0976314 11.2929 0.292892L4.92893 6.65685C4.53841 7.04738 4.53841 7.68054 4.92893 8.07107C5.31946 8.46159 5.95262 8.46159 6.34315 8.07107L12 2.41421L17.6569 8.07107C18.0474 8.46159 18.6805 8.46159 19.0711 8.07107C19.4616 7.68054 19.4616 7.04738 19.0711 6.65685L12.7071 0.292892ZM13 16L13 0.999999L11 0.999999L11 16L13 16Z" fill="white"/>
</svg>
