<svg width="19" height="20" viewBox="0 0 19 20" fill="none" xmlns="http://www.w3.org/2000/svg">
<path d="M3.87987 0.773438C3.50405 0.773438 3.20233 1.07515 3.20233 1.45097V2.12851H15.398V1.45097C15.398 1.07515 15.0963 0.773438 14.7204 0.773438H3.87987ZM2.5248 3.48358C2.14898 3.48358 1.84726 3.7853 1.84726 4.16112V4.83865H16.7531V4.16112C16.7531 3.7853 16.4513 3.48358 16.0755 3.48358H2.5248ZM1.16972 6.19373C0.793903 6.19373 0.492188 6.49544 0.492188 6.87126V19.0669C0.492188 19.4427 0.793903 19.7445 1.16972 19.7445H17.4306C17.8064 19.7445 18.1081 19.4427 18.1081 19.0669V6.87126C18.1081 6.49544 17.8064 6.19373 17.4306 6.19373H1.16972ZM1.84726 7.5488H16.7531V18.3894H1.84726V7.5488ZM7.26755 9.58141V16.3568L12.6878 12.9691L7.26755 9.58141Z" fill="#31353D"/>
</svg>
