<svg width="64" height="65" viewBox="0 0 64 65" fill="none" xmlns="http://www.w3.org/2000/svg">
<path d="M8 15.2205L9 11.1797H26V15.2205H8Z" fill="#31353D"/>
<path d="M39 13.2001C39 13.7359 38.7893 14.2498 38.4142 14.6287C38.0391 15.0076 37.5304 15.2205 37 15.2205H26V11.1797H37C37.5304 11.1797 38.0391 11.3925 38.4142 11.7714C38.7893 12.1503 39 12.6642 39 13.2001Z" fill="#E6B260"/>
<path d="M8 43.5039L60.06 51.9896C60.8903 52.1598 61.6367 52.615 62.1725 53.2779C62.7084 53.9407 63.0008 54.7705 63 55.6263V55.6263C63 56.698 62.5786 57.7258 61.8284 58.4836C61.0783 59.2414 60.0609 59.6671 59 59.6671H1L8 43.5039Z" fill="#31353D"/>
<path d="M7 1.07812H17L13 6.12915L19 11.1802H9L3 6.12915L7 1.07812Z" fill="#E6B260"/>
<path d="M8 15.2188H15L8 43.5042H1L8 15.2188Z" fill="#31353D"/>
<path d="M1 43.5039H8V59.6671H1V43.5039Z" fill="#31353D"/>
<path d="M11 16.2291H37C37.7956 16.2291 38.5587 15.9098 39.1213 15.3415C39.6839 14.7731 40 14.0023 40 13.1985C40 12.3948 39.6839 11.6239 39.1213 11.0556C38.5587 10.4873 37.7956 10.168 37 10.168H9V12.1884H37C37.2652 12.1884 37.5196 12.2948 37.7071 12.4842C37.8946 12.6737 38 12.9306 38 13.1985C38 13.4665 37.8946 13.7234 37.7071 13.9129C37.5196 14.1023 37.2652 14.2087 37 14.2087H11V16.2291Z" fill="white"/>
<path d="M18.9999 12.1893C19.1468 12.1896 19.292 12.1571 19.4251 12.0943C19.5582 12.0314 19.6759 11.9397 19.77 11.8257C19.8542 11.7236 19.9176 11.6057 19.9566 11.4788C19.9956 11.352 20.0096 11.2186 19.9975 11.0862C19.9854 10.9539 19.9476 10.8253 19.8862 10.7078C19.8249 10.5903 19.7412 10.4861 19.6399 10.4013L14.39 5.98679L17.78 1.7036C17.875 1.60188 17.9481 1.48132 17.9946 1.34957C18.0411 1.21781 18.06 1.07774 18.0502 0.93821C18.0403 0.798681 18.0019 0.662748 17.9373 0.539013C17.8727 0.415277 17.7834 0.306441 17.675 0.219399C17.5666 0.132357 17.4415 0.0689959 17.3076 0.0333497C17.1736 -0.00229655 17.0339 -0.00946149 16.8971 0.0123093C16.7603 0.0340801 16.6295 0.0843128 16.5129 0.159823C16.3964 0.235334 16.2966 0.334487 16.2199 0.450982L11.6099 6.26964L18.3599 11.957C18.5398 12.1076 18.7663 12.1898 18.9999 12.1893Z" fill="white"/>
<path d="M33 11.1797H35V15.2205H33V11.1797Z" fill="white"/>
<path d="M29 11.1797H31V15.2205H29V11.1797Z" fill="white"/>
<path d="M25 11.1797H27V15.2205H25V11.1797Z" fill="white"/>
<path d="M0 62.6992H40V64.7197H0V62.6992Z" fill="#E6B260"/>
<path d="M42 62.6992H64V64.7197H42V62.6992Z" fill="white"/>
<path d="M48 60.6797H58V62.7001H48V60.6797Z" fill="#595857"/>
<path d="M2 60.6797H12V62.7001H2V60.6797Z" fill="#595857"/>
<path d="M0 60.6787H59C60.3261 60.6787 61.5978 60.1466 62.5355 59.1993C63.4732 58.2521 64 56.9673 64 55.6277C63.9971 54.54 63.6237 53.4865 62.9427 52.644C62.2617 51.8015 61.3144 51.2214 60.26 51.0011L11.16 43.0003C10.8948 42.9575 10.6235 43.0228 10.406 43.1819C10.1885 43.341 10.0424 43.581 10 43.8489C9.95757 44.1168 10.0222 44.3908 10.1797 44.6105C10.3373 44.8303 10.5748 44.9778 10.84 45.0207L59.9 53.0214C60.4912 53.15 61.0213 53.4783 61.4031 53.9521C61.7848 54.4258 61.9954 55.0169 62 55.6277C62 56.4315 61.6839 57.2023 61.1213 57.7707C60.5587 58.339 59.7956 58.6583 59 58.6583H2V43.6266L10.12 10.8055L4.39001 5.98684L7.78003 1.70362C7.87508 1.60189 7.94817 1.48133 7.99469 1.34958C8.04121 1.21782 8.0601 1.07775 8.05023 0.938217C8.04037 0.798687 8.00197 0.662754 7.93738 0.539017C7.87279 0.41528 7.78345 0.306444 7.67505 0.219401C7.56665 0.132358 7.44152 0.0689965 7.30762 0.03335C7.17371 -0.00229657 7.03394 -0.00946157 6.89716 0.0123094C6.76037 0.0340804 6.62957 0.0843134 6.513 0.159825C6.39643 0.235336 6.29663 0.334489 6.21997 0.450986L1.60999 6.26969L7.88 11.553L0 43.5054V60.6787Z" fill="white"/>
<path d="M48 54.6172H50V56.6376H48V54.6172Z" fill="#E6B260"/>
<path d="M44 54.6172H46V56.6376H44V54.6172Z" fill="white"/>
<path d="M40 54.6172H42V56.6376H40V54.6172Z" fill="white"/>
</svg>
