<svg width="64" height="53" viewBox="0 0 64 53" fill="none" xmlns="http://www.w3.org/2000/svg">
<path d="M25 51.5427C34.9411 51.5427 43 43.4017 43 33.3593C43 23.3168 34.9411 15.1758 25 15.1758C15.0589 15.1758 7 23.3168 7 33.3593C7 43.4017 15.0589 51.5427 25 51.5427Z" fill="#31353D"/>
<path d="M25 44.4705C31.0751 44.4705 36 39.4954 36 33.3583C36 27.2212 31.0751 22.2461 25 22.2461C18.9249 22.2461 14 27.2212 14 33.3583C14 39.4954 18.9249 44.4705 25 44.4705Z" fill="#555E6F"/>
<path d="M25 42.453C29.9706 42.453 34 38.3825 34 33.3613C34 28.34 29.9706 24.2695 25 24.2695C20.0294 24.2695 16 28.34 16 33.3613C16 38.3825 20.0294 42.453 25 42.453Z" fill="#E6B260"/>
<path d="M26 15.1758H63V21.237L42 28.3083L26 15.1758Z" fill="#31353D"/>
<path d="M42.32 29.2703L41.68 27.3509L62 20.5119V16.1883H28V14.168H64V21.9666L42.32 29.2703Z" fill="white"/>
<path d="M25 48.5129C21.0218 48.5129 17.2064 46.9165 14.3934 44.0747C11.5804 41.233 10 37.3788 10 33.36C10 29.3412 11.5804 25.487 14.3934 22.6452C17.2064 19.8035 21.0218 18.207 25 18.207V20.2274C22.4288 20.2274 19.9154 20.9976 17.7776 22.4407C15.6397 23.8837 13.9735 25.9347 12.9896 28.3344C12.0056 30.734 11.7482 33.3745 12.2498 35.922C12.7514 38.4695 13.9895 40.8095 15.8076 42.6461C17.6257 44.4827 19.9421 45.7335 22.4638 46.2402C24.9856 46.7469 27.5994 46.4869 29.9749 45.4929C32.3503 44.4989 34.3807 42.8157 35.8091 40.656C37.2376 38.4964 38 35.9574 38 33.36H40C40 37.3788 38.4196 41.233 35.6066 44.0747C32.7936 46.9165 28.9782 48.5129 25 48.5129Z" fill="white"/>
<path d="M25 52.5553C19.9609 52.5553 15.1282 50.5331 11.565 46.9336C8.00178 43.3341 6 38.4521 6 33.3616C6 28.2712 8.00178 23.3892 11.565 19.7897C15.1282 16.1902 19.9609 14.168 25 14.168H26V18.2087H30V20.2291H24V16.1884C20.2598 16.4115 16.6973 17.8766 13.8663 20.356C11.0353 22.8353 9.0944 26.19 8.34535 29.8985C7.59631 33.6071 8.08106 37.4617 9.72425 40.8633C11.3674 44.2648 14.077 47.0227 17.4317 48.7082C20.7865 50.3937 24.5985 50.9125 28.2752 50.1838C31.9518 49.4551 35.2872 47.5197 37.7628 44.6787C40.2384 41.8376 41.7155 38.2499 41.9646 34.4733C42.2137 30.6967 41.2207 26.9428 39.14 23.7951L40.8 22.6738C42.7182 25.5642 43.8224 28.927 43.9946 32.4025C44.1667 35.8779 43.4003 39.3353 41.7774 42.4047C40.1544 45.474 37.7359 48.0399 34.7807 49.8279C31.8255 51.6159 28.4447 52.5586 25 52.5553Z" fill="white"/>
<path d="M28 0.0234375H26V8.1051H28V0.0234375Z" fill="white"/>
<path d="M13.8299 2.49647L12.1658 3.61719L16.1651 9.6775L17.8292 8.55677L13.8299 2.49647Z" fill="white"/>
<path d="M38.34 0.872684L34.3745 6.91797L36.0345 8.02918L40 1.98389L38.34 0.872684Z" fill="white"/>
<path d="M62 10.125H60V12.1454H62V10.125Z" fill="white"/>
<path d="M58 10.125H56V12.1454H58V10.125Z" fill="white"/>
<path d="M54 10.125H52V12.1454H54V10.125Z" fill="white"/>
<path d="M4 37.4019C3.20887 37.4019 2.43552 37.1649 1.77773 36.7209C1.11993 36.2768 0.60724 35.6458 0.304489 34.9074C0.00173879 34.1691 -0.0774822 33.3566 0.0768587 32.5728C0.2312 31.7889 0.61216 31.0689 1.17157 30.5038C1.73098 29.9387 2.44371 29.5539 3.21964 29.398C3.99556 29.242 4.79983 29.322 5.53073 29.6279C6.26164 29.9337 6.88636 30.4516 7.32588 31.1161C7.76541 31.7806 8 32.5619 8 33.3611C8 34.4328 7.57858 35.4606 6.82843 36.2183C6.07828 36.9761 5.06087 37.4019 4 37.4019ZM4 31.3407C3.60444 31.3407 3.21775 31.4592 2.88886 31.6812C2.55996 31.9032 2.30361 32.2187 2.15224 32.5879C2.00086 32.9571 1.96127 33.3633 2.03844 33.7552C2.11561 34.1471 2.30608 34.5072 2.58579 34.7897C2.86549 35.0723 3.22186 35.2647 3.60982 35.3427C3.99778 35.4206 4.39991 35.3806 4.76537 35.2277C5.13082 35.0747 5.44317 34.8158 5.66293 34.4836C5.8827 34.1513 6 33.7607 6 33.3611C6 32.8252 5.78929 32.3113 5.41422 31.9324C5.03914 31.5536 4.53043 31.3407 4 31.3407Z" fill="white"/>
</svg>
