<svg width="240" height="125" viewBox="0 0 240 125" fill="none" xmlns="http://www.w3.org/2000/svg">
<g filter="url(#filter0_d_306_10102)">
<rect x="40" y="31" width="160" height="45" rx="22.5" fill="#31353D"/>
<rect x="41" y="32" width="158" height="43" rx="21.5" stroke="white" stroke-width="2"/>
</g>
<path d="M70.5128 49L65 54L70.5128 59L71.6667 57.9302L68.1538 54.7442H79V53.2558H68.1538L71.6667 50.0698L70.5128 49Z" fill="#E6B260"/>
<path d="M96.3398 58H88.0122V48.9106H92.2456C93.6909 48.9106 94.7334 49.2085 95.373 49.8042C96.0176 50.395 96.3398 51.3716 96.3398 52.7339V58ZM89.9897 50.6831V56.2275H94.355V52.9609C94.355 52.1309 94.1987 51.5449 93.8862 51.2031C93.5737 50.8564 93.0269 50.6831 92.2456 50.6831H89.9897ZM98.5151 48.9106H100.493V53.7373H98.5151V48.9106ZM102.683 48.9106H105.085L108.051 53.0195C108.359 52.7412 108.593 52.4141 108.754 52.0381C108.916 51.6621 109.03 51.1543 109.099 50.5146L109.252 48.9106H111.274L111.098 50.6465C111.049 51.1348 110.949 51.5742 110.798 51.9648C110.651 52.3506 110.451 52.7095 110.197 53.0415C109.948 53.3735 109.548 53.7861 108.996 54.2793L111.728 58H109.34L105.686 52.9316C105.422 53.083 105.236 53.3052 105.129 53.5981C105.021 53.8862 104.897 54.4697 104.755 55.3486L104.301 58H102.25L102.866 54.9678C103.042 54.1328 103.203 53.5347 103.349 53.1733C103.496 52.812 103.676 52.5264 103.891 52.3164C104.111 52.1016 104.414 51.9111 104.799 51.7451L102.683 48.9106ZM117.258 48.9106H119.279L119.06 51.4155C119.001 52.104 118.891 52.6484 118.73 53.0488C118.569 53.4492 118.342 53.7617 118.049 53.9863C117.761 54.2109 117.302 54.3989 116.672 54.5503L115.573 54.8066L115.874 56.3081H116.049C117.27 56.3081 118.212 56.2056 118.876 56.0005C119.541 55.7905 120.034 55.4536 120.356 54.9897C120.683 54.521 120.9 53.8105 121.008 52.8584L121.469 48.9106H123.513L123.044 52.8071C122.893 54.0669 122.658 55.0117 122.341 55.6416C122.023 56.2715 121.564 56.7573 120.964 57.0991C120.363 57.4409 119.543 57.6899 118.503 57.8462C117.463 57.9976 116.008 58.0732 114.138 58.0732L112.424 48.9106H114.497L115.295 53.2905L115.83 53.188C116.162 53.1245 116.406 53.0171 116.562 52.8657C116.723 52.7095 116.845 52.48 116.928 52.1772C117.011 51.8696 117.084 51.3252 117.148 50.5439L117.258 48.9106ZM125.366 48.9106H127.343V58H125.366V48.9106ZM133.884 58H129.145V56.2275H131.906V52.873C131.906 52.2139 131.862 51.7451 131.774 51.4668C131.687 51.1836 131.54 50.9834 131.335 50.8662C131.13 50.7441 130.83 50.6831 130.434 50.6831H129.562V48.9106H130.808C131.647 48.9106 132.275 49.0229 132.69 49.2476C133.105 49.4722 133.408 49.8408 133.598 50.3535C133.789 50.8662 133.884 51.5791 133.884 52.4922V58ZM138.33 58H136.352V52.4775H138.33V58ZM144.035 58H142.05V52.7192C142.05 51.9722 141.892 51.4473 141.574 51.1445C141.257 50.8369 140.705 50.6831 139.919 50.6831H136.206V48.9106H140.043C141.484 48.9106 142.509 49.2061 143.12 49.7969C143.73 50.3877 144.035 51.3667 144.035 52.7339V58ZM150.817 56.3081C152.224 55.8491 153.317 55.2412 154.099 54.4844C154.88 53.7275 155.271 52.895 155.271 51.9868C155.271 51.1177 154.726 50.6831 153.637 50.6831H149.917V45.8052H151.938V48.9106H153.967C156.164 48.9106 157.263 49.8701 157.263 51.7891C157.263 53.3027 156.694 54.6382 155.556 55.7954C154.418 56.9526 152.839 57.8315 150.817 58.4321V56.3081ZM165.151 53.6348C165.151 55.0801 164.777 56.1689 164.03 56.9014C163.288 57.6338 162.177 58 160.698 58H158.266V56.2275H160.588C161.462 56.2275 162.109 56.0078 162.529 55.5684C162.949 55.1289 163.159 54.46 163.159 53.5615V53.3638C163.159 52.4507 162.949 51.7769 162.529 51.3423C162.109 50.9028 161.472 50.6831 160.617 50.6831H158.266V48.9106H160.8C163.701 48.9106 165.151 50.3608 165.151 53.2612V53.6348ZM167.092 56.3081C168.498 55.8491 169.592 55.2412 170.373 54.4844C171.154 53.7275 171.545 52.895 171.545 51.9868C171.545 51.1177 171 50.6831 169.912 50.6831H166.191V45.8052H168.212V48.9106H170.241C172.438 48.9106 173.537 49.8701 173.537 51.7891C173.537 53.3027 172.968 54.6382 171.831 55.7954C170.693 56.9526 169.113 57.8315 167.092 58.4321V56.3081Z" fill="white"/>
<defs>
<filter id="filter0_d_306_10102" x="0" y="0" width="240" height="125" filterUnits="userSpaceOnUse" color-interpolation-filters="sRGB">
<feFlood flood-opacity="0" result="BackgroundImageFix"/>
<feColorMatrix in="SourceAlpha" type="matrix" values="0 0 0 0 0 0 0 0 0 0 0 0 0 0 0 0 0 0 127 0" result="hardAlpha"/>
<feOffset dy="9"/>
<feGaussianBlur stdDeviation="20"/>
<feComposite in2="hardAlpha" operator="out"/>
<feColorMatrix type="matrix" values="0 0 0 0 0.192157 0 0 0 0 0.207843 0 0 0 0 0.239216 0 0 0 0.2 0"/>
<feBlend mode="normal" in2="BackgroundImageFix" result="effect1_dropShadow_306_10102"/>
<feBlend mode="normal" in="SourceGraphic" in2="effect1_dropShadow_306_10102" result="shape"/>
</filter>
</defs>
</svg>
