<svg width="140" height="134" viewBox="0 0 140 134" fill="none" xmlns="http://www.w3.org/2000/svg">
<path d="M0 0H140V114C140 125.046 131.046 134 120 134H20C8.9543 134 0 125.046 0 114V0Z" fill="#FF2E00"/>
<path d="M70 21C45.1855 21 25 41.1855 25 66C25 90.8145 45.1855 111 70 111C94.8145 111 115 90.8145 115 66C115 41.1855 94.8145 21 70 21ZM70 24C93.1562 24 112 42.8438 112 66C112 89.1562 93.1562 108 70 108C46.8438 108 28 89.1562 28 66C28 42.8438 46.8438 24 70 24ZM52.668 41.4199C51.9004 41.4199 51.127 41.7188 50.5469 42.3047L46.3047 46.5469C45.1328 47.7129 45.1328 49.6172 46.3047 50.7891L61.5156 66L46.3047 81.2109C45.1328 82.3828 45.1328 84.2871 46.3047 85.4531L50.5469 89.6953C51.7129 90.8672 53.6172 90.8672 54.7891 89.6953L70 74.4844L85.2109 89.6953C85.7969 90.2812 86.5645 90.5801 87.3379 90.5801C88.1055 90.5801 88.873 90.2812 89.4531 89.6953L93.6953 85.4531C94.8672 84.2871 94.8672 82.3828 93.6953 81.2109L78.4844 66L93.6953 50.7891C94.8672 49.6172 94.8672 47.7129 93.6953 46.5469L89.4531 42.3047C88.2871 41.1328 86.3828 41.1328 85.2109 42.3047L70 57.5156L54.7891 42.3047C54.2031 41.7188 53.4355 41.4199 52.668 41.4199ZM52.6621 44.4199L70 61.7578L87.3379 44.4199L91.5801 48.6621L74.2422 66L91.5801 83.3379L87.3379 87.5801L70 70.2422L52.6621 87.5801L48.4199 83.3379L65.7578 66L48.4199 48.6621L52.6621 44.4199ZM96.5137 52.8281C96.1328 52.8281 95.752 52.9746 95.4531 53.2734C94.8672 53.8535 94.8672 54.8027 95.4531 55.3887L97.5801 57.5156C97.8672 57.8086 98.2539 57.9551 98.6406 57.9551C99.0215 57.9551 99.4082 57.8086 99.6953 57.5156C100.281 56.9297 100.281 55.9805 99.6953 55.3945L97.5801 53.2734C97.2812 52.9746 96.9004 52.8281 96.5137 52.8281ZM91.2109 58.1309C90.8301 58.1309 90.4492 58.2832 90.1562 58.5762C89.5645 59.1621 89.5645 60.1113 90.1562 60.6973L92.2715 62.8184C92.5645 63.1113 92.9512 63.2578 93.3379 63.2578C93.7188 63.2578 94.1055 63.1113 94.3984 62.8184C94.9844 62.2324 94.9844 61.2832 94.3984 60.6973L92.2715 58.5762C91.9785 58.2832 91.5977 58.1309 91.2109 58.1309ZM51.9707 63.4395C51.584 63.4395 51.1973 63.5859 50.9043 63.8789C50.3184 64.4648 50.3184 65.4141 50.9043 66L53.0312 68.1211C53.3242 68.4141 53.7051 68.5605 54.0918 68.5605C54.4785 68.5605 54.8594 68.4141 55.1523 68.1211C55.7383 67.5352 55.7383 66.5859 55.1523 66L53.0312 63.8789C52.7324 63.5859 52.3516 63.4395 51.9707 63.4395ZM85.9082 63.4395C85.5215 63.4395 85.1406 63.5859 84.8477 63.8789C84.2617 64.4648 84.2617 65.4141 84.8477 66L86.9688 68.1211C87.2617 68.4141 87.6484 68.5605 88.0293 68.5605C88.416 68.5605 88.8027 68.4141 89.0957 68.1211C89.6816 67.5352 89.6816 66.5859 89.0957 66L86.9688 63.8789C86.6758 63.5859 86.2949 63.4395 85.9082 63.4395ZM46.6621 68.7422C46.2812 68.7422 45.9004 68.8887 45.6016 69.1816C45.0156 69.7676 45.0156 70.7168 45.6016 71.3027L47.7285 73.4238C48.0156 73.7168 48.4023 73.8633 48.7891 73.8633C49.1699 73.8633 49.5566 73.7168 49.8438 73.4238C50.4355 72.8379 50.4355 71.8887 49.8438 71.3027L47.7285 69.1816C47.4297 68.8887 47.0488 68.7422 46.6621 68.7422ZM41.3594 74.0449C40.9785 74.0449 40.5977 74.1914 40.3047 74.4844C39.7129 75.0703 39.7129 76.0195 40.3047 76.6055L42.4199 78.7266C42.7129 79.0195 43.0996 79.1719 43.4863 79.1719C43.8672 79.1719 44.2539 79.0195 44.5469 78.7266C45.1328 78.1465 45.1328 77.1973 44.5469 76.6113L42.4199 74.4844C42.127 74.1914 41.7461 74.0449 41.3594 74.0449Z" fill="white"/>
</svg>
