<svg width="90" height="90" viewBox="0 0 90 90" fill="none" xmlns="http://www.w3.org/2000/svg">
<path d="M45 0C20.1855 0 0 20.1855 0 45C0 69.8145 20.1855 90 45 90C69.8145 90 90 69.8145 90 45C90 20.1855 69.8145 0 45 0ZM45 3C68.1562 3 87 21.8438 87 45C87 68.1562 68.1562 87 45 87C21.8438 87 3 68.1562 3 45C3 21.8438 21.8438 3 45 3ZM27.668 20.4199C26.9004 20.4199 26.127 20.7188 25.5469 21.3047L21.3047 25.5469C20.1328 26.7129 20.1328 28.6172 21.3047 29.7891L36.5156 45L21.3047 60.2109C20.1328 61.3828 20.1328 63.2871 21.3047 64.4531L25.5469 68.6953C26.7129 69.8672 28.6172 69.8672 29.7891 68.6953L45 53.4844L60.2109 68.6953C60.7969 69.2812 61.5645 69.5801 62.3379 69.5801C63.1055 69.5801 63.873 69.2812 64.4531 68.6953L68.6953 64.4531C69.8672 63.2871 69.8672 61.3828 68.6953 60.2109L53.4844 45L68.6953 29.7891C69.8672 28.6172 69.8672 26.7129 68.6953 25.5469L64.4531 21.3047C63.2871 20.1328 61.3828 20.1328 60.2109 21.3047L45 36.5156L29.7891 21.3047C29.2031 20.7188 28.4355 20.4199 27.668 20.4199ZM27.6621 23.4199L45 40.7578L62.3379 23.4199L66.5801 27.6621L49.2422 45L66.5801 62.3379L62.3379 66.5801L45 49.2422L27.6621 66.5801L23.4199 62.3379L40.7578 45L23.4199 27.6621L27.6621 23.4199ZM71.5137 31.8281C71.1328 31.8281 70.752 31.9746 70.4531 32.2734C69.8672 32.8535 69.8672 33.8027 70.4531 34.3887L72.5801 36.5156C72.8672 36.8086 73.2539 36.9551 73.6406 36.9551C74.0215 36.9551 74.4082 36.8086 74.6953 36.5156C75.2812 35.9297 75.2812 34.9805 74.6953 34.3945L72.5801 32.2734C72.2812 31.9746 71.9004 31.8281 71.5137 31.8281ZM66.2109 37.1309C65.8301 37.1309 65.4492 37.2832 65.1562 37.5762C64.5645 38.1621 64.5645 39.1113 65.1562 39.6973L67.2715 41.8184C67.5645 42.1113 67.9512 42.2578 68.3379 42.2578C68.7188 42.2578 69.1055 42.1113 69.3984 41.8184C69.9844 41.2324 69.9844 40.2832 69.3984 39.6973L67.2715 37.5762C66.9785 37.2832 66.5977 37.1309 66.2109 37.1309ZM26.9707 42.4395C26.584 42.4395 26.1973 42.5859 25.9043 42.8789C25.3184 43.4648 25.3184 44.4141 25.9043 45L28.0312 47.1211C28.3242 47.4141 28.7051 47.5605 29.0918 47.5605C29.4785 47.5605 29.8594 47.4141 30.1523 47.1211C30.7383 46.5352 30.7383 45.5859 30.1523 45L28.0312 42.8789C27.7324 42.5859 27.3516 42.4395 26.9707 42.4395ZM60.9082 42.4395C60.5215 42.4395 60.1406 42.5859 59.8477 42.8789C59.2617 43.4648 59.2617 44.4141 59.8477 45L61.9688 47.1211C62.2617 47.4141 62.6484 47.5605 63.0293 47.5605C63.416 47.5605 63.8027 47.4141 64.0957 47.1211C64.6816 46.5352 64.6816 45.5859 64.0957 45L61.9688 42.8789C61.6758 42.5859 61.2949 42.4395 60.9082 42.4395ZM21.6621 47.7422C21.2812 47.7422 20.9004 47.8887 20.6016 48.1816C20.0156 48.7676 20.0156 49.7168 20.6016 50.3027L22.7285 52.4238C23.0156 52.7168 23.4023 52.8633 23.7891 52.8633C24.1699 52.8633 24.5566 52.7168 24.8438 52.4238C25.4355 51.8379 25.4355 50.8887 24.8438 50.3027L22.7285 48.1816C22.4297 47.8887 22.0488 47.7422 21.6621 47.7422ZM16.3594 53.0449C15.9785 53.0449 15.5977 53.1914 15.3047 53.4844C14.7129 54.0703 14.7129 55.0195 15.3047 55.6055L17.4199 57.7266C17.7129 58.0195 18.0996 58.1719 18.4863 58.1719C18.8672 58.1719 19.2539 58.0195 19.5469 57.7266C20.1328 57.1465 20.1328 56.1973 19.5469 55.6113L17.4199 53.4844C17.127 53.1914 16.7461 53.0449 16.3594 53.0449Z" fill="white"/>
</svg>
