<svg width="90" height="82" viewBox="0 0 90 82" fill="none" xmlns="http://www.w3.org/2000/svg">
<path d="M17.8914 0C16.6664 0 15.4925 0.526081 14.6701 1.441C13.8478 2.36165 13.4395 3.59107 13.5586 4.82622L14.1767 11.1449C10.4167 9.52092 5.98743 10.2929 2.98166 13.3179C-0.993888 17.3321 -0.993888 23.8566 2.98166 27.8651C5.92505 30.8329 14.4603 32.7257 19.2809 33.5834C19.3716 33.6006 19.4567 33.6063 19.5417 33.6063C19.6892 33.6063 19.831 33.5777 19.9727 33.5319C21.555 36.86 23.4152 40.0622 25.593 43.0643L36.8334 58.578H27.5779C25.179 58.578 23.2224 60.5508 23.2224 62.9696V73.2167H21.7705C19.3716 73.2167 17.415 75.1895 17.415 77.6084C17.415 80.0272 19.3716 82 21.7705 82H68.2295C70.6284 82 72.585 80.0272 72.585 77.6084C72.585 75.1895 70.6284 73.2167 68.2295 73.2167H66.7776V62.9696C66.7776 60.5508 64.821 58.578 62.4221 58.578H53.1666L64.407 43.0643C66.5848 40.0622 68.445 36.8657 70.0273 33.5319C70.169 33.5777 70.3108 33.6063 70.4583 33.6063C70.5433 33.6063 70.6284 33.6006 70.7191 33.5834C75.5397 32.7257 84.0806 30.8329 87.0183 27.8651C90.9939 23.8566 90.9939 17.3321 87.0183 13.3179C84.0126 10.2872 79.5833 9.52092 75.8233 11.1449L76.4414 4.82622C76.5605 3.59107 76.1522 2.36165 75.3299 1.441C74.5075 0.526081 73.3336 0 72.1086 0H17.8914ZM17.8914 2.92775H72.1086C72.5226 2.92775 72.8969 3.0993 73.1748 3.40809C73.4584 3.72259 73.5888 4.12287 73.5491 4.54031L72.6984 13.255C71.7003 23.3992 68.031 33.1088 62.0648 41.3374L49.5654 58.578H40.4346L27.9352 41.3374C21.9747 33.1088 18.2941 23.3992 17.3016 13.255L16.8706 8.80614H56.6147C57.4144 8.80614 58.0666 8.15425 58.0666 7.34226C58.0666 6.53027 57.4144 5.87838 56.6147 5.87838H16.5813L16.4509 4.54031C16.4112 4.12287 16.5416 3.72259 16.8195 3.40809C17.0974 3.0993 17.4774 2.92775 17.8914 2.92775ZM62.4221 5.87838C61.6225 5.87838 60.9703 6.53027 60.9703 7.34226C60.9703 8.15425 61.6225 8.80614 62.4221 8.80614H68.2295C69.0291 8.80614 69.6813 8.15425 69.6813 7.34226C69.6813 6.53027 69.0291 5.87838 68.2295 5.87838H62.4221ZM9.58868 13.2492C11.2504 13.112 12.9687 13.5523 14.4206 14.593C14.466 14.6273 14.517 14.6331 14.5567 14.6559C15.1975 20.1169 16.5757 25.4406 18.64 30.4898C13.0992 29.4262 6.91751 27.6993 5.03466 25.8008C3.65654 24.4113 2.89659 22.5643 2.89659 20.5972C2.89659 18.6301 3.65654 16.7831 5.03466 15.3936C6.29935 14.1127 7.92133 13.3922 9.58868 13.2492ZM80.4113 13.255C82.0787 13.3979 83.7007 14.1184 84.9653 15.3936C86.3435 16.7774 87.1034 18.6301 87.1034 20.5972C87.1034 22.5643 86.3435 24.4113 84.9653 25.8008C83.0825 27.6993 76.9065 29.4262 71.36 30.4898C73.4243 25.4406 74.8025 20.1169 75.4433 14.6559C75.483 14.6331 75.534 14.6273 75.5794 14.593C77.0313 13.5523 78.744 13.112 80.4113 13.255ZM45.1475 14.6674C44.7164 14.6273 44.3138 14.7817 43.9848 15.0962L39.6293 19.4879C39.0509 20.0654 39.0509 20.9861 39.6293 21.5579C40.2078 22.1297 41.0812 22.1297 41.6596 21.5579L43.5482 19.6651V38.0837H40.7012C40.0036 38.0837 39.3061 38.6669 39.3061 39.5476C39.3061 40.4282 39.8278 41.0114 40.7012 41.0114H49.3555C50.2289 41.0114 50.7507 40.4282 50.7507 39.5476C50.7507 38.6669 50.2289 38.0837 49.3555 38.0837H46.4518V16.1312C46.4518 15.5423 46.1626 14.999 45.5841 14.776C45.4367 14.7188 45.2892 14.6845 45.1475 14.6674ZM27.5779 61.5057H62.4221C63.2217 61.5057 63.8739 62.1633 63.8739 62.9696V73.2167H26.1261V62.9696C26.1261 62.1633 26.7783 61.5057 27.5779 61.5057ZM30.4816 64.4335C29.6819 64.4335 29.0297 65.0854 29.0297 65.8974V68.8251C29.0297 69.6371 29.6819 70.289 30.4816 70.289C31.2812 70.289 31.9334 69.6371 31.9334 68.8251V65.8974C31.9334 65.0854 31.2812 64.4335 30.4816 64.4335ZM37.7408 64.4335C36.9411 64.4335 36.289 65.0854 36.289 65.8974V68.8251C36.289 69.6371 36.9411 70.289 37.7408 70.289C38.5404 70.289 39.1926 69.6371 39.1926 68.8251V65.8974C39.1926 65.0854 38.5404 64.4335 37.7408 64.4335ZM45 64.4335C44.2004 64.4335 43.5482 65.0854 43.5482 65.8974V68.8251C43.5482 69.6371 44.2004 70.289 45 70.289C45.7996 70.289 46.4518 69.6371 46.4518 68.8251V65.8974C46.4518 65.0854 45.7996 64.4335 45 64.4335ZM52.2592 64.4335C51.4596 64.4335 50.8074 65.0854 50.8074 65.8974V68.8251C50.8074 69.6371 51.4596 70.289 52.2592 70.289C53.0589 70.289 53.711 69.6371 53.711 68.8251V65.8974C53.711 65.0854 53.0589 64.4335 52.2592 64.4335ZM59.5184 64.4335C58.7188 64.4335 58.0666 65.0854 58.0666 65.8974V68.8251C58.0666 69.6371 58.7188 70.289 59.5184 70.289C60.3181 70.289 60.9703 69.6371 60.9703 68.8251V65.8974C60.9703 65.0854 60.3181 64.4335 59.5184 64.4335ZM21.7705 76.1445H68.2295C69.0291 76.1445 69.6813 76.8021 69.6813 77.6084C69.6813 78.4146 69.0291 79.0723 68.2295 79.0723H21.7705C20.9709 79.0723 20.3187 78.4146 20.3187 77.6084C20.3187 76.8021 20.9709 76.1445 21.7705 76.1445Z" fill="white"/>
</svg>
