<svg width="140" height="134" viewBox="0 0 140 134" fill="none" xmlns="http://www.w3.org/2000/svg">
<path d="M0 0H140V114C140 125.046 131.046 134 120 134H20C8.9543 134 0 125.046 0 114V0Z" fill="#23B920"/>
<path d="M42.8914 26C41.6664 26 40.4925 26.5261 39.6701 27.441C38.8478 28.3616 38.4395 29.5911 38.5586 30.8262L39.1767 37.1449C35.4167 35.5209 30.9874 36.2929 27.9817 39.3179C24.0061 43.3321 24.0061 49.8566 27.9817 53.8651C30.925 56.8329 39.4603 58.7257 44.2809 59.5834C44.3716 59.6006 44.4567 59.6063 44.5417 59.6063C44.6892 59.6063 44.831 59.5777 44.9727 59.5319C46.555 62.86 48.4152 66.0622 50.593 69.0643L61.8334 84.578H52.5779C50.179 84.578 48.2224 86.5508 48.2224 88.9696V99.2167H46.7705C44.3716 99.2167 42.415 101.19 42.415 103.608C42.415 106.027 44.3716 108 46.7705 108H93.2295C95.6284 108 97.585 106.027 97.585 103.608C97.585 101.19 95.6284 99.2167 93.2295 99.2167H91.7776V88.9696C91.7776 86.5508 89.821 84.578 87.4221 84.578H78.1666L89.407 69.0643C91.5848 66.0622 93.445 62.8657 95.0273 59.5319C95.169 59.5777 95.3108 59.6063 95.4583 59.6063C95.5433 59.6063 95.6284 59.6006 95.7191 59.5834C100.54 58.7257 109.081 56.8329 112.018 53.8651C115.994 49.8566 115.994 43.3321 112.018 39.3179C109.013 36.2872 104.583 35.5209 100.823 37.1449L101.441 30.8262C101.561 29.5911 101.152 28.3616 100.33 27.441C99.5075 26.5261 98.3336 26 97.1086 26H42.8914ZM42.8914 28.9278H97.1086C97.5226 28.9278 97.8969 29.0993 98.1748 29.4081C98.4584 29.7226 98.5888 30.1229 98.5491 30.5403L97.6984 39.255C96.7003 49.3992 93.031 59.1088 87.0648 67.3374L74.5654 84.578H65.4346L52.9352 67.3374C46.9747 59.1088 43.2941 49.3992 42.3016 39.255L41.8706 34.8061H81.6147C82.4144 34.8061 83.0666 34.1543 83.0666 33.3423C83.0666 32.5303 82.4144 31.8784 81.6147 31.8784H41.5813L41.4509 30.5403C41.4112 30.1229 41.5416 29.7226 41.8195 29.4081C42.0974 29.0993 42.4774 28.9278 42.8914 28.9278ZM87.4221 31.8784C86.6225 31.8784 85.9703 32.5303 85.9703 33.3423C85.9703 34.1543 86.6225 34.8061 87.4221 34.8061H93.2295C94.0291 34.8061 94.6813 34.1543 94.6813 33.3423C94.6813 32.5303 94.0291 31.8784 93.2295 31.8784H87.4221ZM34.5887 39.2492C36.2504 39.112 37.9687 39.5523 39.4206 40.593C39.466 40.6273 39.517 40.6331 39.5567 40.6559C40.1975 46.1169 41.5757 51.4406 43.64 56.4898C38.0992 55.4262 31.9175 53.6993 30.0347 51.8008C28.6565 50.4113 27.8966 48.5643 27.8966 46.5972C27.8966 44.6301 28.6565 42.7831 30.0347 41.3936C31.2993 40.1127 32.9213 39.3922 34.5887 39.2492ZM105.411 39.255C107.079 39.3979 108.701 40.1184 109.965 41.3936C111.343 42.7774 112.103 44.6301 112.103 46.5972C112.103 48.5643 111.343 50.4113 109.965 51.8008C108.082 53.6993 101.906 55.4262 96.36 56.4898C98.4243 51.4406 99.8025 46.1169 100.443 40.6559C100.483 40.6331 100.534 40.6273 100.579 40.593C102.031 39.5523 103.744 39.112 105.411 39.255ZM70.1475 40.6674C69.7164 40.6273 69.3138 40.7817 68.9848 41.0962L64.6293 45.4879C64.0509 46.0654 64.0509 46.9861 64.6293 47.5579C65.2078 48.1297 66.0812 48.1297 66.6596 47.5579L68.5482 45.6651V64.0837H65.7012C65.0036 64.0837 64.3061 64.6669 64.3061 65.5476C64.3061 66.4282 64.8278 67.0114 65.7012 67.0114H74.3555C75.2289 67.0114 75.7507 66.4282 75.7507 65.5476C75.7507 64.6669 75.2289 64.0837 74.3555 64.0837H71.4518V42.1312C71.4518 41.5423 71.1626 40.999 70.5841 40.776C70.4367 40.7188 70.2892 40.6845 70.1475 40.6674ZM52.5779 87.5057H87.4221C88.2217 87.5057 88.8739 88.1633 88.8739 88.9696V99.2167H51.1261V88.9696C51.1261 88.1633 51.7783 87.5057 52.5779 87.5057ZM55.4816 90.4335C54.6819 90.4335 54.0297 91.0854 54.0297 91.8974V94.8251C54.0297 95.6371 54.6819 96.289 55.4816 96.289C56.2812 96.289 56.9334 95.6371 56.9334 94.8251V91.8974C56.9334 91.0854 56.2812 90.4335 55.4816 90.4335ZM62.7408 90.4335C61.9411 90.4335 61.289 91.0854 61.289 91.8974V94.8251C61.289 95.6371 61.9411 96.289 62.7408 96.289C63.5404 96.289 64.1926 95.6371 64.1926 94.8251V91.8974C64.1926 91.0854 63.5404 90.4335 62.7408 90.4335ZM70 90.4335C69.2004 90.4335 68.5482 91.0854 68.5482 91.8974V94.8251C68.5482 95.6371 69.2004 96.289 70 96.289C70.7996 96.289 71.4518 95.6371 71.4518 94.8251V91.8974C71.4518 91.0854 70.7996 90.4335 70 90.4335ZM77.2592 90.4335C76.4596 90.4335 75.8074 91.0854 75.8074 91.8974V94.8251C75.8074 95.6371 76.4596 96.289 77.2592 96.289C78.0589 96.289 78.711 95.6371 78.711 94.8251V91.8974C78.711 91.0854 78.0589 90.4335 77.2592 90.4335ZM84.5184 90.4335C83.7188 90.4335 83.0666 91.0854 83.0666 91.8974V94.8251C83.0666 95.6371 83.7188 96.289 84.5184 96.289C85.3181 96.289 85.9703 95.6371 85.9703 94.8251V91.8974C85.9703 91.0854 85.3181 90.4335 84.5184 90.4335ZM46.7705 102.144H93.2295C94.0291 102.144 94.6813 102.802 94.6813 103.608C94.6813 104.415 94.0291 105.072 93.2295 105.072H46.7705C45.9709 105.072 45.3187 104.415 45.3187 103.608C45.3187 102.802 45.9709 102.144 46.7705 102.144Z" fill="white"/>
</svg>
