<svg width="140" height="134" viewBox="0 0 140 134" fill="none" xmlns="http://www.w3.org/2000/svg">
<path d="M0 0H140V114C140 125.046 131.046 134 120 134H20C8.9543 134 0 125.046 0 114V0Z" fill="#FFC700"/>
<path d="M50.2802 25C47.4639 25 44.8863 26.5394 43.5497 29.0216L25.4584 62.6206C24.2352 64.888 24.2352 67.5969 25.4584 69.8643L43.5497 103.469H43.5557C44.8863 105.945 47.4639 107.485 50.2802 107.485H88.8018C91.6181 107.485 94.1958 105.945 95.5323 103.469L113.624 69.8643C114.847 67.5969 114.847 64.888 113.624 62.6206L95.5323 29.0156C94.1958 26.5394 91.6181 25 88.8018 25H50.2802ZM50.2802 28.055H88.8018C90.4904 28.055 92.0358 28.9739 92.8353 30.4656L110.933 64.0705C111.667 65.4309 111.667 67.0539 110.933 68.4143L92.8413 102.019C92.0418 103.505 90.4904 104.43 88.8018 104.43H50.2802C48.5916 104.43 47.0462 103.511 46.2467 102.019L28.1435 68.4143C27.4155 67.0539 27.4155 65.4309 28.1494 64.0705L46.2407 30.4656C47.0403 28.9798 48.5916 28.055 50.2802 28.055ZM54.5465 34.165C52.8758 34.165 51.3364 35.0719 50.5308 36.5398L35.411 64.0347C34.6473 65.419 34.6473 67.0658 35.411 68.4501L50.5308 95.951C51.3364 97.4069 52.8758 98.3199 54.5465 98.3199H55.7935C56.6408 98.3199 57.321 97.6396 57.321 96.7924C57.321 95.9451 56.6408 95.2649 55.7935 95.2649H54.5465C53.9916 95.2649 53.4784 94.9606 53.2099 94.4772L38.0841 66.9823C37.8335 66.5169 37.8335 65.9679 38.0841 65.5025L53.2099 38.0076C53.4725 37.5243 53.9856 37.22 54.5465 37.22H84.5355C85.0964 37.22 85.6096 37.5243 85.8781 38.0076L100.998 65.5025C101.249 65.9679 101.249 66.5169 100.998 66.9823L85.8781 94.4772C85.6096 94.9606 85.0964 95.2649 84.5355 95.2649H83.2885C82.4412 95.2649 81.761 95.9451 81.761 96.7924C81.761 97.6396 82.4412 98.3199 83.2885 98.3199H84.5355C86.2062 98.3199 87.7457 97.4129 88.5512 95.9451L103.671 68.4501C104.435 67.0658 104.435 65.419 103.671 64.0347L88.5512 36.5398C87.7457 35.0779 86.2062 34.165 84.5355 34.165H54.5465ZM69.6007 49.44C69.4694 49.44 69.356 49.4817 69.2367 49.5116C68.5446 49.5832 67.8643 49.8576 67.381 50.3827C66.8261 50.9853 66.5457 51.7968 66.6054 52.6083L68.0195 70.9442H68.0732V72.3524C68.0732 73.1997 68.7534 73.8799 69.6007 73.8799C70.448 73.8799 71.1282 73.1997 71.1282 72.3524V70.085L72.4767 52.6083C72.5363 51.7968 72.2559 50.9853 71.701 50.3827C71.2714 49.9173 70.6866 49.6369 70.0721 49.5354C69.9229 49.4877 69.7678 49.44 69.6007 49.44ZM69.6007 76.9349C67.9121 76.9349 66.5457 78.3013 66.5457 79.9899C66.5457 81.6785 67.9121 83.0449 69.6007 83.0449C71.2893 83.0449 72.6557 81.6785 72.6557 79.9899C72.6557 78.3013 71.2893 76.9349 69.6007 76.9349ZM61.9035 93.7374C61.0562 93.7374 60.376 94.4176 60.376 95.2649V98.3199C60.376 99.1671 61.0562 99.8473 61.9035 99.8473C62.7508 99.8473 63.431 99.1671 63.431 98.3199V95.2649C63.431 94.4176 62.7508 93.7374 61.9035 93.7374ZM69.541 93.7374C68.6937 93.7374 68.0135 94.4176 68.0135 95.2649V98.3199C68.0135 99.1671 68.6937 99.8473 69.541 99.8473C70.3883 99.8473 71.0685 99.1671 71.0685 98.3199V95.2649C71.0685 94.4176 70.3883 93.7374 69.541 93.7374ZM77.1785 93.7374C76.3312 93.7374 75.651 94.4176 75.651 95.2649V98.3199C75.651 99.1671 76.3312 99.8473 77.1785 99.8473C78.0258 99.8473 78.706 99.1671 78.706 98.3199V95.2649C78.706 94.4176 78.0258 93.7374 77.1785 93.7374Z" fill="white"/>
</svg>
