<svg width="91" height="83" viewBox="0 0 91 83" fill="none" xmlns="http://www.w3.org/2000/svg">
<path d="M26.2802 0C23.4639 0 20.8863 1.53943 19.5497 4.02161L1.45841 37.6206C0.235218 39.888 0.235218 42.5969 1.45841 44.8643L19.5497 78.4692H19.5557C20.8863 80.9454 23.4639 82.4848 26.2802 82.4848H64.8018C67.6181 82.4848 70.1958 80.9454 71.5323 78.4692L89.6236 44.8643C90.8468 42.5969 90.8468 39.888 89.6236 37.6206L71.5323 4.01565C70.1958 1.53943 67.6181 0 64.8018 0H26.2802ZM26.2802 3.05499H64.8018C66.4904 3.05499 68.0358 3.97388 68.8353 5.46557L86.9326 39.0705C87.6665 40.4309 87.6665 42.0539 86.9326 43.4143L68.8413 77.0193C68.0418 78.505 66.4904 79.4298 64.8018 79.4298H26.2802C24.5916 79.4298 23.0462 78.511 22.2467 77.0193L4.14346 43.4143C3.41551 42.0539 3.41551 40.4309 4.14943 39.0705L22.2407 5.46557C23.0403 3.97985 24.5916 3.05499 26.2802 3.05499ZM30.5465 9.16498C28.8758 9.16498 27.3364 10.0719 26.5308 11.5398L11.411 39.0347C10.6473 40.419 10.6473 42.0658 11.411 43.4501L26.5308 70.951C27.3364 72.4069 28.8758 73.3199 30.5465 73.3199H31.7935C32.6408 73.3199 33.321 72.6396 33.321 71.7924C33.321 70.9451 32.6408 70.2649 31.7935 70.2649H30.5465C29.9916 70.2649 29.4784 69.9606 29.2099 69.4772L14.0841 41.9823C13.8335 41.5169 13.8335 40.9679 14.0841 40.5025L29.2099 13.0076C29.4725 12.5243 29.9856 12.22 30.5465 12.22H60.5355C61.0964 12.22 61.6096 12.5243 61.8781 13.0076L76.9979 40.5025C77.2485 40.9679 77.2485 41.5169 76.9979 41.9823L61.8781 69.4772C61.6096 69.9606 61.0964 70.2649 60.5355 70.2649H59.2885C58.4412 70.2649 57.761 70.9451 57.761 71.7924C57.761 72.6396 58.4412 73.3199 59.2885 73.3199H60.5355C62.2062 73.3199 63.7457 72.4129 64.5512 70.9451L79.671 43.4501C80.4348 42.0658 80.4348 40.419 79.671 39.0347L64.5512 11.5398C63.7457 10.0779 62.2062 9.16498 60.5355 9.16498H30.5465ZM45.6007 24.44C45.4694 24.44 45.356 24.4817 45.2367 24.5116C44.5446 24.5832 43.8643 24.8576 43.381 25.3827C42.8261 25.9853 42.5457 26.7968 42.6054 27.6083L44.0195 45.9442H44.0732V47.3524C44.0732 48.1997 44.7534 48.8799 45.6007 48.8799C46.448 48.8799 47.1282 48.1997 47.1282 47.3524V45.085L48.4767 27.6083C48.5363 26.7968 48.2559 25.9853 47.701 25.3827C47.2714 24.9173 46.6866 24.6369 46.0721 24.5354C45.9229 24.4877 45.7678 24.44 45.6007 24.44ZM45.6007 51.9349C43.9121 51.9349 42.5457 53.3013 42.5457 54.9899C42.5457 56.6785 43.9121 58.0449 45.6007 58.0449C47.2893 58.0449 48.6557 56.6785 48.6557 54.9899C48.6557 53.3013 47.2893 51.9349 45.6007 51.9349ZM37.9035 68.7374C37.0562 68.7374 36.376 69.4176 36.376 70.2649V73.3199C36.376 74.1671 37.0562 74.8474 37.9035 74.8474C38.7508 74.8474 39.431 74.1671 39.431 73.3199V70.2649C39.431 69.4176 38.7508 68.7374 37.9035 68.7374ZM45.541 68.7374C44.6937 68.7374 44.0135 69.4176 44.0135 70.2649V73.3199C44.0135 74.1671 44.6937 74.8474 45.541 74.8474C46.3883 74.8474 47.0685 74.1671 47.0685 73.3199V70.2649C47.0685 69.4176 46.3883 68.7374 45.541 68.7374ZM53.1785 68.7374C52.3312 68.7374 51.651 69.4176 51.651 70.2649V73.3199C51.651 74.1671 52.3312 74.8474 53.1785 74.8474C54.0258 74.8474 54.706 74.1671 54.706 73.3199V70.2649C54.706 69.4176 54.0258 68.7374 53.1785 68.7374Z" fill="white"/>
</svg>
