<svg
      id="svg"
      width="100"
      height="67"
      viewBox="0 0 100 67"
      fill="none"
      xmlns="http://www.w3.org/2000/svg"
    >
      <mask id="path-1-inside-1_306_10157" fill="white">
        <path
          d="M91.6674 66.9688C87.0248 66.9688 84.2712 64.5961 84.0605 61.1786H88.4997C88.4997 62.3178 89.1318 63.8343 91.8781 63.9286C93.7816 63.9286 94.8351 62.7894 94.8351 61.9332C94.6244 60.6054 92.9316 60.5111 91.246 60.2209C89.3425 59.9452 87.8676 59.5606 86.8069 59.089C85.332 58.3271 84.4819 56.7091 84.4819 55.004C84.4819 51.9638 87.0248 49.5911 91.4567 49.5911C95.6852 49.5911 98.4315 51.7751 98.6349 55.0983H94.4137C94.4137 54.2494 94.203 52.82 91.6674 52.82C89.9746 52.82 88.9211 53.1029 88.7104 54.3364C88.7104 56.0488 92.2995 55.9545 95.0458 56.6147C97.5814 57.2823 99.2743 58.8931 99.2743 61.1786C99.2743 65.358 95.8959 66.9688 91.6674 66.9688"
        />
      </mask>
      <path
        d="M91.6674 66.9688C87.0248 66.9688 84.2712 64.5961 84.0605 61.1786H88.4997C88.4997 62.3178 89.1318 63.8343 91.8781 63.9286C93.7816 63.9286 94.8351 62.7894 94.8351 61.9332C94.6244 60.6054 92.9316 60.5111 91.246 60.2209C89.3425 59.9452 87.8676 59.5606 86.8069 59.089C85.332 58.3271 84.4819 56.7091 84.4819 55.004C84.4819 51.9638 87.0248 49.5911 91.4567 49.5911C95.6852 49.5911 98.4315 51.7751 98.6349 55.0983H94.4137C94.4137 54.2494 94.203 52.82 91.6674 52.82C89.9746 52.82 88.9211 53.1029 88.7104 54.3364C88.7104 56.0488 92.2995 55.9545 95.0458 56.6147C97.5814 57.2823 99.2743 58.8931 99.2743 61.1786C99.2743 65.358 95.8959 66.9688 91.6674 66.9688"
        fill="#555E6F"
      />
      <path
        d="M84.0605 61.1786L62.1473 62.5296L60.7105 39.2238H84.0605V61.1786ZM88.4997 61.1786V39.2238H110.455V61.1786H88.4997ZM91.8781 63.9286V85.8834H91.5012L91.1245 85.8705L91.8781 63.9286ZM94.8351 61.9332L116.519 58.4925L116.79 60.2022V61.9332H94.8351ZM91.246 60.2209L94.3933 38.4928L94.683 38.5348L94.9715 38.5844L91.246 60.2209ZM86.8069 59.089L77.8873 79.1503L77.3009 78.8896L76.7308 78.5951L86.8069 59.089ZM98.6349 55.0983L120.549 53.7568L121.975 77.0531H98.6349V55.0983ZM94.4137 55.0983V77.0531H72.4589V55.0983H94.4137ZM88.7104 54.3364H66.7556V52.4748L67.069 50.6398L88.7104 54.3364ZM95.0458 56.6147L100.178 35.2682L100.407 35.3233L100.635 35.3833L95.0458 56.6147ZM91.6674 88.9236C85.7496 88.9236 78.7128 87.4051 72.6148 82.6006C66.185 77.5347 62.6198 70.1924 62.1473 62.5296L105.974 59.8276C105.712 55.5823 103.629 51.1351 99.7892 48.1099C96.2814 45.3461 92.9426 45.0139 91.6674 45.0139V88.9236ZM84.0605 39.2238H88.4997V83.1335H84.0605V39.2238ZM110.455 61.1786C110.455 57.9348 109.545 52.5777 105.156 47.9082C100.585 43.0456 95.2166 42.0755 92.6317 41.9867L91.1245 85.8705C85.7933 85.6874 78.7358 83.9118 73.1623 77.9827C67.7703 72.2466 66.5449 65.5616 66.5449 61.1786H110.455ZM91.8781 41.9737C88.3983 41.9737 84.2635 43.0518 80.5506 45.9538C77.392 48.4224 72.8803 53.7416 72.8803 61.9332H116.79C116.79 70.981 111.751 77.2979 107.59 80.5502C102.875 84.2357 97.2615 85.8834 91.8781 85.8834V41.9737ZM73.1516 65.374C73.8799 69.9639 76.1474 74.1253 79.4526 77.2061C82.3427 79.9001 85.2302 81.0309 86.4881 81.4612C87.2036 81.7059 87.7723 81.8496 88.097 81.9251C88.4255 82.0014 88.6458 82.0401 88.6735 82.045C88.6906 82.048 88.667 82.0436 88.4408 82.0078C88.2742 81.9814 87.9059 81.9237 87.5205 81.8573L94.9715 38.5844C95.0075 38.5906 95.0609 38.5993 95.3103 38.6388C95.5001 38.6689 95.8869 38.7298 96.303 38.8033C97.0269 38.931 98.7365 39.2434 100.699 39.9147C102.617 40.5709 106.073 41.9923 109.392 45.0865C113.127 48.5676 115.685 53.2387 116.519 58.4925L73.1516 65.374ZM88.0988 81.949C85.1798 81.5262 81.5107 80.7613 77.8873 79.1503L95.7265 39.0277C94.8792 38.651 94.3026 38.4972 94.1636 38.4616C94 38.4196 94.0566 38.444 94.3933 38.4928L88.0988 81.949ZM76.7308 78.5951C66.8104 73.4706 62.5271 63.5414 62.5271 55.004H106.437C106.437 49.8767 103.854 43.1836 96.8829 39.5829L76.7308 78.5951ZM62.5271 55.004C62.5271 46.9144 66.1066 39.3172 72.4066 34.1639C78.4097 29.2533 85.4588 27.6363 91.4567 27.6363V71.546C93.0228 71.546 96.5844 71.1153 100.208 68.1511C104.129 64.9441 106.437 60.0533 106.437 55.004H62.5271ZM91.4567 27.6363C97.1962 27.6363 104.035 29.1194 110.004 33.7448C116.332 38.649 120.068 45.907 120.549 53.7568L76.7211 56.4398C76.9982 60.9665 79.2596 65.4709 83.1067 68.4523C86.5941 71.1549 89.9456 71.546 91.4567 71.546V27.6363ZM98.6349 77.0531H94.4137V33.1435H98.6349V77.0531ZM72.4589 55.0983C72.4589 55.8507 72.3533 61.7207 76.8269 67.33C82.0358 73.8613 88.9069 74.7748 91.6674 74.7748V30.8651C96.9635 30.8651 105.208 32.4934 111.156 39.9516C116.369 46.4878 116.369 53.4969 116.369 55.0983H72.4589ZM91.6674 74.7748C91.7734 74.7748 92.4572 74.7757 93.451 74.6419C94.4079 74.513 96.3301 74.1743 98.6206 73.1466C101.077 72.0446 103.97 70.1363 106.383 67.0201C108.79 63.9114 109.904 60.6519 110.352 58.0331L67.069 50.6398C68.4051 42.8181 73.4598 36.3088 80.6456 33.0847C85.6967 30.8184 90.4408 30.8651 91.6674 30.8651V74.7748ZM110.665 54.3364C110.665 50.4607 109.576 46.5421 107.39 43.1088C105.341 39.8892 102.861 37.9235 101.13 36.8182C99.4238 35.7283 97.9549 35.1601 97.1857 34.8933C96.3714 34.6108 95.7719 34.4735 95.5667 34.4283C95.3221 34.3745 95.1688 34.3579 96.2234 34.5196C96.8924 34.6221 98.4813 34.8603 100.178 35.2682L89.9136 77.9613C90.2371 78.0391 90.3476 78.0414 89.5712 77.9224C89.1804 77.8625 87.615 77.6388 86.1297 77.3119C84.9695 77.0566 81.2772 76.2392 77.4978 73.8257C75.3876 72.4782 72.6061 70.2337 70.3495 66.6889C67.9568 62.9304 66.7556 58.6403 66.7556 54.3364H110.665ZM100.635 35.3833C108.702 37.5069 121.229 45.2233 121.229 61.1786H77.3194C77.3194 65.9338 79.2502 70.3422 82.2648 73.4858C84.9807 76.3179 87.8496 77.4232 89.4564 77.8462L100.635 35.3833ZM121.229 61.1786C121.229 70.2067 117.049 78.644 109.324 83.849C102.884 88.1872 96.0122 88.9236 91.6674 88.9236V45.0139C91.5511 45.0139 88.4824 44.9449 84.7895 47.4328C82.7229 48.8251 80.6533 50.9161 79.1871 53.7455C77.7359 56.5461 77.3194 59.2109 77.3194 61.1786H121.229Z"
        fill="#555E6F"
        mask="url(#path-1-inside-1_306_10157)"
      />
      <mask id="path-3-inside-2_306_10157" fill="white">
        <path d="M10.7754 38.9299L25.3498 30.4769L33.1673 43.8711H13.5217" />
      </mask>
      <path
        d="M10.7754 38.9299L25.3498 30.4769L33.1673 43.8711H13.5217"
        fill="#555E6F"
      />
      <path
        d="M25.3498 30.4769L14.3348 11.4852L33.2746 0.500332L44.3112 19.41L25.3498 30.4769ZM33.1673 43.8711L52.1288 32.8042L71.4021 65.8259H33.1673V43.8711ZM-0.239604 19.9382L14.3348 11.4852L36.3648 49.4686L21.7904 57.9216L-0.239604 19.9382ZM44.3112 19.41L52.1288 32.8042L14.2058 54.938L6.38828 41.5439L44.3112 19.41ZM33.1673 65.8259H13.5217V21.9163H33.1673V65.8259Z"
        fill="#555E6F"
        mask="url(#path-3-inside-2_306_10157)"
      />
      <path d="M41.4219 66.4648V49.5589Z" fill="#555E6F" />
      <path d="M41.4219 66.4648V49.5589" stroke="#555E6F" stroke-width="6" />
      <mask id="path-7-inside-3_306_10157" fill="white">
        <path
          d="M4.01049 58.264C4.01049 60.9197 6.33542 63.1036 8.86377 63.1036C11.6174 63.1036 13.7243 60.9197 13.7243 58.264C13.7243 55.7027 11.6174 53.4244 8.86377 53.4244C6.33542 53.4244 4.01049 55.7027 4.01049 58.264V58.264ZM8.65308 67C4.01049 67 0 63.1036 0 58.264C0 53.4244 4.01049 49.6224 8.65308 49.6224C10.5566 49.6224 12.2494 50.1013 13.7243 51.1389V49.8111H17.9528V66.6154H13.7243V65.5706C12.4601 66.5211 10.5566 67 8.65308 67"
        />
      </mask>
      <path
        d="M4.01049 58.264C4.01049 60.9197 6.33542 63.1036 8.86377 63.1036C11.6174 63.1036 13.7243 60.9197 13.7243 58.264C13.7243 55.7027 11.6174 53.4244 8.86377 53.4244C6.33542 53.4244 4.01049 55.7027 4.01049 58.264V58.264ZM8.65308 67C4.01049 67 0 63.1036 0 58.264C0 53.4244 4.01049 49.6224 8.65308 49.6224C10.5566 49.6224 12.2494 50.1013 13.7243 51.1389V49.8111H17.9528V66.6154H13.7243V65.5706C12.4601 66.5211 10.5566 67 8.65308 67"
        fill="#555E6F"
      />
      <path
        d="M13.7243 51.1389H35.6791V93.4276L1.09187 69.0954L13.7243 51.1389ZM13.7243 49.8111H-8.23052V27.8562H13.7243V49.8111ZM17.9528 49.8111V27.8562H39.9076V49.8111H17.9528ZM17.9528 66.6154H39.9076V88.5703H17.9528V66.6154ZM13.7243 66.6154V88.5703H-8.23052V66.6154H13.7243ZM13.7243 65.5706L0.530332 48.0226L35.6791 21.5949V65.5706H13.7243ZM25.9653 58.264C25.9653 53.0423 23.6838 48.7663 20.8435 45.9872C18.0608 43.2645 13.9052 41.1488 8.86377 41.1488V85.0585C-5.3368 85.0585 -17.9443 73.4932 -17.9443 58.264H25.9653ZM8.86377 41.1488C-0.673602 41.1488 -8.23052 48.9606 -8.23052 58.264H35.6791C35.6791 72.8787 23.9083 85.0585 8.86377 85.0585V41.1488ZM-8.23052 58.264C-8.23052 67.3836 -0.947672 75.3793 8.86377 75.3793V31.4696C24.1824 31.4696 35.6791 44.0219 35.6791 58.264H-8.23052ZM8.86377 75.3793C14.1804 75.3793 18.3305 73.0689 20.9478 70.4735C23.5807 67.8627 25.9653 63.6663 25.9653 58.264H-17.9443C-17.9443 43.4032 -5.61498 31.4696 8.86377 31.4696V75.3793ZM8.65308 88.9548C-8.06365 88.9548 -21.9548 75.2801 -21.9548 58.264H21.9548C21.9548 50.9272 16.0846 45.0452 8.65308 45.0452V88.9548ZM-21.9548 58.264C-21.9548 40.9381 -7.75066 27.6676 8.65308 27.6676V71.5772C15.7716 71.5772 21.9548 65.9107 21.9548 58.264H-21.9548ZM8.65308 27.6676C14.4557 27.6676 20.7045 29.206 26.3568 33.1824L1.09187 69.0954C3.7944 70.9966 6.65755 71.5772 8.65308 71.5772V27.6676ZM-8.23052 51.1389V49.8111H35.6791V51.1389H-8.23052ZM13.7243 27.8562H17.9528V71.7659H13.7243V27.8562ZM39.9076 49.8111V66.6154H-4.00206V49.8111H39.9076ZM17.9528 88.5703H13.7243V44.6606H17.9528V88.5703ZM-8.23052 66.6154V65.5706H35.6791V66.6154H-8.23052ZM26.9183 83.1186C20.5997 87.8695 13.4693 88.9548 8.65308 88.9548V45.0452C7.82822 45.0452 6.81744 45.1416 5.63463 45.4652C4.5202 45.7701 2.61983 46.4515 0.530332 48.0226L26.9183 83.1186Z"
        fill="#555E6F"
        mask="url(#path-7-inside-3_306_10157)"
      />
      <mask id="path-9-inside-4_306_10157" fill="white">
        <path
          d="M65.0627 43.8672L44.7852 8.5463L59.3594 -0.000951262L84.7082 43.8672"
        />
      </mask>
      <path
        d="M65.0627 43.8672L44.7852 8.5463L59.3594 -0.000951262L84.7082 43.8672"
        fill="#555E6F"
      />
      <path
        d="M44.7852 8.5463L25.7449 19.4772L14.9147 0.612316L33.6786 -10.392L44.7852 8.5463ZM59.3594 -0.00094986L48.2528 -18.9392L67.3135 -30.1176L78.3688 -10.9853L59.3594 -0.00094986ZM46.0225 54.7981L25.7449 19.4772L63.8254 -2.3846L84.1029 32.9363L46.0225 54.7981ZM33.6786 -10.392L48.2528 -18.9392L70.466 18.9373L55.8917 27.4846L33.6786 -10.392ZM78.3688 -10.9853L103.718 32.8828L65.6987 54.8516L40.35 10.9834L78.3688 -10.9853Z"
        fill="#555E6F"
        mask="url(#path-9-inside-4_306_10157)"
      />
      <mask id="path-11-inside-5_306_10157" fill="white">
        <path
          d="M23.446 58.264C23.446 60.9197 25.5603 63.1036 28.3066 63.1036C30.8349 63.1036 33.1671 60.9197 33.1671 58.264C33.1671 55.7027 30.8349 53.4244 28.3066 53.4244C25.5603 53.4244 23.446 55.7027 23.446 58.264ZM28.0959 67C23.2353 67 19.4355 63.1036 19.4355 58.264C19.4355 53.4244 23.2353 49.6224 28.0959 49.6224C29.9922 49.6224 31.685 50.1013 33.1671 51.1389V44.0209H37.3883V66.6154H33.1671V65.5706C31.685 66.5211 29.9922 67 28.0959 67"
        />
      </mask>
      <path
        d="M23.446 58.264C23.446 60.9197 25.5603 63.1036 28.3066 63.1036C30.8349 63.1036 33.1671 60.9197 33.1671 58.264C33.1671 55.7027 30.8349 53.4244 28.3066 53.4244C25.5603 53.4244 23.446 55.7027 23.446 58.264ZM28.0959 67C23.2353 67 19.4355 63.1036 19.4355 58.264C19.4355 53.4244 23.2353 49.6224 28.0959 49.6224C29.9922 49.6224 31.685 50.1013 33.1671 51.1389V44.0209H37.3883V66.6154H33.1671V65.5706C31.685 66.5211 29.9922 67 28.0959 67"
        fill="#555E6F"
      />
      <path
        d="M33.1671 51.1389H55.122V93.3084L20.5762 69.1245L33.1671 51.1389ZM33.1671 44.0209H11.2123V22.0661H33.1671V44.0209ZM37.3883 44.0209V22.0661H59.3432V44.0209H37.3883ZM37.3883 66.6154H59.3432V88.5703H37.3883V66.6154ZM33.1671 66.6154V88.5703H11.2123V66.6154H33.1671ZM33.1671 65.5706L21.3151 47.0897L55.122 25.4091V65.5706H33.1671ZM45.4009 58.264C45.4009 48.939 37.8297 41.1488 28.3066 41.1488V85.0585C13.2908 85.0585 1.49121 72.9003 1.49121 58.264H45.4009ZM28.3066 41.1488C23.2707 41.1488 19.1236 43.2597 16.3464 45.9717C13.5102 48.7412 11.2123 53.02 11.2123 58.264H55.122C55.122 73.5345 42.4648 85.0585 28.3066 85.0585V41.1488ZM11.2123 58.264C11.2123 63.6885 13.6136 67.8881 16.2419 70.4891C18.854 73.074 22.9959 75.3793 28.3066 75.3793V31.4696C42.7433 31.4696 55.122 43.3616 55.122 58.264H11.2123ZM28.3066 75.3793C38.104 75.3793 45.4009 67.4054 45.4009 58.264H1.49121C1.49121 44.0001 13.0166 31.4696 28.3066 31.4696V75.3793ZM28.0959 88.9548C10.8269 88.9548 -2.51929 74.9439 -2.51929 58.264H41.3904C41.3904 51.2634 35.6438 45.0452 28.0959 45.0452V88.9548ZM-2.51929 58.264C-2.51929 41.2717 11.1374 27.6676 28.0959 27.6676V71.5772C35.3333 71.5772 41.3904 65.5771 41.3904 58.264H-2.51929ZM28.0959 27.6676C33.9116 27.6676 40.1334 29.2157 45.7581 33.1532L20.5762 69.1245C21.7946 69.9775 23.1576 70.6311 24.575 71.0493C25.9676 71.4601 27.1849 71.5772 28.0959 71.5772V27.6676ZM11.2123 51.1389V44.0209H55.122V51.1389H11.2123ZM33.1671 22.0661H37.3883V65.9758H33.1671V22.0661ZM59.3432 44.0209V66.6154H15.4335V44.0209H59.3432ZM37.3883 88.5703H33.1671V44.6606H37.3883V88.5703ZM11.2123 66.6154V65.5706H55.122V66.6154H11.2123ZM45.0191 84.0516C39.744 87.4345 33.8789 88.9548 28.0959 88.9548V45.0452C26.1054 45.0452 23.6259 45.6077 21.3151 47.0897L45.0191 84.0516Z"
        fill="#555E6F"
        mask="url(#path-11-inside-5_306_10157)"
      />
      <mask id="path-13-inside-6_306_10157" fill="white">
        <path
          d="M27.8867 23.8343L42.6718 15.4829L58.939 43.8675H43.5146V48.0469H39.2934V43.8675"
        />
      </mask>
      <path
        d="M27.8867 23.8343L42.6718 15.4829L58.939 43.8675H43.5146V48.0469H39.2934V43.8675"
        fill="#555E6F"
      />
      <path
        d="M42.6718 15.4829L31.874 -3.63312L50.8713 -14.3638L61.7202 4.56629L42.6718 15.4829ZM58.939 43.8675L77.9874 32.9509L96.826 65.8224H58.939V43.8675ZM43.5146 43.8675H21.5597V21.9127H43.5146V43.8675ZM43.5146 48.0469H65.4694V70.0017H43.5146V48.0469ZM39.2934 48.0469V70.0017H17.3385V48.0469H39.2934ZM17.0889 4.71829L31.874 -3.63312L53.4696 34.599L38.6845 42.9504L17.0889 4.71829ZM61.7202 4.56629L77.9874 32.9509L39.8906 54.7842L23.6234 26.3995L61.7202 4.56629ZM58.939 65.8224H43.5146V21.9127H58.939V65.8224ZM65.4694 43.8675V48.0469H21.5597V43.8675H65.4694ZM43.5146 70.0017H39.2934V26.092H43.5146V70.0017ZM17.3385 48.0469V43.8675H61.2482V48.0469H17.3385Z"
        fill="#555E6F"
        mask="url(#path-13-inside-6_306_10157)"
      />
      <path
        d="M96.5342 48.1797C95.4734 48.1797 94.4199 47.2292 94.4199 46.09C94.4199 44.9509 95.4734 44.0004 96.5342 44.0004C97.7983 44.0004 98.6484 44.9509 98.6484 46.09C98.6484 47.2292 97.7983 48.1797 96.5342 48.1797ZM96.5342 44.2906C95.4734 44.2906 94.8413 45.1395 94.8413 46.09C94.8413 47.0405 95.4734 47.8967 96.5342 47.8967C97.5876 47.8967 98.2197 47.0405 98.2197 46.09C98.2197 45.1395 97.5876 44.2906 96.5342 44.2906Z"
        fill="#555E6F"
        stroke="#555E6F"
        stroke-width="21.9548"
      />
      <mask id="path-16-inside-7_306_10157" fill="white">
        <path
          d="M96.971 47.2344L96.5497 46.2839H96.1283V47.2344H95.8086V44.9561H96.7604C96.971 44.9561 97.3924 45.2463 97.3924 45.6236C97.3924 46.0009 97.1817 46.1895 96.971 46.2839L97.3924 47.2344H96.971ZM96.5497 45.2463H96.1283V46.0009H96.5497C96.971 46.0009 96.971 45.9066 96.971 45.6236C96.971 45.4277 96.971 45.2463 96.5497 45.2463"
        />
      </mask>
      <path
        d="M96.971 47.2344L96.5497 46.2839H96.1283V47.2344H95.8086V44.9561H96.7604C96.971 44.9561 97.3924 45.2463 97.3924 45.6236C97.3924 46.0009 97.1817 46.1895 96.971 46.2839L97.3924 47.2344H96.971ZM96.5497 45.2463H96.1283V46.0009H96.5497C96.971 46.0009 96.971 45.9066 96.971 45.6236C96.971 45.4277 96.971 45.2463 96.5497 45.2463"
        fill="#555E6F"
      />
      <path
        d="M96.971 47.2344V69.1892H82.6887L76.9002 56.1324L96.971 47.2344ZM96.5497 46.2839V24.329H110.832L116.621 37.3858L96.5497 46.2839ZM96.1283 46.2839H74.1734V24.329H96.1283V46.2839ZM96.1283 47.2344H118.083V69.1892H96.1283V47.2344ZM95.8086 47.2344V69.1892H73.8538V47.2344H95.8086ZM95.8086 44.9561H73.8538V23.0012H95.8086V44.9561ZM96.971 46.2839L76.9002 55.1819L68.0344 35.1838L88.0001 26.2455L96.971 46.2839ZM97.3924 47.2344L117.463 38.3363L131.141 69.1892H97.3924V47.2344ZM96.1283 45.2463H74.1734V23.2915H96.1283V45.2463ZM96.1283 46.0009V67.9557H74.1734V46.0009H96.1283ZM76.9002 56.1324L76.4788 55.1819L116.621 37.3858L117.042 38.3363L76.9002 56.1324ZM96.5497 68.2387H96.1283V24.329H96.5497V68.2387ZM118.083 46.2839V47.2344H74.1734V46.2839H118.083ZM96.1283 69.1892H95.8086V25.2795H96.1283V69.1892ZM73.8538 47.2344V44.9561H117.763V47.2344H73.8538ZM95.8086 23.0012H96.7604V66.9109H95.8086V23.0012ZM96.7604 23.0012C101.284 23.0012 104.703 24.3787 106.43 25.2056C108.48 26.1872 110.324 27.4488 111.924 28.9035C114.753 31.4748 119.347 37.0978 119.347 45.6236H75.4376C75.4376 53.7721 79.8216 59.0613 82.3865 61.3932C83.8549 62.7281 85.5543 63.8936 87.4661 64.809C89.0546 65.5697 92.3417 66.9109 96.7604 66.9109V23.0012ZM119.347 45.6236C119.347 50.1877 117.972 55.0057 114.87 59.1715C111.964 63.075 108.446 65.2013 105.942 66.3223L88.0001 26.2455C85.707 27.2721 82.3996 29.2569 79.6511 32.9482C76.7074 36.9018 75.4376 41.4367 75.4376 45.6236H119.347ZM117.042 37.3858L117.463 38.3363L77.3216 56.1324L76.9002 55.1819L117.042 37.3858ZM97.3924 69.1892H96.971V25.2795H97.3924V69.1892ZM96.5497 67.2011H96.1283V23.2915H96.5497V67.2011ZM118.083 45.2463V46.0009H74.1734V45.2463H118.083ZM96.1283 24.0461H96.5497V67.9557H96.1283V24.0461ZM96.5497 24.0461C96.1434 24.0461 94.3112 24.0392 91.9975 24.5571C89.5148 25.1128 84.6715 26.6736 80.5465 31.2904C76.4485 35.877 75.4887 40.7841 75.2081 42.8566C74.9726 44.5962 75.0162 46.2093 75.0162 45.6236H118.926C118.926 45.6267 118.926 45.7152 118.925 45.8136C118.925 45.9178 118.923 46.1024 118.917 46.33C118.905 46.7312 118.873 47.6268 118.721 48.7472C118.427 50.9171 117.441 55.9008 113.29 60.5463C109.113 65.2221 104.19 66.8241 101.589 67.4064C99.1568 67.9508 97.1666 67.9557 96.5497 67.9557V24.0461ZM75.0162 45.6236C75.0162 45.216 74.9728 46.8465 75.2455 48.6916C75.5604 50.8225 76.4592 54.6958 79.3902 58.5819C85.7883 67.0647 94.9021 67.2011 96.5497 67.2011V23.2915C98.6186 23.2915 107.943 23.5185 114.447 32.1411C117.43 36.0969 118.355 40.0523 118.683 42.2724C118.848 43.3849 118.894 44.2871 118.912 44.7895C118.921 45.054 118.924 45.2694 118.925 45.4003C118.926 45.4676 118.926 45.5232 118.926 45.5589C118.926 45.5921 118.926 45.6214 118.926 45.6236H75.0162Z"
        fill="#555E6F"
        mask="url(#path-16-inside-7_306_10157)"
      />
      <mask id="path-18-inside-8_306_10157" fill="white">
        <path
          d="M68.6355 58.264C68.6355 60.9197 70.7497 63.1036 73.496 63.1036C76.0317 63.1036 78.3493 60.9197 78.3493 58.264C78.3493 55.7027 76.0317 53.4244 73.496 53.4244C70.7497 53.4244 68.6355 55.7027 68.6355 58.264V58.264ZM73.2781 67C68.4248 67 64.625 63.1036 64.625 58.264C64.625 53.4244 68.4248 49.6224 73.2781 49.6224C75.1816 49.6224 76.8744 50.1013 78.3493 51.1389V49.8111H82.3671V66.6154H78.3493V65.5706C76.8744 66.5211 75.1816 67 73.2781 67"
        />
      </mask>
      <path
        d="M68.6355 58.264C68.6355 60.9197 70.7497 63.1036 73.496 63.1036C76.0317 63.1036 78.3493 60.9197 78.3493 58.264C78.3493 55.7027 76.0317 53.4244 73.496 53.4244C70.7497 53.4244 68.6355 55.7027 68.6355 58.264V58.264ZM73.2781 67C68.4248 67 64.625 63.1036 64.625 58.264C64.625 53.4244 68.4248 49.6224 73.2781 49.6224C75.1816 49.6224 76.8744 50.1013 78.3493 51.1389V49.8111H82.3671V66.6154H78.3493V65.5706C76.8744 66.5211 75.1816 67 73.2781 67"
        fill="#555E6F"
      />
      <path
        d="M78.3493 51.1389H100.304V93.4276L65.7169 69.0954L78.3493 51.1389ZM78.3493 49.8111H56.3945V27.8562H78.3493V49.8111ZM82.3671 49.8111V27.8562H104.322V49.8111H82.3671ZM82.3671 66.6154H104.322V88.5703H82.3671V66.6154ZM78.3493 66.6154V88.5703H56.3945V66.6154H78.3493ZM78.3493 65.5706L66.4561 47.1162L100.304 25.3022V65.5706H78.3493ZM90.5903 58.264C90.5903 48.939 83.0192 41.1488 73.496 41.1488V85.0585C58.4803 85.0585 46.6807 72.9003 46.6807 58.264H90.5903ZM73.496 41.1488C68.4685 41.1488 64.3066 43.2569 61.5111 45.995C58.661 48.7865 56.3945 53.0633 56.3945 58.264H100.304C100.304 73.4724 87.7251 85.0585 73.496 85.0585V41.1488ZM56.3945 58.264C56.3945 63.6454 58.7639 67.8422 61.4068 70.4657C64.0373 73.0767 68.1932 75.3793 73.496 75.3793V31.4696C88.0031 31.4696 100.304 43.4241 100.304 58.264H56.3945ZM73.496 75.3793C83.2934 75.3793 90.5903 67.4054 90.5903 58.264H46.6807C46.6807 44.0001 58.206 31.4696 73.496 31.4696V75.3793ZM73.2781 88.9548C56.0044 88.9548 42.6702 74.9318 42.6702 58.264H86.5798C86.5798 51.2755 80.8452 45.0452 73.2781 45.0452V88.9548ZM42.6702 58.264C42.6702 41.2838 56.3148 27.6676 73.2781 27.6676V71.5772C80.5348 71.5772 86.5798 65.5651 86.5798 58.264H42.6702ZM73.2781 27.6676C79.0807 27.6676 85.3295 29.206 90.9818 33.1824L65.7169 69.0954C68.4194 70.9966 71.2826 71.5772 73.2781 71.5772V27.6676ZM56.3945 51.1389V49.8111H100.304V51.1389H56.3945ZM78.3493 27.8562H82.3671V71.7659H78.3493V27.8562ZM104.322 49.8111V66.6154H60.4122V49.8111H104.322ZM82.3671 88.5703H78.3493V44.6606H82.3671V88.5703ZM56.3945 66.6154V65.5706H100.304V66.6154H56.3945ZM90.2426 84.025C84.9385 87.4433 79.0496 88.9548 73.2781 88.9548V45.0452C71.3136 45.0452 68.8104 45.5989 66.4561 47.1162L90.2426 84.025Z"
        fill="#555E6F"
        mask="url(#path-18-inside-8_306_10157)"
      />
      <mask id="path-20-inside-9_306_10157" fill="white">
        <path
          d="M49.2156 58.264C49.2156 60.9197 51.5405 63.1036 54.0761 63.1036C56.8224 63.1036 58.9367 60.9197 58.9367 58.264C58.9367 55.7027 56.8224 53.4244 54.0761 53.4244C51.5405 53.4244 49.2156 55.7027 49.2156 58.264ZM58.9367 44.0209H63.1578V66.6154H58.9367V65.5706C57.6652 66.5211 55.9724 67 54.0761 67C49.2156 67 45.2051 63.1036 45.2051 58.264C45.2051 53.4244 49.2156 49.6224 54.0761 49.6224C55.9724 49.6224 57.6652 50.1013 58.9367 51.1389V44.0209Z"
        />
      </mask>
      <path
        d="M49.2156 58.264C49.2156 60.9197 51.5405 63.1036 54.0761 63.1036C56.8224 63.1036 58.9367 60.9197 58.9367 58.264C58.9367 55.7027 56.8224 53.4244 54.0761 53.4244C51.5405 53.4244 49.2156 55.7027 49.2156 58.264ZM58.9367 44.0209H63.1578V66.6154H58.9367V65.5706C57.6652 66.5211 55.9724 67 54.0761 67C49.2156 67 45.2051 63.1036 45.2051 58.264C45.2051 53.4244 49.2156 49.6224 54.0761 49.6224C55.9724 49.6224 57.6652 50.1013 58.9367 51.1389V44.0209Z"
        fill="#555E6F"
      />
      <path
        d="M58.9367 44.0209H36.9818V22.0661H58.9367V44.0209ZM63.1578 44.0209V22.0661H85.1127V44.0209H63.1578ZM63.1578 66.6154H85.1127V88.5703H63.1578V66.6154ZM58.9367 66.6154V88.5703H36.9818V66.6154H58.9367ZM58.9367 65.5706L45.791 47.9864L80.8915 21.7458V65.5706H58.9367ZM58.9367 51.1389H80.8915V97.3929L45.0556 68.1486L58.9367 51.1389ZM71.1704 58.264C71.1704 53.041 68.8876 48.7614 66.0416 45.9795C63.2514 43.2522 59.0982 41.1488 54.0761 41.1488V85.0585C39.8894 85.0585 27.2607 73.5139 27.2607 58.264H71.1704ZM54.0761 41.1488C44.553 41.1488 36.9818 48.939 36.9818 58.264H80.8915C80.8915 72.9003 69.0919 85.0585 54.0761 85.0585V41.1488ZM36.9818 58.264C36.9818 67.4054 44.2787 75.3793 54.0761 75.3793V31.4696C69.3661 31.4696 80.8915 44.0001 80.8915 58.264H36.9818ZM54.0761 75.3793C59.3731 75.3793 63.5207 73.0818 66.1459 70.4813C68.7844 67.8676 71.1704 63.6676 71.1704 58.264H27.2607C27.2607 43.3824 39.6111 31.4696 54.0761 31.4696V75.3793ZM58.9367 22.0661H63.1578V65.9758H58.9367V22.0661ZM85.1127 44.0209V66.6154H41.203V44.0209H85.1127ZM63.1578 88.5703H58.9367V44.6606H63.1578V88.5703ZM36.9818 66.6154V65.5706H80.8915V66.6154H36.9818ZM72.0823 83.1549C66.1388 87.5982 59.4851 88.9548 54.0761 88.9548V45.0452C52.4596 45.0452 49.1917 45.4441 45.791 47.9864L72.0823 83.1549ZM54.0761 88.9548C37.4966 88.9548 23.2502 75.6313 23.2502 58.264H67.1599C67.1599 50.576 60.9346 45.0452 54.0761 45.0452V88.9548ZM23.2502 58.264C23.2502 40.5896 37.8121 27.6676 54.0761 27.6676V71.5772C60.6191 71.5772 67.1599 66.2592 67.1599 58.264H23.2502ZM54.0761 27.6676C59.4861 27.6676 66.5774 29.0367 72.8177 34.1291L45.0556 68.1486C48.753 71.1659 52.4587 71.5772 54.0761 71.5772V27.6676ZM36.9818 51.1389V44.0209H80.8915V51.1389H36.9818Z"
        fill="#555E6F"
        mask="url(#path-20-inside-9_306_10157)"
      />
    </svg>