 <svg
      width="176"
      height="48"
      viewBox="0 0 176 48"
      fill="none"
      xmlns="http://www.w3.org/2000/svg"
    >
      <path
        d="M45.5177 23.8867C45.2278 23.3017 44.4561 22.8242 43.803 22.8242H42.4756C41.8237 22.8242 41.0611 23.3072 40.779 23.8964L30.2557 45.9353C29.9633 46.5184 30.2811 46.9359 30.9342 46.9359H33.3662C34.3262 46.9359 34.7662 46.4984 35.0259 45.962C35.2867 45.4256 35.8666 44.26 35.9773 44.0222C36.1275 43.7006 36.5899 43.5034 37.2418 43.504L48.5647 43.5101C49.2172 43.5113 49.6366 43.6357 49.8297 44.0222C49.9556 44.274 50.5343 45.3225 50.8187 45.8947C51.1056 46.4668 51.5874 46.9359 52.5226 46.9359H56.0513C56.7038 46.9359 56.9895 46.4395 56.7547 45.9784C56.5186 45.516 45.5177 23.8867 45.5177 23.8867ZM38.8694 40.1C38.2175 40.1 37.9106 39.6134 38.1848 39.0218L42.3315 30.1163C42.6075 29.5229 43.0536 29.5272 43.323 30.12L47.3602 39.0255C47.6295 39.6195 47.3166 40.1061 46.6653 40.1061L38.8694 40.1ZM126.832 24.0572C126.832 24.2701 126.832 45.493 126.832 45.9214C126.832 46.5233 127.366 46.9359 128.019 46.9359H130.894C131.546 46.9359 132.08 46.5184 132.08 45.8643V24.0129C132.08 23.3582 131.659 22.8248 131.007 22.8248H128.019C127.366 22.8242 126.832 23.2265 126.832 24.0572ZM78.6427 37.7519C78.268 37.2167 78.4738 36.6257 79.0979 36.4388C79.0979 36.4388 81.5825 35.6931 82.7719 34.624C83.9619 33.5518 84.5599 32.004 84.5599 29.9865C84.5599 28.6674 84.3299 27.5582 83.8717 26.6559C83.4135 25.7561 82.7568 25.0195 81.9021 24.4558C81.0475 23.8891 80.0245 23.4735 78.8334 23.2132C77.6404 22.9541 76.0309 22.8782 76.0309 22.8782C75.3784 22.8485 74.3125 22.8242 73.6613 22.8242H61.7192C61.0679 22.8242 60.534 23.3576 60.534 24.0123V45.8643C60.534 46.519 61.0673 46.9359 61.7192 46.9359H64.5452C65.1977 46.9359 65.7309 46.5184 65.7309 45.8643C65.7309 45.8643 65.7328 37.173 65.7382 37.173C65.743 37.173 65.7461 37.1682 65.7461 37.1621C65.7461 37.1548 71.1034 37.1487 71.1034 37.1487C71.7546 37.1487 72.596 37.5856 72.9731 38.1208L78.5344 45.9705C79.0513 46.6659 79.5427 46.9359 80.1946 46.9359H83.8886C84.5411 46.9359 84.6434 46.3194 84.4176 45.999C84.1943 45.6805 78.6427 37.7519 78.6427 37.7519ZM76.3941 33.314C75.6623 33.4827 74.8385 33.5166 74.8385 33.5166C74.1873 33.5452 73.1214 33.5682 72.4689 33.5682H66.933C66.2805 33.5682 65.7473 33.033 65.7473 32.3796V27.952C65.7473 27.2979 66.2805 26.7633 66.933 26.7633H72.4689C73.1214 26.7633 74.1873 26.787 74.8385 26.8143C74.8385 26.8143 75.6623 26.8471 76.3941 27.0164C77.1259 27.1856 77.7063 27.4217 78.1312 27.7269C78.558 28.0339 78.8624 28.3937 79.0464 28.8075C79.228 29.2213 79.3206 29.6722 79.3206 30.1643C79.3206 30.6539 79.228 31.1072 79.0464 31.5204C78.8624 31.9342 78.558 32.294 78.1312 32.601C77.7063 32.9081 77.1259 33.1471 76.3941 33.314ZM162.139 22.8242C161.488 22.8242 160.96 23.255 160.96 23.8848C160.96 24.187 160.968 37.8623 160.968 37.8623C160.968 38.5176 160.598 38.6663 160.146 38.1954L146.184 23.6785C145.731 23.2077 145.068 22.8242 144.174 22.8242H141.548C140.723 22.8242 140.362 23.2659 140.362 23.7131C140.362 24.1585 140.362 45.6168 140.362 46.0645C140.362 46.5105 140.785 46.9359 141.438 46.9359H144.068C144.719 46.9359 145.175 46.5803 145.175 45.9784C145.175 45.6762 145.189 31.2534 145.189 31.2534C145.189 30.5999 145.557 30.4507 146.009 30.9227L160.566 46.0937C161.029 46.5579 161.59 46.9359 162.59 46.9359H164.565C165.218 46.9359 165.752 46.4013 165.752 45.7472V24.0129C165.752 23.3582 165.218 22.8248 164.565 22.8248H162.139V22.8242ZM105.217 36.4534C104.901 37.0244 104.38 37.0225 104.067 36.4504L97.2428 23.8867C96.9529 23.3036 96.3579 22.8242 95.5287 22.8242H91.8274C91.175 22.8242 90.6405 23.3576 90.6405 24.0123V45.8364C90.6405 46.4893 91.069 46.9359 91.8274 46.9359H94.1281C94.7812 46.9359 95.2515 46.5233 95.2515 45.8928C95.2515 45.5907 95.2612 30.0199 95.286 30.0199C95.3114 30.0199 103.804 45.8886 103.804 45.8886C104.112 46.4644 104.866 46.4668 105.18 45.8934C105.18 45.8934 113.742 30.0654 113.767 30.0654C113.794 30.0654 113.784 45.4384 113.784 45.8928C113.784 46.5239 114.287 46.9359 114.941 46.9359H117.59C118.244 46.9359 118.776 46.61 118.776 45.7472V24.0129C118.776 23.3582 118.244 22.8248 117.59 22.8248H114.042C113.137 22.8248 112.592 23.2878 112.268 23.8563L105.217 36.4534Z"
        fill="#31353D"
      />
      <path
        d="M0 34.8597C0 46.634 12.0135 47.231 14.4225 47.231C22.3946 47.231 25.7636 45.0715 25.9034 44.9781C26.4022 44.6954 27.0093 44.125 27.0093 43.0565V34.9295C27.0093 34.1807 26.401 33.5709 25.6534 33.5709H15.6379C14.8892 33.5709 14.3977 34.1807 14.3977 34.9295V35.7711C14.3977 36.521 14.8892 37.1326 15.6379 37.1326H21.431C21.9903 37.1326 22.4449 37.5877 22.4449 38.1484C22.4449 38.1484 22.4394 41.7107 22.4394 41.9364C21.2948 42.4048 16.0822 43.9314 11.8937 42.9303C5.81792 41.4734 5.34459 36.4488 5.34459 34.9434C5.34459 33.6801 5.72229 27.3516 13.1841 26.7114C19.2242 26.1933 23.2015 28.6379 23.2408 28.6616C23.9508 29.0305 24.6856 28.7678 25.0815 28.0142C25.0833 28.0081 25.835 26.4833 25.835 26.4833C26.148 25.8559 26.0426 25.2054 25.2788 24.6861C25.2279 24.6569 20.994 22.3555 14.4237 22.3555C0.404324 22.3561 0 33.58 0 34.8597Z"
        fill="#31353D"
      />
      <path
        d="M169.518 43.9357H168.486V43.5625H170.998V43.9357H169.961V46.9628H169.518V43.9357V43.9357Z"
        fill="#31353D"
      />
      <path
        d="M174.487 45.4702C174.461 44.9957 174.431 44.4205 174.431 44.0018H174.421C174.3 44.395 174.164 44.824 173.993 45.2936L173.394 46.9428H173.062L172.508 45.3239C172.347 44.8397 172.217 44.4053 172.121 44.0018H172.11C172.1 44.4253 172.075 44.9908 172.045 45.5054L171.955 46.9628H171.537L171.774 43.5625H172.332L172.912 45.2074C173.052 45.6261 173.163 45.9999 173.254 46.3524H173.264C173.354 46.0096 173.475 45.6364 173.627 45.2074L174.231 43.5625H174.789L175.001 46.9628H174.568L174.487 45.4702Z"
        fill="#31353D"
      />
      <path
        d="M160.81 16.8001L145.078 16.7995C144.501 16.7995 144.006 16.5119 143.718 16.0113C143.43 15.5107 143.43 14.938 143.719 14.4374L151.585 0.786368C151.873 0.286393 152.368 0 152.945 0C153.521 0 154.016 0.286393 154.304 0.786368L162.17 14.438C162.459 14.9386 162.459 15.512 162.17 16.0125C161.882 16.5125 161.387 16.8001 160.81 16.8001Z"
        fill="#555E6F"
      />
    </svg>